<?xml version="1.0" encoding="UTF-8"?><svg id="Layer_2" xmlns="http://www.w3.org/2000/svg" viewBox="0 0 464.49 464.49"><defs><style>.cls-1{fill:#2a3587;}</style></defs><g id="Layer_1-2"><path class="cls-1" d="M443.64,135.93c-8.47-18.51-19.22-35.71-32.06-51.22C369.02,32.97,304.45,0,232.24,0S95.47,32.97,52.91,84.71c-18.05,21.83-32.13,47.05-41.18,74.48C4.11,182.2,0,206.7,0,232.24c0,128.24,104,232.24,232.24,232.24s232.24-104,232.24-232.24c0-34.34-7.43-66.92-20.85-96.31ZM232.24,435.16c-101.39,0-183.57-74.03-183.57-165.39,0-10.3,1.04-20.4,3.06-30.24H412.75c2.02,9.84,3.06,19.94,3.06,30.24,0,91.36-82.17,165.39-183.57,165.39Z"/></g></svg>