<svg width="40" height="40" viewBox="0 0 40 40" fill="none" xmlns="http://www.w3.org/2000/svg">
<path d="M31.6666 20.0003C31.6666 20.9208 30.9204 21.667 29.9999 21.667C29.0794 21.667 28.3333 20.9208 28.3333 20.0003C28.3333 19.0799 29.0794 18.3337 29.9999 18.3337C30.9204 18.3337 31.6666 19.0799 31.6666 20.0003Z" fill="white"/>
<path fill-rule="evenodd" clip-rule="evenodd" d="M16.5726 5.41699H21.7606C24.8235 5.41697 27.2496 5.41695 29.1483 5.67222C31.1023 5.93493 32.6839 6.48846 33.9312 7.73573C35.4718 9.27638 35.9628 11.3397 36.141 14.0171C37.1031 14.4405 37.8296 15.3358 37.9096 16.47C37.9167 16.5703 37.9167 16.6784 37.9166 16.7787C37.9166 16.7878 37.9166 16.7969 37.9166 16.8059V23.1948C37.9166 23.2038 37.9166 23.2128 37.9166 23.222C37.9167 23.3222 37.9167 23.4304 37.9096 23.5307C37.8296 24.6648 37.1031 25.5602 36.141 25.9835C35.9628 28.661 35.4718 30.7243 33.9312 32.2649C32.6839 33.5122 31.1023 34.0657 29.1483 34.3284C27.2496 34.5837 24.8235 34.5837 21.7606 34.5837H16.5726C13.5096 34.5837 11.0836 34.5837 9.18488 34.3284C7.23084 34.0657 5.64926 33.5122 4.40199 32.2649C3.15472 31.0177 2.60119 29.4361 2.33848 27.482C2.08321 25.5833 2.08323 23.1573 2.08325 20.0944V19.9063C2.08323 16.8434 2.08321 14.4173 2.33848 12.5186C2.60119 10.5646 3.15472 8.983 4.40199 7.73573C5.64926 6.48846 7.23084 5.93493 9.18488 5.67222C11.0836 5.41695 13.5096 5.41697 16.5726 5.41699ZM33.6131 26.2503H30.3845C26.8092 26.2503 23.7499 23.5377 23.7499 20.0003C23.7499 16.4629 26.8092 13.7503 30.3845 13.7503H33.6131C33.4234 11.5146 32.9943 10.3344 32.1634 9.5035C31.4581 8.79815 30.492 8.37537 28.8152 8.14992C27.1024 7.91965 24.8446 7.91699 21.6666 7.91699H16.6666C13.4886 7.91699 11.2308 7.91965 9.518 8.14992C7.84118 8.37537 6.87511 8.79815 6.16976 9.5035C5.46441 10.2088 5.04163 11.1749 4.81618 12.8517C4.58591 14.5645 4.58325 16.8223 4.58325 20.0003C4.58325 23.1784 4.58591 25.4361 4.81618 27.1489C5.04163 28.8257 5.46441 29.7918 6.16976 30.4972C6.87511 31.2025 7.84119 31.6253 9.518 31.8507C11.2308 32.081 13.4886 32.0837 16.6666 32.0837H21.6666C24.8446 32.0837 27.1024 32.081 28.8152 31.8507C30.492 31.6253 31.4581 31.2025 32.1634 30.4972C32.9943 29.6663 33.4234 28.4861 33.6131 26.2503ZM8.74992 13.3337C8.74992 12.6433 9.30956 12.0837 9.99992 12.0837H16.6666C17.3569 12.0837 17.9166 12.6433 17.9166 13.3337C17.9166 14.024 17.3569 14.5837 16.6666 14.5837H9.99992C9.30956 14.5837 8.74992 14.024 8.74992 13.3337ZM34.8725 16.2507C34.8386 16.2503 34.7942 16.2503 34.7221 16.2503H30.3845C28.0122 16.2503 26.2499 18.0149 26.2499 20.0003C26.2499 21.9858 28.0122 23.7503 30.3845 23.7503H34.7221C34.7942 23.7503 34.8386 23.7503 34.8725 23.75C34.8932 23.7497 34.9042 23.7494 34.9094 23.7492L34.9132 23.7491C35.2567 23.7282 35.4045 23.4963 35.4157 23.3568C35.4157 23.3568 35.416 23.3463 35.4162 23.3313C35.4166 23.3017 35.4166 23.2623 35.4166 23.1948V16.8059C35.4166 16.7384 35.4166 16.6989 35.4162 16.6694C35.416 16.6543 35.4157 16.6438 35.4157 16.6438C35.4045 16.5044 35.2567 16.2725 34.9132 16.2516C34.9132 16.2516 34.9049 16.251 34.8725 16.2507Z" fill="white"/>
</svg>
