<svg width="24" height="24" viewBox="0 0 24 24" fill="none" xmlns="http://www.w3.org/2000/svg">
<path fill-rule="evenodd" clip-rule="evenodd" d="M2.24872 2.29242C1.85795 2.15503 1.4298 2.36044 1.29242 2.7512C1.15503 3.14197 1.36044 3.57012 1.7512 3.7075L2.01241 3.79934C2.68002 4.03406 3.11877 4.18961 3.44162 4.34802C3.74484 4.4968 3.87851 4.61723 3.96657 4.74609C4.05683 4.87818 4.12653 5.0596 4.16587 5.42295C4.20702 5.80316 4.20804 6.29837 4.20804 7.03832V9.75996C4.20804 11.2125 4.22167 12.2598 4.35872 13.0601C4.50505 13.9144 4.79718 14.526 5.34341 15.1022C5.93727 15.7285 6.69008 16.0012 7.58632 16.1283C8.44455 16.25 9.5344 16.25 10.8801 16.25L16.2858 16.25C17.0275 16.25 17.6516 16.25 18.1565 16.1882C18.6923 16.1226 19.1809 15.9793 19.6074 15.6318C20.0339 15.2842 20.2729 14.8346 20.4452 14.3231C20.6077 13.841 20.7336 13.2299 20.8833 12.5034L21.3923 10.0341L21.3932 10.0295L21.4037 9.97723C21.5683 9.15234 21.7069 8.45845 21.7413 7.90034C21.7775 7.31414 21.7108 6.73613 21.3289 6.23974C21.094 5.93432 20.7636 5.76141 20.4631 5.65583C20.1566 5.54814 19.8101 5.48584 19.4603 5.44674C18.7733 5.36993 17.9386 5.36995 17.12 5.36996L5.66784 5.36996C5.66456 5.33321 5.661 5.29706 5.65715 5.26153C5.60342 4.76515 5.48701 4.31243 5.20503 3.89979C4.92085 3.48393 4.543 3.21759 4.10237 3.00139C3.69028 2.79919 3.16665 2.61511 2.55012 2.39838L2.24872 2.29242ZM5.70803 6.86996H17.0888C17.9452 6.86996 18.6989 6.87096 19.2937 6.93745C19.5892 6.97049 19.8104 7.01639 19.9659 7.07101C20.0929 7.11565 20.1359 7.1521 20.1421 7.15737C20.142 7.15726 20.1424 7.15759 20.1421 7.15737C20.2034 7.23878 20.2702 7.38648 20.2442 7.80793C20.2168 8.2515 20.1003 8.84376 19.9227 9.73369L19.9222 9.73591L19.4234 12.156C19.2621 12.9389 19.1535 13.4592 19.0238 13.8441C18.9006 14.2095 18.785 14.3669 18.6598 14.469C18.5346 14.571 18.357 14.6525 17.9743 14.6993C17.5712 14.7487 17.0396 14.75 16.2403 14.75H10.9374C9.52065 14.75 8.53759 14.7482 7.79692 14.6432C7.08211 14.5418 6.70448 14.3576 6.43194 14.0701C6.11178 13.7324 5.93909 13.4018 5.83719 12.8068C5.72603 12.1578 5.70804 11.249 5.70804 9.75996L5.70803 6.86996Z" fill="#CF5763"/>
<path fill-rule="evenodd" clip-rule="evenodd" d="M7.49996 21.75C6.25732 21.75 5.24996 20.7426 5.24996 19.5C5.24996 18.2573 6.25732 17.25 7.49996 17.25C8.7426 17.25 9.74996 18.2573 9.74996 19.5C9.74996 20.7426 8.7426 21.75 7.49996 21.75ZM6.74996 19.5C6.74996 19.9142 7.08575 20.25 7.49996 20.25C7.91417 20.25 8.24996 19.9142 8.24996 19.5C8.24996 19.0857 7.91417 18.75 7.49996 18.75C7.08575 18.75 6.74996 19.0857 6.74996 19.5Z" fill="#CF5763"/>
<path fill-rule="evenodd" clip-rule="evenodd" d="M16.5 21.75C15.2573 21.75 14.25 20.7427 14.25 19.5C14.25 18.2574 15.2573 17.25 16.5 17.25C17.7426 17.25 18.75 18.2574 18.75 19.5C18.75 20.7427 17.7426 21.75 16.5 21.75ZM15.75 19.5C15.75 19.9142 16.0857 20.25 16.5 20.25C16.9142 20.25 17.25 19.9142 17.25 19.5C17.25 19.0858 16.9142 18.75 16.5 18.75C16.0857 18.75 15.75 19.0858 15.75 19.5Z" fill="#CF5763"/>
</svg>
