<svg width="25" height="24" viewBox="0 0 25 24" fill="none" xmlns="http://www.w3.org/2000/svg">
<g clip-path="url(#clip0_39_1007)">
<path d="M18.0385 7.63636C18.0385 7.34091 17.9471 7.08523 17.7644 6.86932C17.5817 6.65341 17.3654 6.54545 17.1154 6.54545H15.2692V4.36364C15.2692 4.06818 15.1779 3.8125 14.9952 3.59659C14.8125 3.38068 14.5962 3.27273 14.3462 3.27273C14.0962 3.27273 13.8798 3.38068 13.6971 3.59659C13.5144 3.8125 13.4231 4.06818 13.4231 4.36364V6.54545H11.5769C11.3269 6.54545 11.1106 6.65341 10.9279 6.86932C10.7452 7.08523 10.6538 7.34091 10.6538 7.63636C10.6538 7.93182 10.7452 8.1875 10.9279 8.40341C11.1106 8.61932 11.3269 8.72727 11.5769 8.72727H13.4231V10.9091C13.4231 11.2045 13.5144 11.4602 13.6971 11.6761C13.8798 11.892 14.0962 12 14.3462 12C14.5962 12 14.8125 11.892 14.9952 11.6761C15.1779 11.4602 15.2692 11.2045 15.2692 10.9091V8.72727H17.1154C17.3654 8.72727 17.5817 8.61932 17.7644 8.40341C17.9471 8.1875 18.0385 7.93182 18.0385 7.63636ZM9.73077 21.8182C9.73077 22.4205 9.55048 22.9347 9.1899 23.3608C8.82933 23.7869 8.39423 24 7.88462 24C7.375 24 6.9399 23.7869 6.57933 23.3608C6.21875 22.9347 6.03846 22.4205 6.03846 21.8182C6.03846 21.2159 6.21875 20.7017 6.57933 20.2756C6.9399 19.8494 7.375 19.6364 7.88462 19.6364C8.39423 19.6364 8.82933 19.8494 9.1899 20.2756C9.55048 20.7017 9.73077 21.2159 9.73077 21.8182ZM22.6538 21.8182C22.6538 22.4205 22.4736 22.9347 22.113 23.3608C21.7524 23.7869 21.3173 24 20.8077 24C20.2981 24 19.863 23.7869 19.5024 23.3608C19.1418 22.9347 18.9615 22.4205 18.9615 21.8182C18.9615 21.2159 19.1418 20.7017 19.5024 20.2756C19.863 19.8494 20.2981 19.6364 20.8077 19.6364C21.3173 19.6364 21.7524 19.8494 22.113 20.2756C22.4736 20.7017 22.6538 21.2159 22.6538 21.8182ZM24.5 3.27273V12C24.5 12.2727 24.4231 12.5142 24.2692 12.7244C24.1154 12.9347 23.9183 13.0568 23.6779 13.0909L8.62019 15.1705C8.62981 15.25 8.65144 15.3722 8.6851 15.5369C8.71875 15.7017 8.7476 15.8523 8.77164 15.9886C8.79567 16.125 8.80769 16.25 8.80769 16.3636C8.80769 16.5455 8.69231 16.9091 8.46154 17.4545H21.7308C21.9808 17.4545 22.1971 17.5625 22.3798 17.7784C22.5625 17.9943 22.6538 18.25 22.6538 18.5455C22.6538 18.8409 22.5625 19.0966 22.3798 19.3125C22.1971 19.5284 21.9808 19.6364 21.7308 19.6364H6.96154C6.71154 19.6364 6.49519 19.5284 6.3125 19.3125C6.12981 19.0966 6.03846 18.8409 6.03846 18.5455C6.03846 18.3864 6.09135 18.1619 6.19712 17.8722C6.30288 17.5824 6.44471 17.2443 6.6226 16.858C6.80048 16.4716 6.89904 16.2557 6.91827 16.2102L4.36538 2.18182H1.42308C1.17308 2.18182 0.956731 2.07386 0.774038 1.85795C0.591346 1.64205 0.5 1.38636 0.5 1.09091C0.5 0.795455 0.591346 0.539773 0.774038 0.323864C0.956731 0.107955 1.17308 0 1.42308 0H5.11538C5.26923 0 5.40625 0.0369318 5.52644 0.110795C5.64663 0.184659 5.74279 0.272727 5.8149 0.375C5.88702 0.477273 5.94952 0.616477 6.0024 0.792614C6.05529 0.96875 6.09135 1.11932 6.11058 1.24432C6.12981 1.36932 6.15625 1.53693 6.1899 1.74716C6.22356 1.95739 6.24519 2.10227 6.25481 2.18182H23.5769C23.8269 2.18182 24.0433 2.28977 24.226 2.50568C24.4087 2.72159 24.5 2.97727 24.5 3.27273Z" fill="white"/>
</g>
<defs>
<clipPath id="clip0_39_1007">
<rect width="24" height="24" fill="white" transform="translate(0.5)"/>
</clipPath>
</defs>
</svg>
