<svg width="51" height="13" viewBox="0 0 51 13" fill="none" xmlns="http://www.w3.org/2000/svg">
<path fill-rule="evenodd" clip-rule="evenodd" d="M1.12622 9.91605C1.74767 10.2786 1.76816 10.3384 1.48583 10.9653C0.938158 12.1818 1.0657 12.5809 2.09704 12.8752C3.27664 13.2116 5.21013 12.8431 6.32991 12.0682C6.75399 11.7748 7.72923 11.1344 8.49731 10.6453L9.89384 9.75583C34.4322 9.76198 21.3992 9.74652 50.5 9.74652L50.5 9.19254L50.5 8.63855L31.299 8.63855L23.6563 8.63855L22.6829 6.7683C21.1398 3.80337 18.5783 1.52516 15.4873 0.368438C14.0284 -0.17757 13.7214 -0.131476 13.9099 0.605768C14.246 1.92004 15.7648 4.45619 16.9842 5.739C17.9197 6.72316 18.7692 7.81409 20.2703 8.63235L12.5448 8.63545L9.93457 8.63855L8.75055 7.92967C8.09907 7.53989 7.22531 6.94424 6.80892 6.60609C5.12587 5.24019 1.3883 4.93372 1.20745 6.14695C1.16649 6.42195 1.29776 6.96153 1.49933 7.34622C1.70089 7.7309 1.83915 8.05975 1.80656 8.07681C0.300409 8.86812 0.12817 9.33348 1.12622 9.91605ZM6.41463 8.73649C5.61815 8.23968 3.97932 8.08124 2.95753 8.40233C1.25773 8.93659 1.37853 9.50609 3.29479 9.99404C4.14481 10.2105 4.57424 10.2072 5.43427 9.97809C6.89759 9.58787 7.18877 9.21935 6.41463 8.73649ZM3.43165 10.866C2.69405 10.7082 2.51646 10.7433 2.32491 11.0841C1.84054 11.9456 2.03187 12.1843 3.20216 12.1792C4.46392 12.1736 5.95285 11.5975 6.63528 10.851L7.10079 10.3417L6.5189 10.5024C4.83144 10.968 4.23582 11.038 3.43165 10.866ZM6.63528 7.53413C5.95285 6.78758 4.46392 6.21143 3.20216 6.20589C2.29977 6.2019 2.09797 6.27237 2.10356 6.58881C2.11938 7.44815 2.50436 7.71739 3.43398 7.51862C4.23559 7.34711 4.83283 7.41757 6.5189 7.88269L7.10079 8.04335L6.63528 7.53413ZM19.4777 3.6538C18.3639 2.61031 15.8527 1.10436 15.2266 1.10436C14.8419 1.10436 14.9043 1.29847 15.8078 2.91079C16.2622 3.7216 17.098 4.84641 17.6657 5.41015C18.6802 6.4184 20.647 7.75218 21.1188 7.75218C21.251 7.75218 20.4303 6.86358 19.2947 5.77755C17.7313 4.28201 17.2688 3.7072 17.3889 3.40871C17.5197 3.08452 17.9368 3.38367 19.7493 5.10213C20.9603 6.25021 21.9509 7.10955 21.9509 7.01161C21.9509 6.55069 20.5732 4.68044 19.4777 3.6538Z" fill="#383838"/>
</svg>
