<svg width="51" height="13" viewBox="0 0 51 13" fill="none" xmlns="http://www.w3.org/2000/svg">
<path fill-rule="evenodd" clip-rule="evenodd" d="M49.8738 9.91605C49.2523 10.2786 49.2318 10.3384 49.5142 10.9653C50.0618 12.1818 49.9343 12.5809 48.903 12.8752C47.7234 13.2116 45.7899 12.8431 44.6701 12.0682C44.246 11.7748 43.2708 11.1344 42.5027 10.6453L41.1062 9.75583C16.5678 9.76198 29.6008 9.74652 0.5 9.74652L0.5 9.19254L0.5 8.63855L19.701 8.63855L27.3437 8.63855L28.3171 6.7683C29.8602 3.80337 32.4217 1.52516 35.5127 0.368438C36.9716 -0.17757 37.2786 -0.131476 37.0901 0.605768C36.754 1.92004 35.2352 4.45619 34.0158 5.739C33.0803 6.72316 32.2308 7.81409 30.7297 8.63235L38.4552 8.63545L41.0654 8.63855L42.2495 7.92967C42.9009 7.53989 43.7747 6.94424 44.1911 6.60609C45.8741 5.24019 49.6117 4.93372 49.7925 6.14695C49.8335 6.42195 49.7022 6.96153 49.5007 7.34622C49.2991 7.7309 49.1609 8.05975 49.1934 8.07681C50.6996 8.86812 50.8718 9.33348 49.8738 9.91605ZM44.5854 8.73649C45.3819 8.23968 47.0207 8.08124 48.0425 8.40233C49.7423 8.93659 49.6215 9.50609 47.7052 9.99404C46.8552 10.2105 46.4258 10.2072 45.5657 9.97809C44.1024 9.58787 43.8112 9.21935 44.5854 8.73649ZM47.5683 10.866C48.3059 10.7082 48.4835 10.7433 48.6751 11.0841C49.1595 11.9456 48.9681 12.1843 47.7978 12.1792C46.5361 12.1736 45.0472 11.5975 44.3647 10.851L43.8992 10.3417L44.4811 10.5024C46.1686 10.968 46.7642 11.038 47.5683 10.866ZM44.3647 7.53413C45.0472 6.78758 46.5361 6.21143 47.7978 6.20589C48.7002 6.2019 48.902 6.27237 48.8964 6.58881C48.8806 7.44815 48.4956 7.71739 47.566 7.51862C46.7644 7.34711 46.1672 7.41757 44.4811 7.88269L43.8992 8.04335L44.3647 7.53413ZM31.5223 3.6538C32.6361 2.61031 35.1473 1.10436 35.7734 1.10436C36.1581 1.10436 36.0957 1.29847 35.1922 2.91079C34.7378 3.7216 33.902 4.84641 33.3343 5.41015C32.3198 6.4184 30.353 7.75218 29.8812 7.75218C29.749 7.75218 30.5697 6.86358 31.7053 5.77755C33.2687 4.28201 33.7312 3.7072 33.6111 3.40871C33.4803 3.08452 33.0632 3.38367 31.2507 5.10213C30.0397 6.25021 29.0491 7.10955 29.0491 7.01161C29.0491 6.55069 30.4268 4.68044 31.5223 3.6538Z" fill="#383838"/>
</svg>
