<svg width="24" height="24" viewBox="0 0 30 30" fill="none" xmlns="http://www.w3.org/2000/svg">
<g clip-path="url(#clip0_77_1600)">
<path d="M11.6912 13.5818L14.5273 26.6987C14.6455 27.2895 15.2363 27.7622 15.8272 27.8804C16.418 27.9985 17.1271 27.644 17.4816 27.0532L19.1359 23.9808L23.7446 28.5894C24.3354 29.1802 25.399 29.1802 25.9898 28.5894L28.8259 25.7533C29.4167 25.1625 29.4167 24.0989 28.8259 23.5081L24.0991 19.1358L27.0533 17.4814C27.6442 17.1269 27.9987 16.5361 27.8805 15.827C27.7624 15.118 27.2897 14.6453 26.6988 14.5272L13.582 11.8093C12.5184 11.5729 11.4549 12.6365 11.6912 13.5818Z" fill="#FFC107"/>
<path d="M13.2274 6.84624C13.9364 6.84624 14.4091 6.25539 14.4091 5.66454V2.11944C14.4091 1.41042 13.8182 0.937744 13.2274 0.937744C12.5183 0.937744 12.0457 1.52859 12.0457 2.11944V5.66454C12.0457 6.25539 12.5183 6.84624 13.2274 6.84624Z" fill="#FFC107"/>
<path d="M8.85522 6.9645L6.25548 4.48293C5.7828 3.89208 4.95561 3.89208 4.48293 4.48293C4.01025 4.95561 4.01025 5.66463 4.48293 6.13731L6.9645 8.61888C7.43718 9.09156 8.26437 9.09156 8.73705 8.61888C9.3279 8.26437 9.3279 7.43718 8.85522 6.9645Z" fill="#FFC107"/>
<path d="M0.937744 13.1092C0.937744 13.8182 1.52859 14.2909 2.11944 14.2909H5.66454C6.37356 14.2909 6.84624 13.7 6.84624 13.1092C6.84624 12.5183 6.25539 11.9275 5.66454 11.9275H2.11944C1.41042 11.9275 0.937744 12.5183 0.937744 13.1092Z" fill="#FFC107"/>
<path d="M7.08266 17.5996L4.60109 20.0812C4.12841 20.5539 4.12841 21.3811 4.60109 21.8537C5.07377 22.3264 5.90096 22.3264 6.37364 21.8537L8.85521 19.3722C9.32789 18.8995 9.32789 18.0723 8.85521 17.5996C8.26436 17.1269 7.55534 17.1269 7.08266 17.5996Z" fill="#FFC107"/>
<path d="M19.4903 8.73705L21.9719 6.13731C22.4446 5.66463 22.4446 4.83744 21.9719 4.36476C21.4992 3.89208 20.672 3.89208 20.1994 4.36476L17.7178 6.84633C17.2451 7.31901 17.2451 8.1462 17.7178 8.61888C18.1905 9.20973 19.0177 9.20973 19.4903 8.73705Z" fill="#FFC107"/>
</g>
<defs>
<clipPath id="clip0_77_1600">
<rect width="29.5425" height="29.5425" fill="white" transform="translate(0.22876 0.22876)"/>
</clipPath>
</defs>
</svg>
