<svg width="21" height="21" viewBox="0 0 21 21" fill="none" xmlns="http://www.w3.org/2000/svg">
<g clip-path="url(#clip0_45_374)">
<path d="M17.7695 9.85938V18.7508H2.71242V9.85938H1.30957V19.4365C1.30957 19.8153 1.62355 20.1222 2.01098 20.1222H18.4709C18.8583 20.1222 19.1723 19.8153 19.1723 19.4365V9.85938H17.7695Z" fill="white"/>
<path d="M19.7566 4.71875H0.701406C0.313983 4.71875 0 5.0257 0 5.40445V9.88445C0 10.2632 0.313983 10.5702 0.701406 10.5702H19.7566C20.144 10.5702 20.458 10.2634 20.458 9.88445V5.40445C20.458 5.0257 20.144 4.71875 19.7566 4.71875ZM19.0552 9.19898H1.40285V6.09043H19.0552V9.19898H19.0552Z" fill="white"/>
<path d="M10.9194 5.2309C10.8716 5.05309 9.71457 0.878906 6.33628 0.878906C4.86657 0.878906 3.6709 2.04781 3.6709 3.48461C3.6709 4.92141 4.85607 6.09031 6.3129 6.09031H10.2408C10.458 6.09031 10.6633 5.9918 10.7961 5.82355C10.9289 5.65531 10.9743 5.43637 10.9194 5.2309ZM6.31294 4.71891C5.61809 4.71891 5.07375 4.17672 5.07375 3.48461C5.07375 2.81559 5.65197 2.25031 6.33632 2.25031C7.87546 2.25031 8.79711 3.73262 9.2402 4.71887H6.31294V4.71891Z" fill="white"/>
<path d="M14.1451 0.878906C10.7668 0.878906 9.60972 5.05309 9.56201 5.2309C9.50683 5.43637 9.55242 5.65535 9.68524 5.82359C9.81806 5.99184 10.0231 6.09035 10.2405 6.09035H14.1685C15.6253 6.09035 16.8105 4.92144 16.8105 3.48465C16.8105 2.04781 15.6148 0.878906 14.1451 0.878906ZM14.1685 4.71891H11.2384C11.6783 3.73262 12.5971 2.25035 14.1454 2.25035C14.8297 2.25035 15.4079 2.81562 15.4079 3.48465C15.4079 4.17672 14.8636 4.71891 14.1685 4.71891Z" fill="white"/>
<path d="M10.9419 5.40234H9.53906V19.4366H10.9419V5.40234Z" fill="white"/>
</g>
<defs>
<clipPath id="clip0_45_374">
<rect width="20.458" height="20" fill="white" transform="translate(0 0.5)"/>
</clipPath>
</defs>
</svg>
