<svg width="40" height="40" viewBox="0 0 40 40" fill="none" xmlns="http://www.w3.org/2000/svg">
<path fill-rule="evenodd" clip-rule="evenodd" d="M20.0007 4.5835C11.4863 4.5835 4.58398 11.4858 4.58398 20.0002C4.58398 28.5146 11.4863 35.4168 20.0007 35.4168C28.515 35.4168 35.4173 28.5146 35.4173 20.0002C35.4173 11.4858 28.515 4.5835 20.0007 4.5835ZM2.08398 20.0002C2.08398 10.1051 10.1055 2.0835 20.0007 2.0835C29.8958 2.0835 37.9173 10.1051 37.9173 20.0002C37.9173 29.8953 29.8958 37.9168 20.0007 37.9168C10.1055 37.9168 2.08398 29.8953 2.08398 20.0002ZM20.0007 8.75016C20.691 8.75016 21.2507 9.30981 21.2507 10.0002V10.5281C23.968 11.0146 26.2507 13.0562 26.2507 15.8335C26.2507 16.5239 25.691 17.0835 25.0007 17.0835C24.3103 17.0835 23.7507 16.5239 23.7507 15.8335C23.7507 14.4264 22.2948 12.9168 20.0007 12.9168C17.7065 12.9168 16.2507 14.4264 16.2507 15.8335C16.2507 17.2406 17.7065 18.7502 20.0007 18.7502C23.2294 18.7502 26.2507 20.9716 26.2507 24.1668C26.2507 26.9441 23.968 28.9857 21.2507 29.4723V30.0002C21.2507 30.6905 20.691 31.2502 20.0007 31.2502C19.3103 31.2502 18.7507 30.6905 18.7507 30.0002V29.4723C16.0333 28.9857 13.7507 26.9441 13.7507 24.1668C13.7507 23.4765 14.3103 22.9168 15.0007 22.9168C15.691 22.9168 16.2507 23.4765 16.2507 24.1668C16.2507 25.5739 17.7065 27.0835 20.0007 27.0835C22.2948 27.0835 23.7507 25.5739 23.7507 24.1668C23.7507 22.7597 22.2948 21.2502 20.0007 21.2502C16.7719 21.2502 13.7507 19.0288 13.7507 15.8335C13.7507 13.0562 16.0333 11.0146 18.7507 10.5281V10.0002C18.7507 9.30981 19.3103 8.75016 20.0007 8.75016Z" fill="#CF5763"/>
</svg>
