<svg width="40" height="40" viewBox="0 0 40 40" fill="none" xmlns="http://www.w3.org/2000/svg">
<path fill-rule="evenodd" clip-rule="evenodd" d="M20.0002 4.58301C11.4858 4.58301 4.5835 11.4853 4.5835 19.9997C4.5835 28.5141 11.4858 35.4163 20.0002 35.4163C28.5146 35.4163 35.4168 28.5141 35.4168 19.9997C35.4168 11.4853 28.5146 4.58301 20.0002 4.58301ZM2.0835 19.9997C2.0835 10.1046 10.1051 2.08301 20.0002 2.08301C29.8953 2.08301 37.9168 10.1046 37.9168 19.9997C37.9168 29.8948 29.8953 37.9163 20.0002 37.9163C10.1051 37.9163 2.0835 29.8948 2.0835 19.9997ZM20.0002 8.74967C20.6905 8.74967 21.2502 9.30932 21.2502 9.99967V10.5276C23.9675 11.0141 26.2502 13.0557 26.2502 15.833C26.2502 16.5234 25.6905 17.083 25.0002 17.083C24.3098 17.083 23.7502 16.5234 23.7502 15.833C23.7502 14.4259 22.2943 12.9163 20.0002 12.9163C17.706 12.9163 16.2502 14.4259 16.2502 15.833C16.2502 17.2401 17.706 18.7497 20.0002 18.7497C23.2289 18.7497 26.2502 20.9711 26.2502 24.1663C26.2502 26.9437 23.9675 28.9852 21.2502 29.4718V29.9997C21.2502 30.69 20.6905 31.2497 20.0002 31.2497C19.3098 31.2497 18.7502 30.69 18.7502 29.9997V29.4718C16.0328 28.9852 13.7502 26.9437 13.7502 24.1663C13.7502 23.476 14.3098 22.9163 15.0002 22.9163C15.6905 22.9163 16.2502 23.476 16.2502 24.1663C16.2502 25.5735 17.706 27.083 20.0002 27.083C22.2943 27.083 23.7502 25.5735 23.7502 24.1663C23.7502 22.7592 22.2943 21.2497 20.0002 21.2497C16.7715 21.2497 13.7502 19.0283 13.7502 15.833C13.7502 13.0557 16.0328 11.0141 18.7502 10.5276V9.99967C18.7502 9.30932 19.3098 8.74967 20.0002 8.74967Z" fill="white"/>
</svg>
