<svg width="388" height="306" viewBox="0 0 348 306" fill="none" xmlns="http://www.w3.org/2000/svg">
<g clip-path="url(#clip0_25_1740)">
<path d="M268.397 206.055C250.773 224.972 225.018 232.443 202.344 226.941C188.229 223.504 175.484 215.574 163.111 207.45C150.746 199.318 138.372 190.84 124.603 186.144C110.81 181.457 95.2107 180.885 81.7888 188.339C77.4654 190.735 73.7711 193.881 70.6415 197.608C55.7515 215.259 28.093 207.684 23.7535 186.314C17.9701 157.643 29.0045 134.74 44.9591 110.368C60.3976 86.7959 78.0381 64.5948 99.3889 48.2424C120.74 31.9303 146.148 21.7656 170.967 23.9034C190.455 25.5733 208.708 34.6894 224.413 47.2743C240.093 59.8593 253.435 75.8486 265.953 92.443C274.785 104.141 283.448 116.572 287.498 131.537C294.338 156.884 286.03 187.137 268.397 206.055Z" fill="#F8F7FC"/>
<path d="M228.373 22.4109H106.06V180.909H228.373V22.4109Z" fill="#C6AEFF"/>
<path d="M229.89 26.2025V176.496C229.89 179.803 227.204 182.49 223.897 182.49H110.536C107.229 182.49 104.543 179.803 104.543 176.496V26.2025C104.543 22.8949 107.229 20.2085 110.536 20.2085H223.897C227.204 20.2085 229.89 22.8868 229.89 26.2025Z" fill="#497BFE"/>
<path d="M109.915 172.357V30.3329C109.915 27.703 112.045 25.5732 114.674 25.5732H219.767C222.397 25.5732 224.526 27.703 224.526 30.3329V172.357C224.526 174.987 222.397 177.117 219.767 177.117H114.666C112.045 177.117 109.915 174.987 109.915 172.357Z" fill="white"/>
<path d="M138.122 103.213V117.08C138.122 118.129 137.267 118.984 136.219 118.984H121.434C120.385 118.984 119.53 118.129 119.53 117.08V103.213C119.53 102.164 120.385 101.309 121.434 101.309H136.219C137.267 101.309 138.122 102.164 138.122 103.213Z" fill="#FFD375"/>
<path d="M216.775 107.101C216.775 107.908 216.121 108.561 215.315 108.561H150.157C149.35 108.561 148.697 107.908 148.697 107.101C148.697 106.294 149.35 105.641 150.157 105.641H215.315C216.121 105.641 216.775 106.294 216.775 107.101Z" fill="#F3F1FC"/>
<path d="M178.662 111.74H150.157C149.35 111.74 148.697 112.393 148.697 113.2C148.697 114.007 149.35 114.66 150.157 114.66H178.662C179.469 114.66 180.122 114.007 180.122 113.2C180.122 112.393 179.469 111.74 178.662 111.74Z" fill="#F3F1FC"/>
<path d="M189.35 113.2C189.35 114.007 190.003 114.66 190.81 114.66H200.884C201.691 114.66 202.344 114.007 202.344 113.2C202.344 112.393 201.691 111.74 200.884 111.74H190.81C190.003 111.74 189.35 112.393 189.35 113.2Z" fill="#F3F1FC"/>
<path d="M138.122 130.287V144.154C138.122 145.203 137.267 146.058 136.219 146.058H121.434C120.385 146.058 119.53 145.203 119.53 144.154V130.287C119.53 129.238 120.385 128.383 121.434 128.383H136.219C137.267 128.383 138.122 129.238 138.122 130.287Z" fill="#8EB6FF"/>
<path d="M216.775 134.175C216.775 134.982 216.121 135.635 215.315 135.635H150.157C149.35 135.635 148.697 134.982 148.697 134.175C148.697 133.368 149.35 132.715 150.157 132.715H215.315C216.121 132.715 216.775 133.368 216.775 134.175Z" fill="#F3F1FC"/>
<path d="M178.662 138.814H150.157C149.35 138.814 148.697 139.467 148.697 140.274C148.697 141.081 149.35 141.734 150.157 141.734H178.662C179.469 141.734 180.122 141.081 180.122 140.274C180.122 139.467 179.469 138.814 178.662 138.814Z" fill="#F3F1FC"/>
<path d="M189.35 140.274C189.35 141.081 190.003 141.734 190.81 141.734H200.884C201.691 141.734 202.344 141.081 202.344 140.274C202.344 139.467 201.691 138.814 200.884 138.814H190.81C190.003 138.814 189.35 139.467 189.35 140.274Z" fill="#F3F1FC"/>
<path d="M138.122 47.3952V61.2629C138.122 62.3116 137.267 63.1667 136.219 63.1667H121.434C120.385 63.1667 119.53 62.3116 119.53 61.2629V47.3952C119.53 46.3465 120.385 45.4913 121.434 45.4913H136.219C137.267 45.4913 138.122 46.3384 138.122 47.3952Z" fill="#6EB854"/>
<path d="M204.861 51.2756C204.861 52.0823 204.208 52.7358 203.401 52.7358H150.157C149.35 52.7358 148.697 52.0823 148.697 51.2756C148.697 50.4689 149.35 49.8154 150.157 49.8154H203.401C204.208 49.8235 204.861 50.4769 204.861 51.2756Z" fill="#F3F1FC"/>
<path d="M166.749 55.9224H150.157C149.35 55.9224 148.697 56.5758 148.697 57.3825C148.697 58.1893 149.35 58.8427 150.157 58.8427H166.749C167.555 58.8427 168.209 58.1893 168.209 57.3825C168.209 56.5758 167.555 55.9224 166.749 55.9224Z" fill="#F3F1FC"/>
<path d="M177.437 57.3745C177.437 58.1812 178.09 58.8347 178.896 58.8347H188.971C189.778 58.8347 190.431 58.1812 190.431 57.3745C190.431 56.5678 189.778 55.9143 188.971 55.9143H178.896C178.082 55.9224 177.437 56.5758 177.437 57.3745Z" fill="#F3F1FC"/>
<path d="M138.122 74.4689V88.3366C138.122 89.3853 137.267 90.2405 136.219 90.2405H121.434C120.385 90.2405 119.53 89.3853 119.53 88.3366V74.4689C119.53 73.4202 120.385 72.5651 121.434 72.5651H136.219C137.267 72.5651 138.122 73.4121 138.122 74.4689Z" fill="#F45170"/>
<path d="M204.861 78.3493C204.861 79.1561 204.208 79.8095 203.401 79.8095H150.157C149.35 79.8095 148.697 79.1561 148.697 78.3493C148.697 77.5426 149.35 76.8892 150.157 76.8892H203.401C204.208 76.8972 204.861 77.5507 204.861 78.3493Z" fill="#F3F1FC"/>
<path d="M166.749 82.9961H150.157C149.35 82.9961 148.697 83.6495 148.697 84.4563C148.697 85.263 149.35 85.9164 150.157 85.9164H166.749C167.555 85.9164 168.209 85.263 168.209 84.4563C168.209 83.6495 167.555 82.9961 166.749 82.9961Z" fill="#F3F1FC"/>
<path d="M177.437 84.4482C177.437 85.255 178.09 85.9084 178.896 85.9084H188.971C189.778 85.9084 190.431 85.255 190.431 84.4482C190.431 83.6415 189.778 82.988 188.971 82.988H178.896C178.082 82.9961 177.437 83.6496 177.437 84.4482Z" fill="#F3F1FC"/>
<path d="M128.016 57.2534C127.717 57.2534 127.419 57.1163 127.217 56.8581L125.604 54.7445C125.273 54.3089 125.354 53.6796 125.797 53.3408C126.241 53.002 126.862 53.0907 127.201 53.5344L128.225 54.8736L131.879 52.2436C132.331 51.9209 132.952 52.0258 133.275 52.4695C133.597 52.9213 133.492 53.5425 133.049 53.8652L128.604 57.0679C128.427 57.1969 128.217 57.2534 128.016 57.2534Z" fill="white"/>
<path d="M128.016 82.8186C127.717 82.8186 127.419 82.6815 127.217 82.4233L125.604 80.3097C125.273 79.874 125.354 79.2448 125.797 78.906C126.241 78.5671 126.862 78.6559 127.201 79.0996L128.225 80.4388L131.879 77.8088C132.331 77.4861 132.952 77.591 133.275 78.0347C133.597 78.4865 133.492 79.1077 133.049 79.4303L128.604 82.6331C128.427 82.7621 128.217 82.8186 128.016 82.8186Z" fill="white"/>
<path d="M128.016 112.232C127.717 112.232 127.419 112.095 127.217 111.837L125.604 109.723C125.273 109.287 125.354 108.658 125.797 108.319C126.241 107.98 126.862 108.069 127.201 108.513L128.225 109.852L131.879 107.222C132.331 106.899 132.952 107.004 133.275 107.448C133.597 107.9 133.492 108.521 133.049 108.844L128.604 112.046C128.427 112.175 128.217 112.232 128.016 112.232Z" fill="white"/>
<path d="M128.016 139.822C127.717 139.822 127.419 139.685 127.217 139.427L125.604 137.313C125.273 136.877 125.354 136.248 125.797 135.909C126.241 135.571 126.862 135.659 127.201 136.103L128.225 137.442L131.879 134.812C132.331 134.49 132.952 134.594 133.275 135.038C133.597 135.49 133.492 136.111 133.049 136.434L128.604 139.636C128.427 139.766 128.217 139.822 128.016 139.822Z" fill="white"/>
<path d="M191.463 157.417V166.573C191.463 167.703 190.552 168.614 189.422 168.614H145.583C144.454 168.614 143.543 167.703 143.543 166.573V157.417C143.543 156.287 144.454 155.376 145.583 155.376H189.422C190.552 155.376 191.463 156.287 191.463 157.417Z" fill="#F3F1FC"/>
<path d="M30.7872 298.949C28.9401 295.375 25.0684 296.376 20.3255 296.376C17.817 296.376 17.1152 294.633 17.0023 292.996L7.96027 292.673C6.41159 295.19 5.62918 300.167 5.65338 303.281C5.66144 304.79 6.89555 306 8.4039 306H28.0932C29.1256 306 30.0693 305.419 30.5452 304.499C31.247 303.152 31.8842 301.071 30.7872 298.949Z" fill="#BF7D5A"/>
<path d="M31.2873 302.289C31.1502 303.136 30.8598 303.894 30.5371 304.499C30.0612 305.419 29.1175 306 28.085 306H8.39579C6.88744 306 5.65333 304.79 5.64526 303.281C5.64526 302.975 5.65333 302.628 5.66946 302.289H31.2873Z" fill="#8A4852"/>
<path d="M81.3373 298.949C79.4901 295.375 75.6184 296.376 70.8756 296.376C68.367 296.376 67.6653 294.633 67.5524 292.996L58.5103 292.673C56.9616 295.19 56.1792 300.167 56.2034 303.281C56.2115 304.79 57.4456 306 58.954 306H78.6432C79.6757 306 80.6194 305.419 81.0953 304.499C81.797 303.152 82.4343 301.071 81.3373 298.949Z" fill="#BF7D5A"/>
<path d="M81.8454 302.289C81.7083 303.136 81.4179 303.894 81.0952 304.499C80.6193 305.419 79.6756 306 78.6432 306H58.9539C57.4455 306 56.2114 304.79 56.2034 303.281C56.2034 302.975 56.2114 302.628 56.2276 302.289H81.8454Z" fill="#8A4852"/>
<path d="M54.8805 292.407C51.0249 270.197 42.0554 248.488 36.8448 222.794C33.6183 238.888 26.133 271.916 22.2049 288.922C21.9306 290.043 21.6967 291.14 21.4709 292.165C20.8578 294.98 12.703 295.827 8.16185 294.682C6.2502 294.206 4.95963 293.359 5.14515 292.165C8.49256 270.197 8.64582 214.872 8.64582 214.872C8.66195 214.638 4.79831 174.697 12.5256 161.2H39.9986C39.9986 161.2 39.9986 161.321 39.9986 161.572C40.9827 161.547 35.2961 161.676 56.7437 161.2C56.8405 161.652 57.1067 162.507 58.4779 169.373C60.3977 179.19 63.3014 196.535 63.7773 214.081C64.5033 240.76 65.3986 264.324 71.1497 291.979C72.037 296.142 55.5984 296.586 54.8805 292.407Z" fill="#8A4852"/>
<path d="M57.8325 166.138C47.7096 172.099 32.5051 161.394 10.388 166.63C10.3799 166.63 10.3799 166.63 10.3638 166.63C10.9526 164.548 11.6624 162.709 12.5255 161.2H39.9985C39.9985 161.2 39.9985 161.321 39.9985 161.572C40.9825 161.547 35.296 161.676 56.7436 161.2C56.7436 161.2 56.7759 161.37 56.8565 161.668C57.2518 163.362 57.5744 164.855 57.8325 166.138Z" fill="#51383C"/>
<path d="M43.7008 246.141C40.6115 237.355 37.9658 229.014 36.9011 222.229C36.9011 222.229 41.1116 198.729 41.1197 182.74L43.7008 246.141Z" fill="#51383C"/>
<path d="M22.2049 288.93C21.9306 290.051 21.6967 291.148 21.4709 292.173C20.8578 294.988 12.703 295.835 8.16185 294.69C6.2502 294.214 4.95963 293.367 5.14515 292.173C8.49256 270.205 8.64582 214.88 8.64582 214.88C8.64582 214.88 4.8709 174.665 12.5256 161.208H13.679C14.2679 164.177 14.1227 164.443 14.4937 189.96C14.897 219.043 15.3084 230.926 14.1307 243.446C13.3403 251.917 11.7916 266.503 9.50082 274.691C8.75874 277.361 7.92794 280.096 8.20218 282.855C8.46836 285.622 10.1542 288.446 12.8482 289.123C14.9615 289.664 17.1555 288.793 19.3253 288.559C20.2609 288.462 21.3095 288.583 22.2049 288.93Z" fill="#51383C"/>
<path d="M107.777 89.6598C107.777 89.6598 110.931 91.4991 107.56 92.9512C107.56 92.9512 110.286 94.5163 107.229 95.9845C107.229 95.9845 108.745 97.9045 106.084 98.9614C104.898 99.4373 104.067 99.8649 103.139 100.236H103.131C102.228 100.575 101.252 100.849 99.7598 101.027C98.9209 101.131 98.1869 101.624 97.7997 102.374C95.0815 107.706 84.0068 128.762 77.6023 130.182C70.2622 131.819 61.4782 117.637 61.4782 117.637C62.6317 116.758 57.3 120.824 72.7546 109.037L76.0859 114.418C76.5537 111.893 81.4014 108.166 84.4101 106.537C87.4187 104.915 91.6776 94.9761 91.6776 94.9761C91.6776 94.9761 105.253 85.3277 110.463 83.8998C112.633 83.7465 113.045 85.602 107.777 89.6598Z" fill="#F6A285"/>
<path d="M103.131 100.228C102.228 100.567 101.252 100.841 99.7598 101.018C98.9209 101.123 98.1869 101.615 97.7997 102.366C95.0815 107.698 84.0068 128.754 77.6023 130.174C70.2622 131.811 61.4783 117.629 61.4783 117.629L70.73 110.578C71.3027 110.965 71.8432 111.417 72.311 111.958C73.7871 113.628 74.4243 116.209 73.2951 118.121C72.3997 119.614 70.5445 120.678 70.5365 122.421C70.5284 124.163 72.3997 125.236 73.9968 125.93C75.5374 126.592 77.4813 127.205 78.7396 126.1C80.1431 124.865 79.4979 122.598 79.8044 120.743C80.1593 118.492 82.0145 116.798 83.8939 115.523C85.7894 114.241 87.8785 113.127 89.2175 111.28C91.3227 108.384 91.1372 104.213 93.436 101.47C94.662 100.002 96.5495 99.1146 98.4612 99.0743C100.155 99.0339 101.559 99.8891 103.131 100.228Z" fill="url(#paint0_linear_25_1740)"/>
<path d="M0.57959 122.84H6.49201V124.688L12.7432 124.817C12.7432 124.817 10.4524 149.108 9.35546 161.66C8.79891 168.009 53.7914 171.583 59.3086 160.531C62.906 153.222 59.9055 126.205 58.8166 118.121C58.9779 118.379 59.6474 119.856 61.4864 121.001C61.8494 121.227 62.1882 121.364 62.5027 121.38C66.8584 121.437 76.4409 113.644 75.1181 109.675C74.9406 109.118 74.739 108.561 74.5292 107.989C71.8916 101.309 67.423 95.4036 61.7445 91.5233C56.3403 87.8527 46.1528 85.3841 39.6193 85.0775C37.264 84.9484 26.5442 84.2143 23.8098 85.1098C23.4469 85.1098 21.3094 85.8036 20.7689 86.0133C12.6787 88.9901 5.79027 94.9438 4.51583 97.485C3.87861 98.566 3.32205 100.728 2.83002 103.374C1.61205 109.812 0.853836 119.089 0.57959 122.84Z" fill="#C5ADFF"/>
<path d="M50.1777 96.041C51.8635 101.866 55.953 112.861 58.8971 118.161C51.1295 107.731 50.1777 96.041 50.1777 96.041Z" fill="#976FF8"/>
<path d="M62.4865 121.38C62.1962 121.372 61.8493 121.235 61.4783 121.001C63.8739 116.822 69.6492 116.475 72.795 113.015C73.5854 112.151 74.1823 111.086 74.4001 109.941C74.4888 109.457 74.3598 108.602 74.5211 108.005C74.7469 108.569 74.9405 109.134 75.1099 109.683C76.4086 113.741 66.8019 121.445 62.4865 121.38Z" fill="#976FF8"/>
<path d="M60.4701 156.36C60.2039 158.078 59.8248 159.506 59.3166 160.531C53.7995 171.583 8.80697 168.009 9.36353 161.66C10.4605 149.108 12.7432 124.825 12.7432 124.825L6.49201 124.672V122.832H0.57959C0.853836 119.073 1.61205 109.788 2.81389 103.366C5.84673 102.003 9.75877 101.567 12.6867 103.164C15.897 104.907 16.3971 109.102 17.6474 112.216C19.188 116.056 19.4864 120.299 19.2525 124.389C18.6476 134.643 15.0743 143.485 19.672 157.578C20.5028 160.192 21.5755 161.523 26.4797 161.079C31.9001 160.579 39.3047 163.806 42.749 159.587C44.7655 157.102 38.7805 151.463 41.652 150.003C43.1523 149.245 43.7733 152.609 44.7332 153.996C45.685 155.384 46.782 156.747 48.2661 157.546C49.7503 158.345 51.7184 158.45 53.0332 157.401C54.356 156.352 51.9846 154.23 53.1784 153.044C53.8237 152.415 57.8809 154.456 60.4701 156.36Z" fill="#976FF8"/>
<path d="M74.9971 110.005C72.2788 103.414 68.1732 98.1949 62.5995 94.4033C59.0747 92.0073 53.7027 90.2083 48.7098 89.1273C41.1115 87.53 30.4885 87.4251 27.2218 87.6429C25.3827 87.764 24.0115 88.014 21.6159 88.8853C16.01 90.9425 8.65372 95.5166 5.49182 100.155C4.79814 101.172 4.19319 103.431 3.66889 106.254C2.84615 110.683 2.08794 118.016 1.65238 122.849H0.57959C0.8861 118.67 2.28153 100.785 4.63682 97.2833C7.80678 92.6447 15.163 88.0786 20.7609 86.0133C21.2448 85.8439 23.3904 85.134 23.7131 85.134C26.8749 84.2386 36.5542 84.9243 39.6032 85.0856C46.0076 85.4083 56.2757 87.8204 61.7365 91.5394C67.8989 95.7425 72.8838 102.358 74.8761 109.215C74.9567 109.465 74.9971 109.723 74.9971 110.005Z" fill="#976FF8"/>
<path d="M24.5601 84.9727L24.7294 85.2631C30.045 94.5324 34.2877 98.6548 38.5143 98.6548C43.0636 98.6548 45.7899 94.4275 46.6611 86.0133C44.338 85.5858 42.0392 85.1985 39.6275 85.0775C35.9009 84.8839 28.5608 84.3354 24.5601 84.9727Z" fill="#976FF8"/>
<path d="M55.0418 53.6233C55.0418 53.6233 56.4131 56.3742 53.0818 59.9157L49.1213 52.631L55.0418 53.6233Z" fill="#894852"/>
<path d="M27.8591 84.6097V66.4099H43.3863V86.1909C41.1843 96.9365 36.6995 98.9614 27.8591 84.6097Z" fill="#F6A285"/>
<path d="M53.0414 69.3463C52.5332 74.8885 50.912 80.2452 46.7337 81.2456C42.4345 82.2782 32.3358 77.5427 29.7386 75.5985C28.5367 74.6949 27.8592 74.0979 27.8592 74.0979V70.0401C27.8592 70.0401 25.9314 67.8539 25.2054 65.5063C24.6005 63.5943 24.8021 61.5775 27.4801 60.5691L28.5206 51.7274C38.9984 51.2756 49.0245 50.8722 52.7026 55.7852C52.7026 55.9143 53.6302 63.1103 53.0414 69.3463Z" fill="url(#paint1_linear_25_1740)"/>
<path d="M57.7762 49.4202C57.1551 52.518 54.3803 55.3335 54.3803 55.3335C50.4441 59.0122 48.5566 53.5022 40.0792 54.5671C38.8774 54.7123 38.0627 55.3012 38.0062 57.0518C37.8933 60.2303 36.0462 60.7547 34.3765 61.4646C32.7068 62.1826 34.8766 67.5231 33.3037 68.0637C32.4649 68.3541 31.4001 65.0868 31.4001 65.0868C31.4001 65.0868 30.1176 59.835 27.23 60.7224C24.6972 61.5211 25.5845 66.1194 26.9638 68.8623C26.8751 68.7332 25.4635 66.6277 24.06 63.8041C23.8422 63.3766 23.6325 62.9329 23.4309 62.473C22.7372 60.9886 22.108 59.351 21.6886 57.7456C21.5434 57.197 21.4224 56.6565 21.3337 56.116C20.8981 53.5345 21.2611 50.7271 24.2294 49.9042C24.2213 49.8881 24.2213 49.8719 24.2213 49.8558C24.2133 49.8639 24.2133 49.8558 24.2133 49.8558C22.8662 45.0396 26.8428 43.1196 26.8428 43.1196C35.0379 39.8201 38.708 47.1613 42.249 46.8386C45.7981 46.5159 49.8795 40.1025 55.6628 44.2006C57.7762 45.6931 58.1472 47.605 57.7762 49.4202Z" fill="#894852"/>
<path d="M46.7096 70.5968C46.6289 70.5484 46.5483 70.6452 46.5725 70.7501C46.7419 71.3713 47.0564 71.9279 47.4839 72.2748C47.9679 72.6782 48.6455 72.8476 49.1294 72.4846C49.7102 72.057 50.1296 71.1696 49.7747 70.9518C49.5166 70.7985 49.0891 71.581 48.7664 71.6133C47.4597 71.7343 47.0161 70.7904 46.7096 70.5968Z" fill="#E17659"/>
<path d="M29.6579 65.458C29.4804 64.7238 29.1739 64.1269 28.7464 63.6832C28.2382 63.1588 27.5445 62.8764 26.8912 62.9329C26.5686 62.9571 26.2298 63.062 25.891 63.2475C25.8265 63.2879 25.8023 63.3685 25.8345 63.4331C25.8749 63.4976 25.9555 63.5218 26.0201 63.4895C26.3185 63.3282 26.6169 63.2314 26.9073 63.2072C27.472 63.1588 28.085 63.4089 28.5367 63.8768C28.9238 64.2721 29.1981 64.8126 29.3594 65.4741C29.1981 65.345 29.0126 65.2482 28.8029 65.2159C28.2705 65.1353 27.3994 65.4176 27.5526 65.9743C27.5687 66.0469 27.6413 66.0872 27.7139 66.0711H27.722C27.7946 66.0469 27.8349 65.9743 27.8188 65.9017C27.7381 65.6032 28.4399 65.4418 28.7625 65.4902C29.0287 65.5306 29.2787 65.6919 29.4159 65.9178C29.4239 65.9259 29.432 65.9178 29.4401 65.9259C29.5207 66.4099 29.5611 66.9101 29.5772 67.4183C29.5772 67.4909 29.6417 67.5555 29.7224 67.5555C29.7304 67.5555 29.7385 67.5555 29.7466 67.5555C29.8111 67.5393 29.8595 67.4828 29.8514 67.4183" fill="#E17659"/>
<path d="M43.0396 66.2001C43.0396 66.6761 43.4267 67.0552 43.9026 67.0552C44.3704 67.0552 44.7576 66.6761 44.7576 66.2001C44.7576 65.7241 44.3704 65.345 43.9026 65.345C43.4267 65.345 43.0396 65.7241 43.0396 66.2001Z" fill="#111D33"/>
<path d="M45.6368 66.0387C45.6287 66.0468 45.6126 66.0548 45.6045 66.0548C45.056 65.8935 44.5317 65.7322 43.9994 65.5627C43.3299 65.95 42.6362 66.555 41.4505 66.6357C41.4343 66.6357 41.4182 66.6276 41.4182 66.6034C41.4182 66.5953 41.4182 66.5873 41.4263 66.5873C42.1926 65.6757 43.096 65.4982 43.8784 65.1594L43.9026 65.1513C44.0397 65.1029 43.9832 65.1029 45.6448 65.9984C45.6368 66.0064 45.6448 66.0226 45.6368 66.0387Z" fill="#111D33"/>
<path d="M50.7588 66.0872C50.7588 66.5632 51.146 66.9423 51.6219 66.9423C52.0897 66.9423 52.4769 66.5632 52.4769 66.0872C52.4769 65.6112 52.0897 65.2321 51.6219 65.2321C51.146 65.2321 50.7588 65.6112 50.7588 66.0872Z" fill="#111D33"/>
<path d="M52.0654 66.305C52.3639 66.305 52.3639 65.8613 52.0654 65.8613C51.9444 65.8613 51.767 66.305 52.0654 66.305Z" fill="#FBFBFB"/>
<path d="M44.2736 66.305C44.5721 66.305 44.5721 65.8613 44.2736 65.8613C43.9752 65.8613 43.9752 66.305 44.2736 66.305Z" fill="#FBFBFB"/>
<path d="M53.3237 65.9419C52.7511 65.7725 52.1703 65.6111 51.6057 65.4175L51.7751 65.4095C51.0169 65.8451 50.3554 66.4501 49.1617 66.5227C49.1455 66.5227 49.1294 66.5066 49.1294 66.4905C49.1294 66.4824 49.1294 66.4743 49.1375 66.4663C49.4682 66.079 49.8634 65.8047 50.2748 65.5708C50.7023 65.3691 51.162 65.2239 51.5895 65.0384L51.6137 65.0303C51.7509 64.9738 51.8557 65.0706 53.3479 65.8774C53.3802 65.9016 53.356 65.95 53.3237 65.9419Z" fill="#111D33"/>
<path d="M46.1289 61.4082C47.5727 62.102 46.8226 63.7315 45.4917 63.2959C44.9593 63.1184 43.1444 61.7631 40.9101 63.07C40.6843 63.1991 40.4665 63.3524 40.2165 63.4008C39.9745 63.4492 39.6841 63.3524 39.5631 63.0862C39.3292 62.5941 39.9745 62.1907 40.2407 61.9809C41.2408 61.1903 44.1769 60.4643 46.1289 61.4082Z" fill="#111D33"/>
<path d="M52.8559 61.4646C51.6621 61.1257 50.3796 60.9967 49.2343 61.5452C48.0485 62.1099 48.6616 63.4491 49.7505 63.0861C50.186 62.9409 51.6702 61.8357 53.4931 62.9005C53.6787 63.0054 53.8561 63.1345 54.0578 63.1748C54.2594 63.2152 54.4933 63.1345 54.5901 62.9167C54.7756 62.5133 54.2513 62.1825 54.0336 62.0131C53.6867 61.7227 53.2673 61.5775 52.8559 61.4646Z" fill="#111D33"/>
<path d="M57.7762 49.4202C57.1551 52.518 54.3804 55.3335 54.3804 55.3335C50.4441 59.0122 48.5567 53.5022 40.0793 54.5671C38.8774 54.7123 38.0627 55.3012 38.0063 57.0518C37.8934 60.2303 36.0462 60.7547 34.3766 61.4646C32.7069 62.1826 34.8767 67.5231 33.3038 68.0637C32.4649 68.3541 31.4002 65.0868 31.4002 65.0868C31.4002 65.0868 30.1177 59.835 27.23 60.7224C24.6973 61.5211 25.5845 66.1194 26.9638 68.8623C26.8751 68.7332 25.4636 66.6277 24.0601 63.8041C23.8423 63.3766 23.6326 62.9329 23.4309 62.473C23.5196 62.1503 23.6245 61.8518 23.7536 61.5453C24.4795 59.8028 26.0685 58.2054 27.9479 58.3345C29.0288 58.4152 29.9725 59.0364 30.9646 59.4559C33.1586 60.3917 34.8283 59.6495 34.8847 57.2616C34.9089 56.471 34.7718 55.6804 34.8605 54.8898C35.1186 52.4615 37.4417 50.6625 39.8373 50.1866C44.6527 49.2346 49.5649 52.3647 54.332 51.3321C55.6064 51.0498 56.8647 50.3721 57.7762 49.4202Z" fill="#51383C"/>
<path d="M29.553 51.8162C28.206 51.5096 26.859 51.2111 25.5119 50.8965C24.8102 50.7432 24.0116 50.59 23.4148 50.9933C23.076 51.2111 22.8501 51.5742 22.7291 51.9533C22.6001 52.3325 22.5759 52.7439 22.5436 53.1392C22.4791 54.4865 21.9064 56.1886 21.6725 57.7456C21.5273 57.1971 21.4063 56.6565 21.3176 56.116C20.882 53.5345 21.245 50.7271 24.2133 49.9042C24.2052 49.8881 24.2052 49.872 24.2052 49.8558C24.2778 49.9204 24.3504 49.9607 24.4311 49.993C24.9312 50.2108 27.3107 50.7513 29.553 51.8162Z" fill="#51383C"/>
<path d="M46.8466 74.8724C47.9114 75.0418 48.9035 75.0499 49.823 74.8886C50.0005 74.8563 50.1537 75.0257 50.0811 75.1951C49.2423 77.3088 47.4758 77.3894 46.5805 75.1871C46.5159 75.0176 46.6692 74.8482 46.8466 74.8724Z" fill="#E17659"/>
<path d="M50.4118 139.669C50.2424 139.645 49.1454 139.548 48.8631 139.516C58.4537 141.242 52.2347 142.121 47.8791 141.653C56.5501 142.912 51.4926 144.066 47.1692 143.848C48.6211 144.057 50.3957 144.429 50.436 145.074C50.4683 145.582 48.9115 146.05 46.8547 146.437C46.3384 146.526 43.7008 146.55 43.1281 146.639C40.7567 146.994 39.9098 147.002 38.9499 147.785C37.6593 148.398 31.6663 149.406 29.3674 149.584C18.4783 150.398 7.95204 149.438 3.73349 143.428C0.837778 139.298 0.966835 130.456 1.91863 122.413H17.7604C17.7765 124.672 17.6797 126.874 17.6474 127.286C17.4942 131.045 17.4055 132.9 16.615 137.112C26.2781 138.757 34.4571 138.41 34.9492 138.184C35.9735 137.725 38.7402 134.933 40.4179 134.651C43.0797 134.207 50.2989 135.692 50.2989 135.692L48.4114 137.378C48.847 137.483 54.5577 138.273 54.2593 139.249C54.0012 140.145 51.0571 139.717 50.4118 139.669Z" fill="#F6A285"/>
<path d="M44.7575 146.365C40.9664 147.034 40.0792 146.865 38.9419 147.785C37.6513 148.398 31.6582 149.406 29.3594 149.584C18.4702 150.398 7.94399 149.438 3.72544 143.428C0.829721 139.298 0.958778 130.456 1.91057 122.413H17.7604C17.7765 124.672 17.6797 126.874 17.6475 127.286C17.6394 127.294 17.6233 127.31 17.6152 127.31C14.1145 129.06 11.7189 127.552 9.40395 126.955C8.14564 126.64 6.75828 126.56 5.63709 127.221C3.7577 128.326 3.52379 130.908 3.49959 133.086C3.46732 135.538 3.61251 138.378 5.54837 139.887C7.04059 141.04 9.09744 141.016 10.9688 141.25C19.3494 142.307 27.0525 149.906 35.5299 147.067C36.7963 146.639 37.9739 145.977 39.2322 145.526C41.2004 144.784 43.5073 144.695 44.7575 146.365Z" fill="url(#paint2_linear_25_1740)"/>
<path d="M19.406 100.986L3.80619 99.9456C1.78968 107.553 0.281322 114.217 0.628163 122.687C0.75722 125.809 16.6796 126.172 18.922 123.994C23.4067 119.614 19.406 100.986 19.406 100.986Z" fill="#C5ADFF"/>
<path d="M18.8009 124.115C15.3164 126.285 0.757149 125.567 0.636158 122.679C0.281251 114.209 1.7896 107.545 3.81419 99.9375L5.70971 100.067C3.74966 107.513 1.28951 113.999 1.63635 122.316C1.74927 124.946 15.0905 125.067 18.8009 124.115Z" fill="#976FF8"/>
<path d="M91.8553 97.1785C96.832 96.0814 101.526 91.0313 101.526 91.0313C104.551 90.9587 105.826 91.2571 105.987 89.1597C106.173 86.6023 100.389 87.0541 97.0337 88.3207C95.0091 89.079 93.3314 91.0958 91.6133 95.081" fill="#F6A285"/>
<path d="M97.0821 94.7422C98.6792 93.6531 100.163 92.4027 101.51 91.0151C101.518 91.007 101.526 91.007 101.526 91.007C102.543 90.9667 103.567 91.0312 104.567 90.878C105.059 90.8054 105.551 90.5472 105.737 90.0712C105.898 89.6114 106.011 89.079 105.858 88.6111C105.535 87.7075 104.237 87.4655 103.285 87.3929C100.962 87.2316 96.5901 87.8931 94.7752 89.9099C92.8958 91.8622 91.5326 95.2262 91.5972 95.0891C92.436 93.2497 93.1539 91.5072 94.7107 89.8453C96.098 88.248 98.2678 87.7882 100.236 87.4494C101.244 87.2961 102.269 87.2154 103.293 87.2961C105.955 87.5139 106.342 88.6272 105.81 90.1196C105.608 90.6279 105.076 90.8941 104.575 90.9667C103.559 91.12 102.535 91.0474 101.518 91.0796L101.535 91.0716C96.2432 96.5009 91.9682 97.122 91.8311 97.2027C92.1618 97.0656 94.017 96.7993 97.0821 94.7422Z" fill="#E17659"/>
<path d="M318.503 299.119C320.31 295.634 324.085 296.61 328.715 296.61C331.167 296.61 331.853 294.908 331.958 293.31L340.782 292.996C342.298 295.456 343.057 300.313 343.032 303.354C343.024 304.83 341.822 306.008 340.346 306.008H321.125C320.117 306.008 319.197 305.443 318.729 304.548C318.052 303.225 317.431 301.184 318.503 299.119Z" fill="#497BFD"/>
<path d="M318.011 302.378C318.149 303.201 318.431 303.943 318.737 304.54C319.205 305.435 320.117 306 321.133 306H340.354C341.831 306 343.032 304.822 343.04 303.346C343.04 303.039 343.032 302.709 343.016 302.378H318.011Z" fill="#2C65E4"/>
<path d="M269.147 299.119C270.954 295.634 274.729 296.61 279.359 296.61C281.811 296.61 282.496 294.908 282.601 293.31L291.426 292.996C292.942 295.456 293.7 300.313 293.676 303.354C293.668 304.83 292.466 306.008 290.99 306.008H271.769C270.76 306.008 269.841 305.443 269.373 304.548C268.703 303.225 268.082 301.184 269.147 299.119Z" fill="#497BFD"/>
<path d="M268.655 302.378C268.792 303.201 269.074 303.943 269.381 304.54C269.849 305.435 270.76 306 271.777 306H290.998C292.474 306 293.676 304.822 293.684 303.346C293.684 303.039 293.676 302.709 293.66 302.378H268.655Z" fill="#2C65E4"/>
<path d="M294.983 292.729C298.749 271.045 307.509 249.852 312.591 224.771C315.737 240.486 323.044 272.723 326.884 289.333C327.15 290.43 327.384 291.495 327.602 292.503C328.199 295.254 336.16 296.077 340.596 294.964C342.467 294.496 343.726 293.673 343.54 292.503C340.274 271.053 340.12 217.042 340.12 217.042C340.104 216.816 343.879 177.827 336.337 164.645H309.51C309.51 164.645 309.51 164.766 309.51 165.008L292.103 163.992L291.603 163.976C291.603 163.976 291.571 164.137 291.49 164.435V164.443C291.329 165.153 290.982 166.654 290.546 168.8C287.626 182.926 286.675 201.86 286.279 216.276C285.569 242.325 284.698 265.325 279.084 292.326C278.237 296.376 294.281 296.811 294.983 292.729Z" fill="#8A4852"/>
<path d="M290.208 170.462C300.097 176.278 316.826 164.839 338.418 169.945C338.426 169.945 338.426 169.945 338.435 169.945C337.854 167.912 337.168 166.121 336.321 164.645H309.493C309.493 164.645 309.493 164.766 309.493 165.008L292.087 163.992L291.587 163.976C291.587 163.976 291.555 164.137 291.474 164.435V164.443C291.329 165.153 290.643 168.316 290.208 170.462Z" fill="#51383C"/>
<path d="M305.888 247.561C308.905 238.985 311.494 230.845 312.526 224.214C312.526 224.214 308.413 201.271 308.405 185.66L305.888 247.561Z" fill="#51383C"/>
<path d="M326.876 289.333C327.142 290.43 327.376 291.495 327.594 292.504C328.191 295.255 336.152 296.077 340.588 294.964C342.46 294.496 343.718 293.673 343.532 292.504C340.266 271.053 340.112 217.042 340.112 217.042C340.112 217.042 343.799 177.779 336.329 164.645H335.2C334.627 167.541 334.765 167.8 334.41 192.711C334.305 200.069 334.208 207.418 334.103 214.775C333.958 224.835 333.821 234.911 334.765 244.923C337.846 277.926 341.121 277.611 340.548 283.396C340.282 286.098 338.636 288.857 336.015 289.519C333.958 290.043 331.812 289.196 329.691 288.97C328.78 288.873 327.755 288.994 326.876 289.333Z" fill="#51383C"/>
<path d="M330.248 211.121C329.877 211.121 329.578 210.822 329.578 210.451V197.293C329.578 192.711 325.852 188.984 321.278 188.984C316.697 188.984 312.97 192.711 312.97 197.293V210.451C312.97 210.822 312.672 211.121 312.301 211.121C311.93 211.121 311.631 210.822 311.631 210.451V197.293C311.631 191.977 315.955 187.653 321.27 187.653C326.586 187.653 330.909 191.977 330.909 197.293V210.451C330.917 210.822 330.619 211.121 330.248 211.121Z" fill="#111D33"/>
<path d="M338.935 201.989H333.555V251.981H338.935V201.989Z" fill="#FFD475"/>
<path d="M333.555 201.989V251.981H296.798C295.071 251.981 293.668 250.578 293.668 248.851V205.127C293.668 203.4 295.071 201.997 296.798 201.997H333.555V201.989Z" fill="#FFDD99"/>
<path d="M344.484 205.127V248.851C344.484 249.577 344.226 250.263 343.798 250.779C343.242 251.505 342.347 251.981 341.338 251.981H338.918V201.989H341.338C343.072 201.989 344.484 203.4 344.484 205.127Z" fill="#FFB961"/>
<path d="M343.799 250.779C343.242 251.506 342.347 251.982 341.338 251.982H333.555C333.635 251.844 339.395 241.889 339.032 242.527L343.799 250.779Z" fill="#EF9645"/>
<path d="M323.472 211.121C323.101 211.121 322.802 210.822 322.802 210.451V197.293C322.802 192.711 319.076 188.984 314.494 188.984C309.913 188.984 306.194 192.711 306.194 197.293V210.451C306.194 210.822 305.896 211.121 305.525 211.121C305.154 211.121 304.855 210.822 304.855 210.451V197.293C304.855 191.977 309.179 187.653 314.494 187.653C319.81 187.653 324.133 191.977 324.133 197.293V210.451C324.141 210.822 323.843 211.121 323.472 211.121Z" fill="#111D33"/>
<path d="M326.892 232.701C326.892 237.815 321.165 241.97 314.099 241.97C307.034 241.97 301.307 237.815 301.307 232.701C301.307 227.586 307.034 223.431 314.099 223.431C321.157 223.431 326.892 227.586 326.892 232.701Z" fill="#FFB961"/>
<path d="M243.086 85.6181C243.086 85.6181 239.609 86.7798 242.626 88.9015C242.626 88.9015 239.634 89.8776 242.328 91.9509C242.328 91.9509 240.44 93.5321 242.844 95.1133C243.917 95.8232 244.635 96.4202 245.473 96.9688H245.481C246.296 97.4851 247.208 97.961 248.627 98.437C249.434 98.7113 250.055 99.3405 250.281 100.163C251.862 105.964 258.444 128.923 264.445 131.634C271.325 134.74 282.86 122.607 282.86 122.607C281.908 121.509 286.312 126.592 273.535 111.845L269.163 116.451C269.228 113.87 265.219 109.215 262.59 107.004C259.96 104.794 257.806 94.1533 257.806 94.1533C257.806 94.1533 254.749 87.28 249.918 84.8194C245.078 82.3428 242.078 81.8991 240.876 83.1979C239.908 84.2628 241.763 84.9082 243.086 85.6181Z" fill="#F6A285"/>
<path d="M207.289 65.7403C207.289 81.77 220.283 94.7583 236.302 94.7583C252.329 94.7583 265.324 81.7619 265.324 65.7403C265.324 49.7106 252.329 36.7142 236.302 36.7142C220.283 36.7142 207.289 49.7106 207.289 65.7403Z" fill="#EE9545"/>
<path d="M209.289 65.7403C209.289 81.77 222.283 94.7583 238.303 94.7583C254.33 94.7583 267.324 81.7619 267.324 65.7403C267.324 49.7106 254.33 36.7142 238.303 36.7142C222.283 36.7142 209.289 49.7106 209.289 65.7403Z" fill="#FFDE9E"/>
<path d="M215.185 65.7403C215.185 78.8093 225.776 89.4016 238.843 89.4016C251.91 89.4016 262.501 78.8093 262.501 65.7403C262.501 52.6713 251.91 42.079 238.843 42.079C225.784 42.0709 215.185 52.6713 215.185 65.7403Z" fill="#FFD375"/>
<path d="M238.843 89.7324C225.615 89.7324 214.855 78.9706 214.855 65.7403C214.855 52.5099 225.615 41.7401 238.843 41.7401C252.072 41.7401 262.84 52.5019 262.84 65.7403C262.84 78.9706 252.08 89.7324 238.843 89.7324ZM238.843 42.4097C225.986 42.4097 215.516 52.873 215.516 65.7403C215.516 78.5995 225.978 89.0708 238.843 89.0708C251.709 89.0708 262.17 78.6076 262.17 65.7403C262.17 52.873 251.709 42.4097 238.843 42.4097Z" fill="#EE9545"/>
<path d="M238.851 63.9413C236.94 63.9413 235.375 62.3843 235.375 60.4643C235.375 58.5523 236.932 56.9953 238.851 56.9953C240.763 56.9953 242.32 58.5523 242.32 60.4643C242.32 61.2306 242.941 61.8438 243.699 61.8438C244.465 61.8438 245.078 61.2226 245.078 60.4643C245.078 57.5036 242.997 55.0188 240.223 54.3896V53.2198C240.223 52.4534 239.601 51.8403 238.843 51.8403C238.077 51.8403 237.464 52.4615 237.464 53.2198V54.3896C234.689 55.0188 232.608 57.5036 232.608 60.4643C232.608 63.909 235.407 66.7083 238.843 66.7083C240.755 66.7083 242.312 68.2653 242.312 70.1773C242.312 72.0892 240.755 73.6543 238.843 73.6543C236.932 73.6543 235.367 72.0973 235.367 70.1773C235.367 69.4109 234.746 68.7978 233.987 68.7978C233.221 68.7978 232.608 69.4189 232.608 70.1773C232.608 73.146 234.689 75.6227 237.464 76.26V77.22C237.464 77.9864 238.085 78.5995 238.843 78.5995C239.609 78.5995 240.223 77.9783 240.223 77.22V76.26C242.997 75.6307 245.078 73.146 245.078 70.1773C245.086 66.7406 242.287 63.9413 238.851 63.9413Z" fill="#EE9545"/>
<path d="M245.49 96.9607C246.304 97.477 247.216 97.953 248.635 98.4289C249.442 98.7032 250.063 99.3325 250.289 100.155C251.87 105.956 258.452 128.915 264.453 131.626C271.333 134.732 282.868 122.599 282.868 122.599L275.213 113.773C271.656 115.241 270.389 118.412 271.148 120.662C271.72 122.316 273.325 123.744 272.979 125.454C272.632 127.165 270.575 127.842 268.865 128.197C267.211 128.536 265.179 128.738 264.17 127.39C263.041 125.89 264.138 123.792 264.219 121.905C264.332 119.622 262.856 117.573 261.267 115.935C259.67 114.281 257.839 112.764 256.903 110.675C255.427 107.392 256.467 103.334 254.765 100.163C253.862 98.4693 252.184 97.2108 250.313 96.7832C248.659 96.404 247.103 96.9526 245.49 96.9607Z" fill="url(#paint3_linear_25_1740)"/>
<path d="M282.698 125.793C282.997 125.777 283.351 125.648 283.714 125.414C285.537 124.268 287.885 120.832 288.062 120.574C287.965 121.227 286.191 147.543 287.32 161.031C287.651 165.04 288.24 167.912 289.207 168.663C295.426 173.39 320.109 161.491 337.442 169.889C346.517 174.286 334.321 127.31 334.321 127.31C334.458 127.31 341 127.14 340.588 127.148V125.309H346.517C346.234 121.364 344.775 102.737 342.443 99.6229C339.273 94.9761 331.877 90.3858 326.263 88.3125C325.23 87.9495 324.133 87.5946 323.077 87.3767C318.907 86.5216 306.662 87.2235 302.46 87.9334C297.015 88.8047 289.667 90.7569 285.11 93.8628C279.101 97.961 272.325 106.779 270.042 114.039C268.744 118.137 278.375 125.842 282.698 125.793Z" fill="#6EB854"/>
<path d="M287.312 161.023C287.643 165.032 288.232 167.904 289.199 168.655C295.418 173.382 320.101 161.483 337.435 169.881C346.509 174.277 334.313 127.302 334.313 127.302L339.516 127.173C338.773 126.019 338.104 124.752 337.039 123.922C335.595 122.776 333.724 122.824 332.692 124.446C332.006 125.495 332.248 126.479 332.184 127.665C332.087 129.552 331.579 131.343 331.595 133.263C331.675 143.267 337.507 149.713 335.975 163.233C335.846 164.201 335.579 165.347 334.676 165.726C333.724 166.105 332.708 165.444 331.853 164.887C327.287 162.015 321.431 162.16 316.164 163.346C307.808 165.258 296.225 170.881 291.74 165.282C290.756 164.032 290.296 162.298 288.933 161.459C288.441 161.152 287.885 161.007 287.312 161.023Z" fill="#438829"/>
<path d="M318.068 181.409C318.205 181.474 329.433 187.056 328.723 186.701C328.723 186.701 345.605 156.134 346.88 148.349C348.146 140.669 346.985 124.293 345.275 116.403L328.086 119.355C332.869 159.853 331.216 145.865 331.579 148.898L318.068 181.409Z" fill="#F6A285"/>
<path d="M329.118 185.765C328.909 189.896 327.876 192.195 326.916 193.453C326.061 194.623 323.504 198.068 321.98 197.673C321.004 197.422 322.327 194.518 322.004 194.155C321.706 196.035 320.044 198.221 319.133 197.898C318.205 197.576 319.092 194.833 318.778 194.462C318.665 195.285 317.802 197.987 316.301 197.753C314.906 197.535 316.769 193.784 316.438 193.421C316.326 194.244 314.841 197.31 313.809 196.93C312.567 196.471 313.849 191.816 314.349 190.226C315.809 185.62 310.316 189.041 309.179 187.427C307.84 185.531 315.479 182.756 318.318 181.409L329.118 185.765Z" fill="#F6A285"/>
<path d="M328.723 186.709C328.723 186.709 345.605 156.142 346.88 148.357C348.146 140.677 346.985 124.301 345.275 116.411L328.086 119.364L329.481 131.222C333.297 132.061 334.248 130.561 336.975 130.246C339.588 129.948 341.403 129.738 343.016 132.231C346.799 138.055 339.362 142.985 338.225 148.422C337.144 153.569 339.532 158.603 339.443 163.75C339.403 165.492 337.838 166.468 336.725 167.703C335.652 168.872 334.474 169.897 333.45 171.115C331.183 173.818 332.151 178.908 329.385 181.151C328.376 181.982 328.723 186.709 328.723 186.709Z" fill="url(#paint4_linear_25_1740)"/>
<path d="M296.717 98.3805C295.023 104.229 290.918 115.265 287.965 120.59C295.757 110.118 296.717 98.3805 296.717 98.3805Z" fill="#438829"/>
<path d="M302.436 87.9172V87.9253L307.582 100.123C307.945 100.986 309.066 101.212 309.736 100.559L323.278 87.417C323.278 87.417 323.278 87.417 323.278 87.409C319.512 86.5458 311.325 87.1589 307.324 87.3606C305.912 87.4412 304.243 87.6187 302.436 87.9172Z" fill="white"/>
<path d="M282.698 125.785C282.997 125.777 283.344 125.64 283.707 125.406C283.021 124.212 281.964 123.252 280.803 122.502C277.544 120.372 271.607 118.992 270.736 114.297C270.648 113.805 270.777 112.95 270.615 112.353C270.389 112.926 270.196 113.482 270.026 114.031C268.712 118.113 278.367 125.85 282.698 125.785Z" fill="#438829"/>
<path d="M346.71 124.994C346.525 128.092 330.869 128.439 328.659 126.293C324.238 121.969 328.191 103.592 328.191 103.592C329.764 103.487 322.496 103.979 343.573 102.559C346.67 114.079 346.71 118.178 346.71 124.994Z" fill="#6EB854"/>
<path d="M346.711 124.994C346.67 125.543 346.178 125.995 345.347 126.366C344.855 118.42 343.21 108.481 341.71 102.705C341.693 102.688 341.693 102.688 341.693 102.68C341.653 102.624 341.613 102.559 341.572 102.511C338.394 97.84 331.014 93.2578 325.384 91.1845C320.391 89.3774 317.334 89.7001 306.461 90.2487C300.032 90.5794 289.724 92.9996 284.239 96.7348C278.641 100.551 272.64 108.223 269.906 114.838C269.906 111.74 276.697 99.5825 285.094 93.8547C290.53 90.1438 300.782 87.6994 307.316 87.3686C311.252 87.167 319.213 86.57 323.069 87.3686C328.836 88.5223 338.693 94.1371 342.444 99.6148C342.484 99.6793 342.524 99.7358 342.581 99.8245C342.928 100.438 343.258 101.373 343.565 102.543C346.606 113.934 346.711 117.774 346.711 124.994Z" fill="#438829"/>
<path d="M304.678 70.0321L304.799 87.6188L309.292 97.2753L319.528 87.0218V70.0321H304.678Z" fill="#F6A285"/>
<path d="M309.292 97.2753L319.528 87.0218V74.211C318.81 73.13 317.277 72.8234 316.067 72.6136C313.422 77.1071 314.003 74.5417 312.349 84.3919C312.107 85.6988 311.881 87.0218 311.236 88.1674C310.405 89.6437 309.292 97.2753 309.292 97.2753Z" fill="url(#paint5_linear_25_1740)"/>
<path d="M295.055 72.7105C295.047 79.9952 296.249 87.5865 301.452 86.5701C307.13 85.481 313.132 82.246 317.721 78.8013C318.866 77.9381 319.52 77.3814 319.52 77.3814V73.493C319.568 73.3559 325.561 66.6036 319.891 64.4415L318.907 55.987C308.889 55.5594 299.492 55.6159 295.991 60.3191C295.975 60.4644 295.055 66.8375 295.055 72.7105Z" fill="url(#paint6_linear_25_1740)"/>
<path d="M306.259 70.016C306.291 70.5968 305.848 71.097 305.267 71.1293C304.694 71.1615 304.186 70.7259 304.154 70.145C304.122 69.5642 304.565 69.064 305.138 69.0318C305.719 68.9914 306.227 69.4271 306.259 70.016Z" fill="#111D33"/>
<path d="M304.823 70.4436C304.46 70.4678 304.428 69.9192 304.791 69.895C305.154 69.8789 305.186 70.4274 304.823 70.4436Z" fill="#FBFBFB"/>
<path d="M325.771 60.1903C325.126 64.0948 322.399 69.4515 320.383 72.3719C321.698 69.75 322.553 65.3453 320.125 64.595C317.366 63.7399 316.14 68.7658 316.14 68.7658C316.14 68.7658 315.124 71.8878 314.325 71.6055C312.817 71.0811 314.89 65.9826 313.293 65.2969C311.696 64.6111 309.929 64.111 309.824 61.0777C309.768 59.4077 308.994 58.8511 307.84 58.7059C299.742 57.6894 297.943 62.9654 294.168 59.44C292.313 57.7055 291.563 55.6726 292.014 53.68C292.878 49.9287 298.064 46.3549 308.308 45.3868C323.795 43.9266 320.109 52.2601 320.028 52.4376C320.294 52.5909 327.07 52.3569 325.771 60.1903Z" fill="#4C5C75"/>
<path opacity="0.1" d="M291.918 55.2287C291.934 54.9786 291.974 54.7446 292.031 54.5026C292.886 50.7433 298.08 47.1775 308.324 46.2014C318.165 45.2737 320.262 48.2989 320.471 50.6707C320.657 48.2585 319.334 44.3459 308.324 45.3866C298.08 46.3547 292.886 49.9285 292.031 53.6798C291.91 54.1961 291.877 54.7043 291.918 55.2287Z" fill="white"/>
<path opacity="0.3" d="M301.46 86.57C302.371 86.3925 303.267 86.1667 304.154 85.9004C303.573 86.0537 302.984 86.1828 302.395 86.3038C292.99 88.1431 295.991 60.3271 295.991 60.3271C295.991 60.3271 291.732 88.482 301.46 86.57Z" fill="#FDE0BB"/>
<path d="M306.719 67.3538C308.655 67.7894 309.921 69.185 310.333 68.8301C310.445 68.7333 310.445 68.5719 310.437 68.4267C310.349 67.5877 309.776 66.8778 309.123 66.3453C306.308 64.0784 302.113 64.9094 302.468 66.7164C302.726 68.0959 304.299 66.8132 306.719 67.3538Z" fill="#111D33"/>
<path d="M300 66.1114C299.726 65.5628 299.129 65.2401 298.564 65.0223C297.475 64.6109 296.265 64.5302 295.128 64.7642C294.636 64.8691 294.289 65.3128 294.313 65.8129C294.345 66.3857 294.837 66.8133 295.41 66.7729C298.088 66.5712 299.467 68.4025 300.048 67.0553C300.185 66.7487 300.145 66.4018 300 66.1114Z" fill="#111D33"/>
<path d="M317.802 69.1125C318.245 67.2489 319.77 66.1034 321.399 66.9988C321.464 67.0311 321.488 67.1118 321.456 67.1763C321.335 67.3941 321.117 67.015 320.431 66.9585C319.52 66.8859 318.479 67.5474 318.084 69.1286C318.237 69.0076 318.415 68.9108 318.616 68.8866C318.987 68.8301 319.479 68.9753 319.665 69.1528C319.899 69.3787 319.859 69.7498 319.657 69.7014H319.649C319.576 69.6852 319.536 69.6126 319.56 69.54C319.649 69.2173 318.479 68.822 318.036 69.5562C318.028 69.5642 318.02 69.5562 318.011 69.5642C317.939 70.0321 317.899 70.5081 317.882 70.9921C317.882 71.0648 317.818 71.1212 317.745 71.1212C317.737 71.1212 317.729 71.1212 317.721 71.1212C317.657 71.1051 317.616 71.0486 317.616 70.9841" fill="#E17659"/>
<path d="M320.391 72.3716C321.706 69.7497 322.561 65.345 320.133 64.5947C317.374 63.7396 316.148 68.7655 316.148 68.7655C316.148 68.7655 315.132 71.8876 314.333 71.6052C312.825 71.0808 314.898 65.9823 313.301 65.2966C311.704 64.6109 309.937 64.1107 309.832 61.0774C309.776 59.4075 309.002 58.8508 307.848 58.7056C299.75 57.6892 297.951 62.9652 294.176 59.4398C292.321 57.7053 291.571 55.6723 292.023 53.6797C293.039 54.6639 294.652 54.914 296.072 54.8817C300.887 54.7769 305.815 51.913 310.437 53.8895C312.68 54.8495 314.438 57.2697 313.938 59.6495C313.777 60.3998 313.406 61.1097 313.317 61.8761C313.107 63.6267 314.672 64.5544 316.003 63.0862C316.438 62.6021 316.753 62.0132 317.237 61.5857C318.205 60.7225 319.818 60.6982 320.81 61.5372C321.859 62.4246 322.077 63.7396 323.174 67.5393C321.819 70.2418 320.471 72.2506 320.391 72.3716Z" fill="#111D33"/>
<path d="M325.771 60.1901C325.747 60.182 325.73 60.0933 325.722 59.94C325.666 58.0523 324.206 54.6559 322.012 53.4943C319.875 52.3648 316.471 54.059 316.309 54.1396C318.487 52.3326 320.028 52.4294 320.028 52.4294C325.376 52.9215 326.416 56.3259 325.771 60.1901Z" fill="#111D33"/>
<path d="M299.096 75.9374C300.863 75.2356 299.863 75.3485 301.307 75.9374C302.049 76.244 301.113 74.4208 300.5 74.4208C299.895 74.4208 298.25 76.2762 299.096 75.9374Z" fill="#E17659"/>
<path d="M302.896 79.5354C303.017 79.5193 303.121 79.6403 303.073 79.7532C302.008 82.3267 298.669 82.3105 297.588 79.7532C297.54 79.6403 297.637 79.5193 297.758 79.5354C299.387 79.7532 301.105 79.7451 302.896 79.5354Z" fill="#E17659"/>
<path d="M302.944 70.0483C302.968 70.0725 302.968 70.0725 302.992 70.0725C303.662 69.8385 304.388 69.5804 305.033 69.3222C306.13 69.8143 306.703 70.4516 308.397 70.5081C308.421 70.5081 308.445 70.4839 308.445 70.4597C308.421 70.4355 308.421 70.4355 308.421 70.4355C307.388 69.3464 306.187 69.1528 305.162 68.7817H305.138C304.977 68.7252 305.041 68.6688 302.968 69.9999C302.944 70.0241 302.944 70.0483 302.944 70.0483Z" fill="#111D33"/>
<path d="M297.935 70.016C297.967 70.5968 297.524 71.097 296.943 71.1293C296.37 71.1615 295.862 70.7259 295.83 70.145C295.798 69.5642 296.241 69.064 296.814 69.0318C297.395 68.9914 297.903 69.4271 297.935 70.016Z" fill="#111D33"/>
<path d="M294.62 70.0483C294.644 70.0725 294.644 70.0725 294.668 70.0725C295.338 69.8385 296.064 69.5804 296.709 69.3222C297.806 69.8143 298.379 70.4516 300.073 70.5081C300.097 70.5081 300.121 70.4839 300.121 70.4597C300.097 70.4355 300.097 70.4355 300.097 70.4355C299.072 69.3464 297.862 69.1528 296.838 68.7817H296.814C296.733 68.7575 296.661 68.7575 296.604 68.7817C295.935 69.1689 295.281 69.5804 294.636 69.9999C294.62 70.0241 294.62 70.0483 294.62 70.0483Z" fill="#111D33"/>
<path d="M296.499 70.4436C296.346 70.4516 296.217 70.3387 296.209 70.1854C296.201 70.0321 296.314 69.9031 296.467 69.895C296.83 69.8789 296.862 70.4274 296.499 70.4436Z" fill="#FBFBFB"/>
<path d="M253.604 94.7583C248.603 93.5966 249.055 89.7889 249.055 89.7889C246.28 89.4904 242.844 89.5549 242.86 87.6188C242.876 85.2631 250.402 86.2312 253.386 87.643C255.185 88.4981 256.572 90.4746 257.839 94.2501" fill="#F6A285"/>
<path d="M250.321 93.1449C249.442 92.2817 248.918 91.0312 249.022 89.7889L249.047 89.8212C247.062 89.6114 243.36 89.6679 242.876 88.0544C242.795 87.7801 242.779 87.4816 242.9 87.2074C243.021 86.9411 243.255 86.7475 243.505 86.6184C244.013 86.3603 244.57 86.2554 245.126 86.1989C246.24 86.0941 247.353 86.1667 248.458 86.3038C250.321 86.5458 253.322 87.1509 254.693 88.4578C256.411 90.0954 257.129 92.2413 257.847 94.2662C257.072 92.2252 256.322 90.1116 254.62 88.5385C253.233 87.2719 250.273 86.6588 248.45 86.4168C247.353 86.2796 246.248 86.199 245.143 86.3038C244.594 86.3603 244.046 86.4571 243.562 86.7072C243.045 86.925 242.779 87.5058 242.973 88.0302C243.126 88.5627 243.642 88.8773 244.15 89.0628C245.901 89.7082 249.103 89.6195 249.087 89.797C248.676 94.1856 254.79 95.0326 253.62 94.7583C251.821 94.3388 250.95 93.758 250.321 93.1449Z" fill="#E17659"/>
<path d="M188.656 242.155C188.398 242.155 188.188 241.946 188.188 241.688V223.665C188.188 216.526 182.381 210.717 175.242 210.717C168.104 210.717 162.296 216.526 162.296 223.665V241.688C162.296 241.946 162.087 242.155 161.828 242.155C161.57 242.155 161.361 241.946 161.361 241.688V223.665C161.361 216.009 167.588 209.781 175.234 209.781C182.889 209.781 189.108 216.009 189.108 223.665V241.688C189.124 241.946 188.914 242.155 188.656 242.155Z" fill="#4C5C75"/>
<path d="M201.626 229.038H193.584V306.008H201.626V229.038Z" fill="#FFD475"/>
<path d="M193.584 229.038V306.008H138.638C136.049 306.008 133.96 303.911 133.96 301.329V233.725C133.96 231.136 136.057 229.046 138.638 229.046H193.584V229.038Z" fill="#FFDD99"/>
<path d="M209.934 233.733V301.329C209.934 302.418 209.555 303.443 208.91 304.209C208.079 305.298 206.74 306 205.232 306H201.618V229.038H205.232C207.821 229.03 209.934 231.136 209.934 233.733Z" fill="#FFB961"/>
<path d="M208.91 304.201C208.079 305.29 206.74 305.992 205.232 305.992H193.593L201.618 292.148L201.78 291.858L208.91 304.201Z" fill="#EF9645"/>
<path d="M178.525 242.155C178.267 242.155 178.057 241.946 178.057 241.688V223.665C178.057 216.526 172.25 210.717 165.111 210.717C157.973 210.717 152.165 216.526 152.165 223.665V241.688C152.165 241.946 151.955 242.155 151.697 242.155C151.439 242.155 151.229 241.946 151.229 241.688V223.665C151.229 216.009 157.456 209.781 165.103 209.781C172.758 209.781 178.977 216.009 178.977 223.665V241.688C178.993 241.946 178.783 242.155 178.525 242.155Z" fill="#4C5C75"/>
<path d="M183.631 274.941C183.631 282.589 175.065 288.8 164.506 288.8C153.948 288.8 145.382 282.589 145.382 274.941C145.382 267.293 153.948 261.081 164.506 261.081C175.065 261.081 183.631 267.293 183.631 274.941Z" fill="#FFB961"/>
<path d="M147.14 267.753C146.882 267.753 146.672 267.543 146.672 267.285V253.264C146.672 248.246 142.591 244.172 137.582 244.172C132.573 244.172 128.491 248.254 128.491 253.264V267.285C128.491 267.543 128.282 267.753 128.023 267.753C127.765 267.753 127.556 267.543 127.556 267.285V253.264C127.556 247.738 132.057 243.237 137.582 243.237C143.107 243.237 147.608 247.738 147.608 253.264V267.285C147.6 267.551 147.398 267.753 147.14 267.753Z" fill="#4C5C75"/>
<path d="M156.376 258.266H150.649V306H156.376V258.266Z" fill="#DF3260"/>
<path d="M150.649 258.266V306H111.488C109.641 306 108.149 304.508 108.149 302.66V261.606C108.149 259.758 109.641 258.266 111.488 258.266H150.649Z" fill="#F45170"/>
<path d="M162.304 261.614V302.668C162.304 303.443 162.03 304.169 161.578 304.717C160.99 305.492 160.03 305.992 158.957 305.992H156.384V258.266H158.957C160.796 258.266 162.304 259.766 162.304 261.614Z" fill="#F45170"/>
<path d="M161.57 304.717C160.981 305.492 160.021 305.992 158.949 305.992H150.657L156.376 296.126L156.489 295.924L161.57 304.717Z" fill="#D12057"/>
<path d="M139.913 267.753C139.655 267.753 139.445 267.543 139.445 267.285V253.264C139.445 248.246 135.364 244.172 130.354 244.172C125.337 244.172 121.264 248.254 121.264 253.264V267.285C121.264 267.543 121.054 267.753 120.796 267.753C120.538 267.753 120.328 267.543 120.328 267.285V253.264C120.328 247.738 124.829 243.237 130.354 243.237C135.88 243.237 140.381 247.738 140.381 253.264V267.285C140.381 267.551 140.171 267.753 139.913 267.753Z" fill="#4C5C75"/>
<path d="M143.551 283.863C143.551 289.317 137.445 293.738 129.919 293.738C122.393 293.738 116.287 289.309 116.287 283.863C116.287 278.41 122.393 273.981 129.919 273.981C137.445 273.989 143.551 278.41 143.551 283.863Z" fill="#D12057"/>
<path d="M232.729 304.451L235.794 271.585H185.873L188.938 304.451C189.019 305.33 189.753 306 190.64 306H231.035C231.914 306 232.648 305.33 232.729 304.451Z" fill="#8EB6FF"/>
<path d="M238.658 264.687V270.213C238.658 270.972 238.045 271.585 237.286 271.585H184.381C183.623 271.585 183.01 270.972 183.01 270.213V264.687C183.01 263.929 183.623 263.316 184.381 263.316H237.286C238.045 263.324 238.658 263.937 238.658 264.687Z" fill="#7BA4EE"/>
<path d="M218.396 263.324H203.288V271.585H218.396V263.324Z" fill="#FFB861"/>
<path d="M217.024 271.585H204.643V306H217.024V271.585Z" fill="#FFD375"/>
<path d="M207.498 263.316C207.466 263.316 207.434 263.324 207.402 263.324C206.619 263.364 205.909 263.461 205.248 263.59C198.924 264.841 198.013 269.915 199.481 276.675C196.996 275.126 195.133 273.061 194.181 270.254C192.867 271.48 191.931 273.287 190.915 275.336C190.915 275.336 189.011 263.558 199.513 260.976C202.247 260.573 204.127 260.984 205.563 261.807C205.78 261.92 205.99 262.057 206.184 262.203C206.668 262.525 207.103 262.904 207.498 263.316Z" fill="#D02057"/>
<path d="M225.929 264.163C222.445 262.63 219.154 262.388 215.984 263.042C215.726 263.09 215.476 263.147 215.217 263.219C215.096 263.251 214.967 263.276 214.846 263.316L214.677 262.138C214.782 262.066 214.895 261.985 215.008 261.92C215.209 261.791 215.411 261.67 215.613 261.565C218.484 259.936 221.807 259.605 225.824 261.267C225.211 261.404 224.776 261.67 224.477 262.025C225.365 262.646 225.824 263.372 225.929 264.163Z" fill="#D02057"/>
<path d="M210.975 261.057L207.151 262.049L206.248 262.283C206.248 262.283 190.648 260.823 188.89 258.306C188.874 258.282 188.858 258.258 188.842 258.234C187.527 256.152 190.479 251.683 190.479 251.683C191.931 247.754 195.512 248.359 195.512 248.359C204.869 248.843 210.975 261.057 210.975 261.057Z" fill="#F45170"/>
<path d="M207.152 262.049L206.248 262.283C206.248 262.283 190.648 260.823 188.89 258.306C188.874 258.282 188.858 258.258 188.842 258.233C189.067 257.507 189.842 256.023 192.254 255.926C195.093 255.813 203.957 259.347 207.152 262.049Z" fill="#D02057"/>
<path d="M230.478 252.764C228.857 258.467 219.831 260.396 219.831 260.396C219.831 260.396 218.992 261.267 216.71 261.912C214.419 262.558 212.047 261.444 212.047 261.444C211.959 261.251 211.894 261.049 211.846 260.839C210.749 256.677 215.153 249.303 218.049 245.608C220.235 242.825 221.622 241.744 223.001 242.527C223.695 242.922 224.397 243.793 225.195 245.165C227.421 248.972 228.849 249.965 228.849 249.965C231.18 251.159 230.478 252.764 230.478 252.764Z" fill="#F45170"/>
<path d="M221.936 246.544C219.92 249.844 213.128 257.443 211.854 260.831C210.757 256.668 215.161 249.295 218.057 245.6C220.243 242.817 221.63 241.736 223.009 242.518C223.211 243.204 223.203 244.471 221.936 246.544Z" fill="#D02057"/>
<path d="M215.217 263.219C215.226 263.251 215.226 263.284 215.226 263.316H207.401C206.619 263.356 205.909 263.453 205.248 263.582C205.248 262.953 205.361 262.356 205.562 261.791C206.304 259.702 208.297 258.209 210.636 258.209C212.878 258.209 214.806 259.589 215.613 261.549C215.806 262.017 215.935 262.517 215.984 263.033C215.726 263.09 215.476 263.146 215.217 263.219Z" fill="#D02057"/>
<path d="M215.226 263.324H206.038C206.038 262.929 206.087 262.549 206.184 262.195C206.684 260.21 208.49 258.734 210.636 258.734C212.677 258.734 214.411 260.073 215 261.912C215.137 262.324 215.209 262.759 215.218 263.219C215.226 263.259 215.226 263.284 215.226 263.324Z" fill="#F45170"/>
<path d="M88.524 2.79934V24.46C88.524 25.3393 87.8142 26.0492 86.935 26.0492H63.8096L55.8807 32.3256C55.3725 32.7289 54.6224 32.3659 54.6224 31.7205V26.0492H50.7184C49.8392 26.0492 49.1294 25.3393 49.1294 24.46V2.79934C49.1294 1.92 49.8392 1.21008 50.7184 1.21008H86.9431C87.8142 1.21008 88.524 1.92 88.524 2.79934Z" fill="#8EB6FF"/>
<path d="M62.527 12.9238C62.527 14.86 60.9461 16.4412 59.0102 16.4412C57.0744 16.4412 55.4934 14.86 55.4934 12.9238C55.4934 10.9877 57.0744 9.40649 59.0102 9.40649C60.9461 9.40649 62.527 10.9877 62.527 12.9238Z" fill="white"/>
<path d="M72.3434 12.9238C72.3434 14.86 70.7625 16.4412 68.8266 16.4412C66.8908 16.4412 65.3098 14.86 65.3098 12.9238C65.3098 10.9877 66.8908 9.40649 68.8266 9.40649C70.7625 9.40649 72.3434 10.9877 72.3434 12.9238Z" fill="white"/>
<path d="M82.1518 12.9238C82.1518 14.86 80.5708 16.4412 78.635 16.4412C76.6991 16.4412 75.1182 14.86 75.1182 12.9238C75.1182 10.9877 76.6991 9.40649 78.635 9.40649C80.5708 9.40649 82.1518 10.9877 82.1518 12.9238Z" fill="white"/>
<path d="M294.079 34.0843C294.636 34.528 295.467 34.1246 295.467 33.4147V27.1625H299.774C300.742 27.1625 301.524 26.38 301.524 25.4119V1.7506C301.524 0.782526 300.742 0 299.774 0H261.291C260.323 0 259.541 0.782526 259.541 1.7506V25.4119C259.541 26.38 260.323 27.1625 261.291 27.1625H285.336L294.079 34.0843Z" fill="#BB6542"/>
<path d="M274.285 13.1981C274.285 15.1343 272.704 16.7155 270.769 16.7155C268.833 16.7155 267.252 15.1343 267.252 13.1981C267.252 11.262 268.833 9.68079 270.769 9.68079C272.712 9.68079 274.285 11.262 274.285 13.1981Z" fill="white"/>
<path d="M284.045 13.1981C284.045 15.1343 282.464 16.7155 280.529 16.7155C278.593 16.7155 277.012 15.1343 277.012 13.1981C277.012 11.262 278.593 9.68079 280.529 9.68079C282.464 9.68079 284.045 11.262 284.045 13.1981Z" fill="white"/>
<path d="M293.797 13.1981C293.797 15.1343 292.216 16.7155 290.28 16.7155C288.344 16.7155 286.763 15.1343 286.763 13.1981C286.763 11.262 288.344 9.68079 290.28 9.68079C292.216 9.68079 293.797 11.262 293.797 13.1981Z" fill="white"/>
</g>
<defs>
<linearGradient id="paint0_linear_25_1740" x1="63.1455" y1="109.632" x2="99.5914" y2="117.218" gradientUnits="userSpaceOnUse">
<stop offset="1e-07" stop-color="#F6A285"/>
<stop offset="1" stop-color="#FC6B58"/>
</linearGradient>
<linearGradient id="paint1_linear_25_1740" x1="59.9366" y1="66.5437" x2="9.64965" y2="66.227" gradientUnits="userSpaceOnUse">
<stop offset="1e-07" stop-color="#FDE0BB"/>
<stop offset="1" stop-color="#FC6B58"/>
</linearGradient>
<linearGradient id="paint2_linear_25_1740" x1="1.303" y1="136.125" x2="44.7588" y2="136.125" gradientUnits="userSpaceOnUse">
<stop offset="1e-07" stop-color="#F6A285"/>
<stop offset="1" stop-color="#FC6B58"/>
</linearGradient>
<linearGradient id="paint3_linear_25_1740" x1="282.872" y1="114.393" x2="245.492" y2="114.393" gradientUnits="userSpaceOnUse">
<stop offset="1e-07" stop-color="#F6A285"/>
<stop offset="1" stop-color="#FC6B58"/>
</linearGradient>
<linearGradient id="paint4_linear_25_1740" x1="347.42" y1="151.557" x2="328.095" y2="151.557" gradientUnits="userSpaceOnUse">
<stop offset="1e-07" stop-color="#F6A285"/>
<stop offset="1" stop-color="#FC6B58"/>
</linearGradient>
<linearGradient id="paint5_linear_25_1740" x1="319.524" y1="84.9456" x2="308.269" y2="84.9456" gradientUnits="userSpaceOnUse">
<stop offset="1e-07" stop-color="#F6A285"/>
<stop offset="1" stop-color="#FC6B58"/>
</linearGradient>
<linearGradient id="paint6_linear_25_1740" x1="288.575" y1="71.3509" x2="337.07" y2="71.0455" gradientUnits="userSpaceOnUse">
<stop offset="1e-07" stop-color="#FDE0BB"/>
<stop offset="1" stop-color="#FC6B58"/>
</linearGradient>
<clipPath id="clip0_25_1740">
<rect width="346.841" height="306" fill="white" transform="translate(0.57959)"/>
</clipPath>
</defs>
</svg>
