<svg width="80" height="80" viewBox="0 0 80 80" fill="none" xmlns="http://www.w3.org/2000/svg">
<path d="M60.0766 22.3073C64.8646 22.3073 68.7524 18.4042 68.7524 13.6254C68.3219 2.12378 51.8375 2.12592 51.4007 13.6255C51.4007 18.4042 55.3011 22.3073 60.0766 22.3073Z" fill="#CF5763"/>
<path d="M74.2654 28.287C72.7403 25.4597 70.4651 23.2205 67.7398 21.7568C63.8337 25.7729 56.3192 25.7714 52.4133 21.7566C48.3778 24.0109 43.1109 29.2686 46.0251 34.2417C47.1254 36.0683 49.0505 37.1566 51.1757 37.1566H68.9774C73.4034 37.3028 76.4757 32.106 74.2654 28.287Z" fill="#CF5763"/>
<path d="M19.8936 22.3073C24.6816 22.3073 28.5694 18.4042 28.5694 13.6254C28.139 2.12378 11.6545 2.12592 11.2177 13.6255C11.2178 18.4042 15.1181 22.3073 19.8936 22.3073Z" fill="#CF5763"/>
<path d="M33.9449 34.2418C36.8548 29.2669 31.6023 24.013 27.557 21.7568C23.6507 25.7729 16.1362 25.7714 12.2304 21.7566C8.19486 24.0109 2.92792 29.2686 5.84213 34.2417C6.94237 36.0683 8.86752 37.1566 10.9927 37.1566H28.7944C30.9322 37.1566 32.8573 36.0683 33.9449 34.2418Z" fill="#CF5763"/>
<path d="M31.3111 51.4656C31.3111 56.2445 35.2114 60.1476 39.9869 60.1476C51.4814 59.7088 51.4773 43.2127 39.9868 42.7837C35.2114 42.7837 31.3111 46.6743 31.3111 51.4656Z" fill="#CF5763"/>
<path d="M47.6502 59.5971C43.744 63.6132 36.2295 63.6118 32.3237 59.5969C29.6109 61.0608 27.3232 63.3001 25.798 66.1273C23.5833 69.9457 26.675 75.1427 31.0862 74.9968L48.8878 74.9969C53.3137 75.1431 56.3861 69.9464 54.1756 66.1272C52.6506 63.3001 50.3754 61.0608 47.6502 59.5971Z" fill="#CF5763"/>
<path d="M34.0241 23.821C37.887 22.7077 42.0748 22.7077 45.9377 23.821C46.5628 23.108 47.2253 22.445 47.9379 21.832C42.8375 20.0305 37.1244 20.0431 32.0239 21.832C32.749 22.4324 33.4115 23.0955 34.0241 23.821Z" fill="#CF5763"/>
<path d="M18.7351 44.1998C18.7351 42.6611 18.8976 41.1349 19.2227 39.6587H16.6724C16.3849 41.1474 16.2349 42.661 16.2349 44.1998C16.2349 51.4306 19.5477 58.2235 25.0732 62.6521C25.5608 61.9765 26.1109 61.351 26.6859 60.7505C21.7104 56.7724 18.7351 50.6925 18.7351 44.1998Z" fill="#CF5763"/>
<path d="M60.7516 39.6587C61.0766 41.1349 61.2392 42.661 61.2392 44.1998C61.2392 50.6925 58.2639 56.7598 53.3009 60.7505C53.8759 61.351 54.4135 61.9765 54.9136 62.6521C60.4391 58.211 63.7394 51.4306 63.7394 44.1998C63.7394 42.6611 63.5894 41.1474 63.3019 39.6587H60.7516Z" fill="#CF5763"/>
</svg>
