<svg width="40" height="40" viewBox="0 0 40 40" fill="none" xmlns="http://www.w3.org/2000/svg">
<path fill-rule="evenodd" clip-rule="evenodd" d="M34.8732 19.5837C34.8393 19.5833 34.7949 19.5833 34.7229 19.5833H30.3853C28.0129 19.5833 26.2507 21.3479 26.2507 23.3333C26.2507 25.3188 28.0129 27.0833 30.3853 27.0833H34.7229C34.7949 27.0833 34.8393 27.0833 34.8732 27.083C34.9051 27.0826 34.9139 27.0821 34.9139 27.0821C35.2574 27.0612 35.4052 26.8293 35.4164 26.6899C35.4164 26.6899 35.4167 26.6794 35.4169 26.6643C35.4173 26.6347 35.4173 26.5953 35.4173 26.5278V20.1389C35.4173 20.1015 35.4173 20.0728 35.4172 20.0495C35.4172 20.0308 35.4171 20.0156 35.4169 20.0024C35.4167 19.9873 35.4164 19.9768 35.4164 19.9768C35.4052 19.8373 35.2574 19.6055 34.9139 19.5846C34.9139 19.5846 34.9057 19.5841 34.8732 19.5837ZM34.7505 17.0833C34.8611 17.0833 34.9678 17.0832 35.0658 17.0892C36.518 17.1776 37.8024 18.273 37.9104 19.803C37.9175 19.9033 37.9174 20.0114 37.9173 20.1117C37.9173 20.1208 37.9173 20.1299 37.9173 20.1389V26.5278C37.9173 26.5368 37.9173 26.5458 37.9173 26.555C37.9174 26.6552 37.9175 26.7634 37.9104 26.8637C37.8024 28.3937 36.518 29.4891 35.0658 29.5775C34.9678 29.5834 34.8611 29.5834 34.7505 29.5833C34.7413 29.5833 34.7321 29.5833 34.7229 29.5833H30.3853C26.8099 29.5833 23.7507 26.8707 23.7507 23.3333C23.7507 19.7959 26.8099 17.0833 30.3853 17.0833H34.7229C34.7321 17.0833 34.7413 17.0833 34.7505 17.0833Z" fill="#CF5763"/>
<path d="M31.6673 23.3333C31.6673 24.2538 30.9211 25 30.0007 25C29.0802 25 28.334 24.2538 28.334 23.3333C28.334 22.4129 29.0802 21.6667 30.0007 21.6667C30.9211 21.6667 31.6673 22.4129 31.6673 23.3333Z" fill="#CF5763"/>
<path fill-rule="evenodd" clip-rule="evenodd" d="M34.7505 17.0833C34.8611 17.0833 34.9678 17.0832 35.0658 17.0892C35.4415 17.1121 35.806 17.2024 36.1418 17.3501C35.9635 14.6727 35.4726 12.6094 33.9319 11.0687C32.6846 9.82147 31.1031 9.26794 29.149 9.00522L29.0785 8.99589C29.061 8.98294 29.0431 8.97038 29.0248 8.95821L22.799 4.8301C20.627 3.38997 17.7076 3.38997 15.5357 4.8301L9.30988 8.95821C9.29153 8.97038 9.2736 8.98294 9.25611 8.99589L9.18561 9.00522C7.23158 9.26794 5.64999 9.82147 4.40272 11.0687C3.15545 12.316 2.60192 13.8976 2.33921 15.8516C2.08394 17.7503 2.08396 20.1764 2.08398 23.2393V23.4274C2.08396 26.4903 2.08394 28.9163 2.33921 30.815C2.60192 32.7691 3.15545 34.3507 4.40272 35.5979C5.65 36.8452 7.23158 37.3987 9.18561 37.6614C11.0843 37.9167 13.5104 37.9167 16.5733 37.9167H21.7613C24.8243 37.9167 27.2503 37.9167 29.149 37.6614C31.1031 37.3987 32.6846 36.8452 33.9319 35.5979C35.4726 34.0573 35.9635 31.994 36.1418 29.3165C35.806 29.4643 35.4415 29.5546 35.0658 29.5775C34.9678 29.5834 34.8611 29.5834 34.7505 29.5833L34.7229 29.5833H33.6138C33.4241 31.8191 32.995 32.9993 32.1641 33.8302C31.4588 34.5355 30.4927 34.9583 28.8159 35.1837C27.1031 35.414 24.8454 35.4167 21.6673 35.4167H16.6673C13.4893 35.4167 11.2315 35.414 9.51873 35.1837C7.84192 34.9583 6.87584 34.5355 6.17049 33.8302C5.46514 33.1248 5.04236 32.1587 4.81692 30.4819C4.58664 28.7691 4.58399 26.5114 4.58399 23.3333C4.58399 20.1553 4.58664 17.8975 4.81692 16.1847C5.04236 14.5079 5.46514 13.5419 6.17049 12.8365C6.87584 12.1312 7.84192 11.7084 9.51873 11.4829C11.2315 11.2527 13.4893 11.25 16.6673 11.25H21.6673C24.8454 11.25 27.1031 11.2527 28.8159 11.4829C30.4927 11.7084 31.4588 12.1312 32.1641 12.8365C32.995 13.6674 33.4241 14.8476 33.6138 17.0833H34.7229L34.7505 17.0833ZM16.5733 8.75H21.7613C22.6222 8.74999 23.4327 8.74998 24.1954 8.75564L21.4174 6.91368C20.0828 6.02877 18.2518 6.02877 16.9172 6.91368L14.1393 8.75564C14.9019 8.74998 15.7125 8.74999 16.5733 8.75Z" fill="#CF5763"/>
<path d="M10.0007 15.4167C9.3103 15.4167 8.75065 15.9763 8.75065 16.6667C8.75065 17.357 9.3103 17.9167 10.0007 17.9167H16.6673C17.3577 17.9167 17.9173 17.357 17.9173 16.6667C17.9173 15.9763 17.3577 15.4167 16.6673 15.4167H10.0007Z" fill="#CF5763"/>
<path fill-rule="evenodd" clip-rule="evenodd" d="M31.6673 23.3333C31.6673 24.2538 30.9211 25 30.0007 25C29.0802 25 28.334 24.2538 28.334 23.3333C28.334 22.4129 29.0802 21.6667 30.0007 21.6667C30.9211 21.6667 31.6673 22.4129 31.6673 23.3333Z" fill="#CF5763"/>
</svg>
