<svg width="40" height="40" viewBox="0 0 40 40" fill="none" xmlns="http://www.w3.org/2000/svg">
<path fill-rule="evenodd" clip-rule="evenodd" d="M34.8727 19.5837C34.8388 19.5833 34.7944 19.5833 34.7224 19.5833H30.3848C28.0124 19.5833 26.2502 21.3479 26.2502 23.3333C26.2502 25.3188 28.0124 27.0833 30.3848 27.0833H34.7224C34.7944 27.0833 34.8388 27.0833 34.8727 27.083C34.9047 27.0826 34.9134 27.0821 34.9134 27.0821C35.2569 27.0612 35.4047 26.8293 35.4159 26.6899C35.4159 26.6899 35.4163 26.6794 35.4164 26.6643C35.4168 26.6347 35.4168 26.5953 35.4168 26.5278V20.1389C35.4168 20.1015 35.4168 20.0728 35.4168 20.0495C35.4167 20.0308 35.4166 20.0156 35.4164 20.0024C35.4163 19.9873 35.4159 19.9768 35.4159 19.9768C35.4047 19.8373 35.2569 19.6055 34.9134 19.5846C34.9134 19.5846 34.9052 19.5841 34.8727 19.5837ZM34.75 17.0833C34.8606 17.0833 34.9673 17.0832 35.0653 17.0892C36.5176 17.1776 37.8019 18.273 37.9099 19.803C37.917 19.9033 37.9169 20.0114 37.9168 20.1117C37.9168 20.1208 37.9168 20.1299 37.9168 20.1389V26.5278C37.9168 26.5368 37.9168 26.5458 37.9168 26.555C37.9169 26.6552 37.917 26.7634 37.9099 26.8637C37.8019 28.3937 36.5176 29.4891 35.0653 29.5775C34.9673 29.5834 34.8606 29.5834 34.75 29.5833C34.7408 29.5833 34.7316 29.5833 34.7224 29.5833H30.3848C26.8094 29.5833 23.7502 26.8707 23.7502 23.3333C23.7502 19.7959 26.8094 17.0833 30.3848 17.0833H34.7224C34.7316 17.0833 34.7408 17.0833 34.75 17.0833Z" fill="white"/>
<path d="M31.6668 23.3333C31.6668 24.2538 30.9206 25 30.0002 25C29.0797 25 28.3335 24.2538 28.3335 23.3333C28.3335 22.4129 29.0797 21.6667 30.0002 21.6667C30.9206 21.6667 31.6668 22.4129 31.6668 23.3333Z" fill="white"/>
<path fill-rule="evenodd" clip-rule="evenodd" d="M34.75 17.0833C34.8606 17.0833 34.9673 17.0832 35.0653 17.0892C35.441 17.1121 35.8055 17.2024 36.1413 17.3501C35.963 14.6727 35.4721 12.6094 33.9314 11.0687C32.6842 9.82147 31.1026 9.26794 29.1485 9.00522L29.078 8.99589C29.0605 8.98294 29.0426 8.97038 29.0243 8.95821L22.7985 4.8301C20.6265 3.38997 17.7071 3.38997 15.5352 4.8301L9.30939 8.95821C9.29104 8.97038 9.27311 8.98294 9.25562 8.99589L9.18512 9.00522C7.23109 9.26794 5.64951 9.82147 4.40223 11.0687C3.15496 12.316 2.60143 13.8976 2.33872 15.8516C2.08345 17.7503 2.08347 20.1764 2.0835 23.2393V23.4274C2.08347 26.4903 2.08345 28.9163 2.33872 30.815C2.60143 32.7691 3.15496 34.3507 4.40224 35.5979C5.64951 36.8452 7.23109 37.3987 9.18513 37.6614C11.0838 37.9167 13.5099 37.9167 16.5728 37.9167H21.7608C24.8238 37.9167 27.2498 37.9167 29.1485 37.6614C31.1026 37.3987 32.6842 36.8452 33.9314 35.5979C35.4721 34.0573 35.963 31.994 36.1413 29.3165C35.8055 29.4643 35.441 29.5546 35.0653 29.5775C34.9673 29.5834 34.8606 29.5834 34.75 29.5833L34.7224 29.5833H33.6134C33.4236 31.8191 32.9945 32.9993 32.1637 33.8302C31.4583 34.5355 30.4922 34.9583 28.8154 35.1837C27.1026 35.414 24.8449 35.4167 21.6668 35.4167H16.6668C13.4888 35.4167 11.231 35.414 9.51824 35.1837C7.84143 34.9583 6.87535 34.5355 6.17 33.8302C5.46465 33.1248 5.04187 32.1587 4.81643 30.4819C4.58615 28.7691 4.5835 26.5114 4.5835 23.3333C4.5835 20.1553 4.58615 17.8975 4.81643 16.1847C5.04187 14.5079 5.46465 13.5419 6.17 12.8365C6.87535 12.1312 7.84143 11.7084 9.51824 11.4829C11.231 11.2527 13.4888 11.25 16.6668 11.25H21.6668C24.8449 11.25 27.1026 11.2527 28.8154 11.4829C30.4922 11.7084 31.4583 12.1312 32.1637 12.8365C32.9945 13.6674 33.4236 14.8476 33.6134 17.0833H34.7224L34.75 17.0833ZM16.5728 8.75H21.7609C22.6217 8.74999 23.4322 8.74998 24.1949 8.75564L21.4169 6.91368C20.0823 6.02877 18.2513 6.02877 16.9167 6.91368L14.1388 8.75564C14.9014 8.74998 15.712 8.74999 16.5728 8.75Z" fill="white"/>
<path d="M10.0002 15.4167C9.30981 15.4167 8.75016 15.9763 8.75016 16.6667C8.75016 17.357 9.30981 17.9167 10.0002 17.9167H16.6668C17.3572 17.9167 17.9168 17.357 17.9168 16.6667C17.9168 15.9763 17.3572 15.4167 16.6668 15.4167H10.0002Z" fill="white"/>
<path fill-rule="evenodd" clip-rule="evenodd" d="M31.6668 23.3333C31.6668 24.2538 30.9206 25 30.0002 25C29.0797 25 28.3335 24.2538 28.3335 23.3333C28.3335 22.4129 29.0797 21.6667 30.0002 21.6667C30.9206 21.6667 31.6668 22.4129 31.6668 23.3333Z" fill="white"/>
</svg>
