<svg width="140" height="140" viewBox="0 0 140 140" fill="none" xmlns="http://www.w3.org/2000/svg">
<g clip-path="url(#clip0_392_4181)">
<path d="M70.0007 23.3335C60.7709 23.3335 51.7484 26.0704 44.0741 31.1982C36.3998 36.326 30.4184 43.6144 26.8863 52.1416C23.3542 60.6688 22.43 70.0519 24.2307 79.1044C26.0313 88.1568 30.4759 96.472 37.0024 102.998C43.5288 109.525 51.844 113.969 60.8965 115.77C69.9489 117.571 79.332 116.647 87.8592 113.115C96.3865 109.582 103.675 103.601 108.803 95.9268C113.93 88.2525 116.667 79.23 116.667 70.0002C116.667 57.6234 111.751 45.7535 102.999 37.0018C94.2473 28.2502 82.3774 23.3335 70.0007 23.3335ZM64.2062 46.6668C64.2062 45.1197 64.8208 43.636 65.9148 42.542C67.0087 41.4481 68.4925 40.8335 70.0396 40.8335C71.5867 40.8335 73.0704 41.4481 74.1644 42.542C75.2583 43.636 75.8729 45.1197 75.8729 46.6668V73.4613C75.8729 74.2273 75.722 74.9859 75.4289 75.6936C75.1357 76.4013 74.706 77.0444 74.1644 77.5861C73.6227 78.1277 72.9796 78.5574 72.2719 78.8506C71.5641 79.1437 70.8056 79.2946 70.0396 79.2946C69.2735 79.2946 68.515 79.1437 67.8072 78.8506C67.0995 78.5574 66.4564 78.1277 65.9148 77.5861C65.3731 77.0444 64.9434 76.4013 64.6503 75.6936C64.3571 74.9859 64.2062 74.2273 64.2062 73.4613V46.6668ZM70.0007 99.1668C68.6777 99.1668 67.3845 98.7745 66.2845 98.0396C65.1845 97.3046 64.3272 96.2599 63.8209 95.0377C63.3147 93.8154 63.1822 92.4705 63.4403 91.173C63.6984 89.8755 64.3355 88.6836 65.2709 87.7482C66.2064 86.8127 67.3982 86.1757 68.6957 85.9176C69.9933 85.6595 71.3382 85.792 72.5604 86.2982C73.7826 86.8045 74.8273 87.6618 75.5623 88.7618C76.2973 89.8618 76.6896 91.155 76.6896 92.4779C76.6896 94.252 75.9848 95.9533 74.7304 97.2077C73.476 98.4621 71.7747 99.1668 70.0007 99.1668Z" fill="#F2C94C"/>
</g>
<defs>
<clipPath id="clip0_392_4181">
<rect width="140" height="140" fill="white"/>
</clipPath>
</defs>
</svg>
