<svg width="24" height="24" viewBox="0 0 24 24" fill="none" xmlns="http://www.w3.org/2000/svg">
<path d="M11 20H6.5C4.98333 20 3.68733 19.475 2.612 18.425C1.53667 17.375 0.999334 16.0917 1 14.575C1 13.275 1.39167 12.1167 2.175 11.1C2.95833 10.0833 3.98333 9.43333 5.25 9.15C5.66667 7.61667 6.5 6.375 7.75 5.425C9 4.475 10.4167 4 12 4C13.95 4 15.6043 4.67933 16.963 6.038C18.3217 7.39667 19.0007 9.05067 19 11C20.15 11.1333 21.1043 11.6293 21.863 12.488C22.6217 13.3467 23.0007 14.3507 23 15.5C23 16.75 22.5623 17.8127 21.687 18.688C20.8117 19.5633 19.7493 20.0007 18.5 20H13V12.85L14.6 14.4L16 13L12 9L8 13L9.4 14.4L11 12.85V20Z" fill="#486284"/>
</svg>
