<svg width="24" height="25" viewBox="0 0 20 20" fill="none" xmlns="http://www.w3.org/2000/svg">
<path d="M10 8C10.7957 8 11.5587 7.68393 12.1213 7.12132C12.6839 6.55871 13 5.79565 13 5C13 4.20435 12.6839 3.44129 12.1213 2.87868C11.5587 2.31607 10.7957 2 10 2C9.20437 2 8.4413 2.31607 7.8787 2.87868C7.31609 3.44129 7.00002 4.20435 7.00002 5C7.00002 5.79565 7.31609 6.55871 7.8787 7.12132C8.4413 7.68393 9.20437 8 10 8ZM3.46502 14.493C3.37218 14.7411 3.36194 15.0126 3.43581 15.267C3.50969 15.5214 3.66373 15.7452 3.87502 15.905C5.62635 17.266 7.782 18.0034 10 18C12.31 18 14.438 17.216 16.131 15.9C16.561 15.567 16.735 14.997 16.539 14.49C16.0313 13.168 15.1346 12.0311 13.9673 11.2292C12.8001 10.4274 11.4171 9.99829 10.001 9.99861C8.58485 9.99894 7.20209 10.4287 6.03521 11.231C4.86833 12.0334 3.97217 13.1708 3.46502 14.493Z" fill="#CF5763"/>
</svg>
