<svg width="26" height="27" viewBox="0 0 26 27" fill="none" xmlns="http://www.w3.org/2000/svg">
<path d="M24.3761 13.7527C24.3761 12.8174 24.2987 12.1349 24.1311 11.4271H13.2333V15.6485H19.63C19.5011 16.6975 18.8047 18.2774 17.2571 19.339L17.2354 19.4803L20.681 22.0963L20.9198 22.1196C23.1122 20.1353 24.3761 17.2157 24.3761 13.7527Z" fill="#4285F4"/>
<path d="M13.2326 24.875C16.3664 24.875 18.9973 23.8638 20.919 22.1197L17.2563 19.339C16.2762 20.0089 14.9607 20.4766 13.2326 20.4766C10.1631 20.4766 7.55802 18.4923 6.62936 15.7496L6.49324 15.761L2.91038 18.4784L2.86353 18.606C4.77223 22.3218 8.69286 24.875 13.2326 24.875Z" fill="#34A853"/>
<path d="M6.63007 15.7497C6.38504 15.042 6.24323 14.2836 6.24323 13.5C6.24323 12.7163 6.38504 11.958 6.61718 11.2503L6.61069 11.0995L2.98292 8.3385L2.86422 8.39383C2.07755 9.93579 1.62616 11.6674 1.62616 13.5C1.62616 15.3326 2.07755 17.0641 2.86422 18.6061L6.63007 15.7497Z" fill="#FBBC05"/>
<path d="M13.2326 6.5233C15.4122 6.5233 16.8824 7.44594 17.7207 8.21696L20.9965 5.0825C18.9846 3.24987 16.3665 2.125 13.2326 2.125C8.69289 2.125 4.77224 4.67804 2.86353 8.39384L6.61649 11.2503C7.55805 8.50763 10.1632 6.5233 13.2326 6.5233Z" fill="#EB4335"/>
</svg>
