<svg width="200" height="133" viewBox="0 0 200 133" fill="none" xmlns="http://www.w3.org/2000/svg">
<rect width="200" height="132.51" rx="8" fill="#D9D9D9" fill-opacity="0.5"/>
<path d="M100 71.3337C102.946 71.3337 105.333 68.9458 105.333 66.0003C105.333 63.0548 102.946 60.667 100 60.667C97.0546 60.667 94.6667 63.0548 94.6667 66.0003C94.6667 68.9458 97.0546 71.3337 100 71.3337Z" fill="#697A8D" fill-opacity="0.5"/>
<path d="M94.9999 49.333L91.9499 52.6663H86.6666C84.8333 52.6663 83.3333 54.1663 83.3333 55.9997V75.9997C83.3333 77.833 84.8333 79.333 86.6666 79.333H113.333C115.167 79.333 116.667 77.833 116.667 75.9997V55.9997C116.667 54.1663 115.167 52.6663 113.333 52.6663H108.05L105 49.333H94.9999ZM99.9999 74.333C95.3999 74.333 91.6666 70.5997 91.6666 65.9997C91.6666 61.3997 95.3999 57.6663 99.9999 57.6663C104.6 57.6663 108.333 61.3997 108.333 65.9997C108.333 70.5997 104.6 74.333 99.9999 74.333Z" fill="#697A8D" fill-opacity="0.5"/>
</svg>
