<svg width="24" height="25" viewBox="0 0 24 25" fill="none" xmlns="http://www.w3.org/2000/svg">
<path fill-rule="evenodd" clip-rule="evenodd" d="M6.00745 3.90686C7.68752 2.22679 10.5227 2.35451 11.6925 4.45063L12.3415 5.61356C13.1054 6.98238 12.7799 8.70946 11.6616 9.84143C11.6467 9.86184 11.5677 9.97677 11.5579 10.1776C11.5454 10.4339 11.6364 11.0267 12.5548 11.9451C13.4729 12.8632 14.0656 12.9545 14.3221 12.942C14.5231 12.9322 14.6381 12.8533 14.6585 12.8383C15.7905 11.7201 17.5176 11.3945 18.8864 12.1584L20.0493 12.8075C22.1454 13.9773 22.2731 16.8124 20.5931 18.4925C19.6944 19.3911 18.4995 20.1896 17.0953 20.2429C15.0144 20.3218 11.5591 19.7844 8.13735 16.3626C4.71556 12.9408 4.17818 9.48556 4.25706 7.40463C4.3103 6.00044 5.10879 4.80552 6.00745 3.90686ZM10.3827 5.18163C9.78363 4.10828 8.17394 3.86169 7.06811 4.96752C6.29276 5.74287 5.7887 6.59868 5.75599 7.46146C5.6902 9.1968 6.11864 12.2226 9.19801 15.3019C12.2774 18.3813 15.3031 18.8097 17.0385 18.7439C17.9013 18.7112 18.7571 18.2072 19.5324 17.4318C20.6382 16.326 20.3916 14.7163 19.3183 14.1173L18.1554 13.4683C17.432 13.0645 16.4158 13.2023 15.7025 13.9156L15.7023 13.9158C15.6322 13.9858 15.1864 14.4018 14.395 14.4403C13.5847 14.4797 12.604 14.1156 11.4942 13.0058C10.384 11.8956 10.02 10.9146 10.0597 10.1042C10.0985 9.31271 10.5147 8.86711 10.5843 8.79746L10.5844 8.79743C11.2977 8.08411 11.4354 7.06797 11.0317 6.34456L10.3827 5.18163Z" fill="#999999"/>
</svg>
