<svg width="25" height="24" viewBox="0 0 25 24" fill="none" xmlns="http://www.w3.org/2000/svg">
<path d="M21.5999 2.89995C20.4999 1.79995 18.5999 1.79995 17.3999 2.89995L9.2999 10.8C8.5999 11.5 8.0999 12.4 7.8999 13.4L7.4999 15.6C7.3999 15.9 7.4999 16.3 7.7999 16.5C7.9999 16.7 8.1999 16.8 8.4999 16.8H8.6999L10.8999 16.4C11.8999 16.2 12.7999 15.7 13.4999 15L21.5999 6.99995C22.1999 6.49995 22.4999 5.69995 22.4999 4.89995C22.4999 4.09995 22.1999 3.39995 21.5999 2.89995ZM12.1999 13.5C11.7999 13.9 11.1999 14.2 10.5999 14.3L9.7999 14.5L9.9999 13.8C10.0999 13.2 10.3999 12.7 10.8999 12.2L17.0999 6.09995L18.4999 7.39995L12.1999 13.5ZM20.1999 5.59995L19.7999 5.99995L18.3999 4.69995L18.7999 4.29995C18.9999 4.09995 19.2999 3.99995 19.4999 3.99995C19.7999 3.99995 19.9999 4.09995 20.1999 4.29995C20.3999 4.49995 20.4999 4.69995 20.4999 4.89995C20.4999 5.09995 20.4999 5.39995 20.1999 5.59995Z" fill="white"/>
<path d="M20.5 9.9C19.9 9.9 19.5 10.3 19.5 10.9V16C19.5 17.7 18.2 19 16.5 19H8.5C6.8 19 5.5 17.7 5.5 16V8C5.5 6.3 6.8 5 8.5 5H13.5C14.1 5 14.5 4.6 14.5 4C14.5 3.4 14.1 3 13.5 3H8.5C5.7 3 3.5 5.2 3.5 8V16C3.5 18.8 5.7 21 8.5 21H16.5C19.3 21 21.5 18.8 21.5 16V10.9C21.5 10.4 21.1 9.9 20.5 9.9Z" fill="white"/>
</svg>
