<svg width="178" height="178" viewBox="0 0 178 178" fill="none" xmlns="http://www.w3.org/2000/svg">
<g clip-path="url(#clip0_357_3297)">
<path d="M178 0H0V178H178V0Z" fill="white"/>
<path d="M16.4957 11.125H11.125V16.4957H16.4957V11.125Z" fill="black"/>
<path d="M21.8664 11.125H16.4957V16.4957H21.8664V11.125Z" fill="black"/>
<path d="M27.2371 11.125H21.8664V16.4957H27.2371V11.125Z" fill="black"/>
<path d="M32.6078 11.125H27.2371V16.4957H32.6078V11.125Z" fill="black"/>
<path d="M37.9784 11.125H32.6078V16.4957H37.9784V11.125Z" fill="black"/>
<path d="M43.3491 11.125H37.9784V16.4957H43.3491V11.125Z" fill="black"/>
<path d="M48.7198 11.125H43.3491V16.4957H48.7198V11.125Z" fill="black"/>
<path d="M59.4612 11.125H54.0905V16.4957H59.4612V11.125Z" fill="black"/>
<path d="M75.5733 11.125H70.2026V16.4957H75.5733V11.125Z" fill="black"/>
<path d="M80.944 11.125H75.5733V16.4957H80.944V11.125Z" fill="black"/>
<path d="M91.6853 11.125H86.3147V16.4957H91.6853V11.125Z" fill="black"/>
<path d="M97.056 11.125H91.6853V16.4957H97.056V11.125Z" fill="black"/>
<path d="M102.427 11.125H97.056V16.4957H102.427V11.125Z" fill="black"/>
<path d="M113.168 11.125H107.797V16.4957H113.168V11.125Z" fill="black"/>
<path d="M123.909 11.125H118.539V16.4957H123.909V11.125Z" fill="black"/>
<path d="M134.651 11.125H129.28V16.4957H134.651V11.125Z" fill="black"/>
<path d="M140.022 11.125H134.651V16.4957H140.022V11.125Z" fill="black"/>
<path d="M145.392 11.125H140.022V16.4957H145.392V11.125Z" fill="black"/>
<path d="M150.763 11.125H145.392V16.4957H150.763V11.125Z" fill="black"/>
<path d="M156.134 11.125H150.763V16.4957H156.134V11.125Z" fill="black"/>
<path d="M161.504 11.125H156.134V16.4957H161.504V11.125Z" fill="black"/>
<path d="M166.875 11.125H161.504V16.4957H166.875V11.125Z" fill="black"/>
<path d="M16.4957 16.4957H11.125V21.8664H16.4957V16.4957Z" fill="black"/>
<path d="M48.7198 16.4957H43.3491V21.8664H48.7198V16.4957Z" fill="black"/>
<path d="M64.8319 16.4957H59.4612V21.8664H64.8319V16.4957Z" fill="black"/>
<path d="M75.5733 16.4957H70.2026V21.8664H75.5733V16.4957Z" fill="black"/>
<path d="M80.944 16.4957H75.5733V21.8664H80.944V16.4957Z" fill="black"/>
<path d="M86.3147 16.4957H80.944V21.8664H86.3147V16.4957Z" fill="black"/>
<path d="M102.427 16.4957H97.056V21.8664H102.427V16.4957Z" fill="black"/>
<path d="M113.168 16.4957H107.797V21.8664H113.168V16.4957Z" fill="black"/>
<path d="M123.909 16.4957H118.539V21.8664H123.909V16.4957Z" fill="black"/>
<path d="M134.651 16.4957H129.28V21.8664H134.651V16.4957Z" fill="black"/>
<path d="M166.875 16.4957H161.504V21.8664H166.875V16.4957Z" fill="black"/>
<path d="M16.4957 21.8664H11.125V27.2371H16.4957V21.8664Z" fill="black"/>
<path d="M27.2371 21.8664H21.8664V27.2371H27.2371V21.8664Z" fill="black"/>
<path d="M32.6078 21.8664H27.2371V27.2371H32.6078V21.8664Z" fill="black"/>
<path d="M37.9784 21.8664H32.6078V27.2371H37.9784V21.8664Z" fill="black"/>
<path d="M48.7198 21.8664H43.3491V27.2371H48.7198V21.8664Z" fill="black"/>
<path d="M59.4612 21.8664H54.0905V27.2371H59.4612V21.8664Z" fill="black"/>
<path d="M86.3147 21.8664H80.944V27.2371H86.3147V21.8664Z" fill="black"/>
<path d="M102.427 21.8664H97.056V27.2371H102.427V21.8664Z" fill="black"/>
<path d="M118.539 21.8664H113.168V27.2371H118.539V21.8664Z" fill="black"/>
<path d="M123.909 21.8664H118.539V27.2371H123.909V21.8664Z" fill="black"/>
<path d="M134.651 21.8664H129.28V27.2371H134.651V21.8664Z" fill="black"/>
<path d="M145.392 21.8664H140.022V27.2371H145.392V21.8664Z" fill="black"/>
<path d="M150.763 21.8664H145.392V27.2371H150.763V21.8664Z" fill="black"/>
<path d="M156.134 21.8664H150.763V27.2371H156.134V21.8664Z" fill="black"/>
<path d="M166.875 21.8664H161.504V27.2371H166.875V21.8664Z" fill="black"/>
<path d="M16.4957 27.2371H11.125V32.6078H16.4957V27.2371Z" fill="black"/>
<path d="M27.2371 27.2371H21.8664V32.6078H27.2371V27.2371Z" fill="black"/>
<path d="M32.6078 27.2371H27.2371V32.6078H32.6078V27.2371Z" fill="black"/>
<path d="M37.9784 27.2371H32.6078V32.6078H37.9784V27.2371Z" fill="black"/>
<path d="M48.7198 27.2371H43.3491V32.6078H48.7198V27.2371Z" fill="black"/>
<path d="M64.8319 27.2371H59.4612V32.6078H64.8319V27.2371Z" fill="black"/>
<path d="M75.5733 27.2371H70.2026V32.6078H75.5733V27.2371Z" fill="black"/>
<path d="M80.944 27.2371H75.5733V32.6078H80.944V27.2371Z" fill="black"/>
<path d="M86.3147 27.2371H80.944V32.6078H86.3147V27.2371Z" fill="black"/>
<path d="M91.6853 27.2371H86.3147V32.6078H91.6853V27.2371Z" fill="black"/>
<path d="M97.056 27.2371H91.6853V32.6078H97.056V27.2371Z" fill="black"/>
<path d="M113.168 27.2371H107.797V32.6078H113.168V27.2371Z" fill="black"/>
<path d="M123.909 27.2371H118.539V32.6078H123.909V27.2371Z" fill="black"/>
<path d="M134.651 27.2371H129.28V32.6078H134.651V27.2371Z" fill="black"/>
<path d="M145.392 27.2371H140.022V32.6078H145.392V27.2371Z" fill="black"/>
<path d="M150.763 27.2371H145.392V32.6078H150.763V27.2371Z" fill="black"/>
<path d="M156.134 27.2371H150.763V32.6078H156.134V27.2371Z" fill="black"/>
<path d="M166.875 27.2371H161.504V32.6078H166.875V27.2371Z" fill="black"/>
<path d="M16.4957 32.6078H11.125V37.9784H16.4957V32.6078Z" fill="black"/>
<path d="M27.2371 32.6078H21.8664V37.9784H27.2371V32.6078Z" fill="black"/>
<path d="M32.6078 32.6078H27.2371V37.9784H32.6078V32.6078Z" fill="black"/>
<path d="M37.9784 32.6078H32.6078V37.9784H37.9784V32.6078Z" fill="black"/>
<path d="M48.7198 32.6078H43.3491V37.9784H48.7198V32.6078Z" fill="black"/>
<path d="M64.8319 32.6078H59.4612V37.9784H64.8319V32.6078Z" fill="black"/>
<path d="M75.5733 32.6078H70.2026V37.9784H75.5733V32.6078Z" fill="black"/>
<path d="M97.056 32.6078H91.6853V37.9784H97.056V32.6078Z" fill="black"/>
<path d="M102.427 32.6078H97.056V37.9784H102.427V32.6078Z" fill="black"/>
<path d="M107.797 32.6078H102.427V37.9784H107.797V32.6078Z" fill="black"/>
<path d="M113.168 32.6078H107.797V37.9784H113.168V32.6078Z" fill="black"/>
<path d="M118.539 32.6078H113.168V37.9784H118.539V32.6078Z" fill="black"/>
<path d="M134.651 32.6078H129.28V37.9784H134.651V32.6078Z" fill="black"/>
<path d="M145.392 32.6078H140.022V37.9784H145.392V32.6078Z" fill="black"/>
<path d="M150.763 32.6078H145.392V37.9784H150.763V32.6078Z" fill="black"/>
<path d="M156.134 32.6078H150.763V37.9784H156.134V32.6078Z" fill="black"/>
<path d="M166.875 32.6078H161.504V37.9784H166.875V32.6078Z" fill="black"/>
<path d="M16.4957 37.9784H11.125V43.3491H16.4957V37.9784Z" fill="black"/>
<path d="M48.7198 37.9784H43.3491V43.3491H48.7198V37.9784Z" fill="black"/>
<path d="M64.8319 37.9784H59.4612V43.3491H64.8319V37.9784Z" fill="black"/>
<path d="M75.5733 37.9784H70.2026V43.3491H75.5733V37.9784Z" fill="black"/>
<path d="M86.3147 37.9784H80.944V43.3491H86.3147V37.9784Z" fill="black"/>
<path d="M113.168 37.9784H107.797V43.3491H113.168V37.9784Z" fill="black"/>
<path d="M118.539 37.9784H113.168V43.3491H118.539V37.9784Z" fill="black"/>
<path d="M134.651 37.9784H129.28V43.3491H134.651V37.9784Z" fill="black"/>
<path d="M166.875 37.9784H161.504V43.3491H166.875V37.9784Z" fill="black"/>
<path d="M16.4957 43.3491H11.125V48.7198H16.4957V43.3491Z" fill="black"/>
<path d="M21.8664 43.3491H16.4957V48.7198H21.8664V43.3491Z" fill="black"/>
<path d="M27.2371 43.3491H21.8664V48.7198H27.2371V43.3491Z" fill="black"/>
<path d="M32.6078 43.3491H27.2371V48.7198H32.6078V43.3491Z" fill="black"/>
<path d="M37.9784 43.3491H32.6078V48.7198H37.9784V43.3491Z" fill="black"/>
<path d="M43.3491 43.3491H37.9784V48.7198H43.3491V43.3491Z" fill="black"/>
<path d="M48.7198 43.3491H43.3491V48.7198H48.7198V43.3491Z" fill="black"/>
<path d="M59.4612 43.3491H54.0905V48.7198H59.4612V43.3491Z" fill="black"/>
<path d="M70.2026 43.3491H64.8319V48.7198H70.2026V43.3491Z" fill="black"/>
<path d="M80.944 43.3491H75.5733V48.7198H80.944V43.3491Z" fill="black"/>
<path d="M91.6853 43.3491H86.3147V48.7198H91.6853V43.3491Z" fill="black"/>
<path d="M102.427 43.3491H97.056V48.7198H102.427V43.3491Z" fill="black"/>
<path d="M113.168 43.3491H107.797V48.7198H113.168V43.3491Z" fill="black"/>
<path d="M123.909 43.3491H118.539V48.7198H123.909V43.3491Z" fill="black"/>
<path d="M134.651 43.3491H129.28V48.7198H134.651V43.3491Z" fill="black"/>
<path d="M140.022 43.3491H134.651V48.7198H140.022V43.3491Z" fill="black"/>
<path d="M145.392 43.3491H140.022V48.7198H145.392V43.3491Z" fill="black"/>
<path d="M150.763 43.3491H145.392V48.7198H150.763V43.3491Z" fill="black"/>
<path d="M156.134 43.3491H150.763V48.7198H156.134V43.3491Z" fill="black"/>
<path d="M161.504 43.3491H156.134V48.7198H161.504V43.3491Z" fill="black"/>
<path d="M166.875 43.3491H161.504V48.7198H166.875V43.3491Z" fill="black"/>
<path d="M59.4612 48.7198H54.0905V54.0905H59.4612V48.7198Z" fill="black"/>
<path d="M70.2026 48.7198H64.8319V54.0905H70.2026V48.7198Z" fill="black"/>
<path d="M97.056 48.7198H91.6853V54.0905H97.056V48.7198Z" fill="black"/>
<path d="M107.797 48.7198H102.427V54.0905H107.797V48.7198Z" fill="black"/>
<path d="M113.168 48.7198H107.797V54.0905H113.168V48.7198Z" fill="black"/>
<path d="M123.909 48.7198H118.539V54.0905H123.909V48.7198Z" fill="black"/>
<path d="M16.4957 54.0905H11.125V59.4612H16.4957V54.0905Z" fill="black"/>
<path d="M27.2371 54.0905H21.8664V59.4612H27.2371V54.0905Z" fill="black"/>
<path d="M43.3491 54.0905H37.9784V59.4612H43.3491V54.0905Z" fill="black"/>
<path d="M48.7198 54.0905H43.3491V59.4612H48.7198V54.0905Z" fill="black"/>
<path d="M80.944 54.0905H75.5733V59.4612H80.944V54.0905Z" fill="black"/>
<path d="M97.056 54.0905H91.6853V59.4612H97.056V54.0905Z" fill="black"/>
<path d="M102.427 54.0905H97.056V59.4612H102.427V54.0905Z" fill="black"/>
<path d="M107.797 54.0905H102.427V59.4612H107.797V54.0905Z" fill="black"/>
<path d="M123.909 54.0905H118.539V59.4612H123.909V54.0905Z" fill="black"/>
<path d="M129.28 54.0905H123.909V59.4612H129.28V54.0905Z" fill="black"/>
<path d="M134.651 54.0905H129.28V59.4612H134.651V54.0905Z" fill="black"/>
<path d="M156.134 54.0905H150.763V59.4612H156.134V54.0905Z" fill="black"/>
<path d="M166.875 54.0905H161.504V59.4612H166.875V54.0905Z" fill="black"/>
<path d="M27.2371 59.4612H21.8664V64.8319H27.2371V59.4612Z" fill="black"/>
<path d="M32.6078 59.4612H27.2371V64.8319H32.6078V59.4612Z" fill="black"/>
<path d="M37.9784 59.4612H32.6078V64.8319H37.9784V59.4612Z" fill="black"/>
<path d="M54.0905 59.4612H48.7198V64.8319H54.0905V59.4612Z" fill="black"/>
<path d="M59.4612 59.4612H54.0905V64.8319H59.4612V59.4612Z" fill="black"/>
<path d="M70.2026 59.4612H64.8319V64.8319H70.2026V59.4612Z" fill="black"/>
<path d="M75.5733 59.4612H70.2026V64.8319H75.5733V59.4612Z" fill="black"/>
<path d="M91.6853 59.4612H86.3147V64.8319H91.6853V59.4612Z" fill="black"/>
<path d="M102.427 59.4612H97.056V64.8319H102.427V59.4612Z" fill="black"/>
<path d="M123.909 59.4612H118.539V64.8319H123.909V59.4612Z" fill="black"/>
<path d="M134.651 59.4612H129.28V64.8319H134.651V59.4612Z" fill="black"/>
<path d="M145.392 59.4612H140.022V64.8319H145.392V59.4612Z" fill="black"/>
<path d="M161.504 59.4612H156.134V64.8319H161.504V59.4612Z" fill="black"/>
<path d="M166.875 59.4612H161.504V64.8319H166.875V59.4612Z" fill="black"/>
<path d="M16.4957 64.8319H11.125V70.2026H16.4957V64.8319Z" fill="black"/>
<path d="M21.8664 64.8319H16.4957V70.2026H21.8664V64.8319Z" fill="black"/>
<path d="M27.2371 64.8319H21.8664V70.2026H27.2371V64.8319Z" fill="black"/>
<path d="M37.9784 64.8319H32.6078V70.2026H37.9784V64.8319Z" fill="black"/>
<path d="M43.3491 64.8319H37.9784V70.2026H43.3491V64.8319Z" fill="black"/>
<path d="M48.7198 64.8319H43.3491V70.2026H48.7198V64.8319Z" fill="black"/>
<path d="M54.0905 64.8319H48.7198V70.2026H54.0905V64.8319Z" fill="black"/>
<path d="M75.5733 64.8319H70.2026V70.2026H75.5733V64.8319Z" fill="black"/>
<path d="M80.944 64.8319H75.5733V70.2026H80.944V64.8319Z" fill="black"/>
<path d="M86.3147 64.8319H80.944V70.2026H86.3147V64.8319Z" fill="black"/>
<path d="M97.056 64.8319H91.6853V70.2026H97.056V64.8319Z" fill="black"/>
<path d="M113.168 64.8319H107.797V70.2026H113.168V64.8319Z" fill="black"/>
<path d="M129.28 64.8319H123.909V70.2026H129.28V64.8319Z" fill="black"/>
<path d="M134.651 64.8319H129.28V70.2026H134.651V64.8319Z" fill="black"/>
<path d="M140.022 64.8319H134.651V70.2026H140.022V64.8319Z" fill="black"/>
<path d="M161.504 64.8319H156.134V70.2026H161.504V64.8319Z" fill="black"/>
<path d="M166.875 64.8319H161.504V70.2026H166.875V64.8319Z" fill="black"/>
<path d="M21.8664 70.2026H16.4957V75.5733H21.8664V70.2026Z" fill="black"/>
<path d="M27.2371 70.2026H21.8664V75.5733H27.2371V70.2026Z" fill="black"/>
<path d="M32.6078 70.2026H27.2371V75.5733H32.6078V70.2026Z" fill="black"/>
<path d="M43.3491 70.2026H37.9784V75.5733H43.3491V70.2026Z" fill="black"/>
<path d="M64.8319 70.2026H59.4612V75.5733H64.8319V70.2026Z" fill="black"/>
<path d="M70.2026 70.2026H64.8319V75.5733H70.2026V70.2026Z" fill="black"/>
<path d="M86.3147 70.2026H80.944V75.5733H86.3147V70.2026Z" fill="black"/>
<path d="M91.6853 70.2026H86.3147V75.5733H91.6853V70.2026Z" fill="black"/>
<path d="M113.168 70.2026H107.797V75.5733H113.168V70.2026Z" fill="black"/>
<path d="M123.909 70.2026H118.539V75.5733H123.909V70.2026Z" fill="black"/>
<path d="M134.651 70.2026H129.28V75.5733H134.651V70.2026Z" fill="black"/>
<path d="M140.022 70.2026H134.651V75.5733H140.022V70.2026Z" fill="black"/>
<path d="M156.134 70.2026H150.763V75.5733H156.134V70.2026Z" fill="black"/>
<path d="M161.504 70.2026H156.134V75.5733H161.504V70.2026Z" fill="black"/>
<path d="M166.875 70.2026H161.504V75.5733H166.875V70.2026Z" fill="black"/>
<path d="M16.4957 75.5733H11.125V80.944H16.4957V75.5733Z" fill="black"/>
<path d="M27.2371 75.5733H21.8664V80.944H27.2371V75.5733Z" fill="black"/>
<path d="M32.6078 75.5733H27.2371V80.944H32.6078V75.5733Z" fill="black"/>
<path d="M48.7198 75.5733H43.3491V80.944H48.7198V75.5733Z" fill="black"/>
<path d="M54.0905 75.5733H48.7198V80.944H54.0905V75.5733Z" fill="black"/>
<path d="M59.4612 75.5733H54.0905V80.944H59.4612V75.5733Z" fill="black"/>
<path d="M64.8319 75.5733H59.4612V80.944H64.8319V75.5733Z" fill="black"/>
<path d="M70.2026 75.5733H64.8319V80.944H70.2026V75.5733Z" fill="black"/>
<path d="M75.5733 75.5733H70.2026V80.944H75.5733V75.5733Z" fill="black"/>
<path d="M80.944 75.5733H75.5733V80.944H80.944V75.5733Z" fill="black"/>
<path d="M86.3147 75.5733H80.944V80.944H86.3147V75.5733Z" fill="black"/>
<path d="M91.6853 75.5733H86.3147V80.944H91.6853V75.5733Z" fill="black"/>
<path d="M102.427 75.5733H97.056V80.944H102.427V75.5733Z" fill="black"/>
<path d="M107.797 75.5733H102.427V80.944H107.797V75.5733Z" fill="black"/>
<path d="M113.168 75.5733H107.797V80.944H113.168V75.5733Z" fill="black"/>
<path d="M118.539 75.5733H113.168V80.944H118.539V75.5733Z" fill="black"/>
<path d="M134.651 75.5733H129.28V80.944H134.651V75.5733Z" fill="black"/>
<path d="M140.022 75.5733H134.651V80.944H140.022V75.5733Z" fill="black"/>
<path d="M156.134 75.5733H150.763V80.944H156.134V75.5733Z" fill="black"/>
<path d="M16.4957 80.944H11.125V86.3147H16.4957V80.944Z" fill="black"/>
<path d="M27.2371 80.944H21.8664V86.3147H27.2371V80.944Z" fill="black"/>
<path d="M43.3491 80.944H37.9784V86.3147H43.3491V80.944Z" fill="black"/>
<path d="M54.0905 80.944H48.7198V86.3147H54.0905V80.944Z" fill="black"/>
<path d="M59.4612 80.944H54.0905V86.3147H59.4612V80.944Z" fill="black"/>
<path d="M70.2026 80.944H64.8319V86.3147H70.2026V80.944Z" fill="black"/>
<path d="M80.944 80.944H75.5733V86.3147H80.944V80.944Z" fill="black"/>
<path d="M86.3147 80.944H80.944V86.3147H86.3147V80.944Z" fill="black"/>
<path d="M97.056 80.944H91.6853V86.3147H97.056V80.944Z" fill="black"/>
<path d="M102.427 80.944H97.056V86.3147H102.427V80.944Z" fill="black"/>
<path d="M113.168 80.944H107.797V86.3147H113.168V80.944Z" fill="black"/>
<path d="M123.909 80.944H118.539V86.3147H123.909V80.944Z" fill="black"/>
<path d="M129.28 80.944H123.909V86.3147H129.28V80.944Z" fill="black"/>
<path d="M140.022 80.944H134.651V86.3147H140.022V80.944Z" fill="black"/>
<path d="M145.392 80.944H140.022V86.3147H145.392V80.944Z" fill="black"/>
<path d="M161.504 80.944H156.134V86.3147H161.504V80.944Z" fill="black"/>
<path d="M16.4957 86.3147H11.125V91.6853H16.4957V86.3147Z" fill="black"/>
<path d="M43.3491 86.3147H37.9784V91.6853H43.3491V86.3147Z" fill="black"/>
<path d="M48.7198 86.3147H43.3491V91.6853H48.7198V86.3147Z" fill="black"/>
<path d="M70.2026 86.3147H64.8319V91.6853H70.2026V86.3147Z" fill="black"/>
<path d="M75.5733 86.3147H70.2026V91.6853H75.5733V86.3147Z" fill="black"/>
<path d="M80.944 86.3147H75.5733V91.6853H80.944V86.3147Z" fill="black"/>
<path d="M86.3147 86.3147H80.944V91.6853H86.3147V86.3147Z" fill="black"/>
<path d="M113.168 86.3147H107.797V91.6853H113.168V86.3147Z" fill="black"/>
<path d="M118.539 86.3147H113.168V91.6853H118.539V86.3147Z" fill="black"/>
<path d="M123.909 86.3147H118.539V91.6853H123.909V86.3147Z" fill="black"/>
<path d="M129.28 86.3147H123.909V91.6853H129.28V86.3147Z" fill="black"/>
<path d="M161.504 86.3147H156.134V91.6853H161.504V86.3147Z" fill="black"/>
<path d="M166.875 86.3147H161.504V91.6853H166.875V86.3147Z" fill="black"/>
<path d="M16.4957 91.6853H11.125V97.056H16.4957V91.6853Z" fill="black"/>
<path d="M21.8664 91.6853H16.4957V97.056H21.8664V91.6853Z" fill="black"/>
<path d="M32.6078 91.6853H27.2371V97.056H32.6078V91.6853Z" fill="black"/>
<path d="M37.9784 91.6853H32.6078V97.056H37.9784V91.6853Z" fill="black"/>
<path d="M59.4612 91.6853H54.0905V97.056H59.4612V91.6853Z" fill="black"/>
<path d="M75.5733 91.6853H70.2026V97.056H75.5733V91.6853Z" fill="black"/>
<path d="M91.6853 91.6853H86.3147V97.056H91.6853V91.6853Z" fill="black"/>
<path d="M102.427 91.6853H97.056V97.056H102.427V91.6853Z" fill="black"/>
<path d="M118.539 91.6853H113.168V97.056H118.539V91.6853Z" fill="black"/>
<path d="M134.651 91.6853H129.28V97.056H134.651V91.6853Z" fill="black"/>
<path d="M145.392 91.6853H140.022V97.056H145.392V91.6853Z" fill="black"/>
<path d="M161.504 91.6853H156.134V97.056H161.504V91.6853Z" fill="black"/>
<path d="M32.6078 97.056H27.2371V102.427H32.6078V97.056Z" fill="black"/>
<path d="M37.9784 97.056H32.6078V102.427H37.9784V97.056Z" fill="black"/>
<path d="M43.3491 97.056H37.9784V102.427H43.3491V97.056Z" fill="black"/>
<path d="M48.7198 97.056H43.3491V102.427H48.7198V97.056Z" fill="black"/>
<path d="M59.4612 97.056H54.0905V102.427H59.4612V97.056Z" fill="black"/>
<path d="M64.8319 97.056H59.4612V102.427H64.8319V97.056Z" fill="black"/>
<path d="M70.2026 97.056H64.8319V102.427H70.2026V97.056Z" fill="black"/>
<path d="M75.5733 97.056H70.2026V102.427H75.5733V97.056Z" fill="black"/>
<path d="M102.427 97.056H97.056V102.427H102.427V97.056Z" fill="black"/>
<path d="M107.797 97.056H102.427V102.427H107.797V97.056Z" fill="black"/>
<path d="M113.168 97.056H107.797V102.427H113.168V97.056Z" fill="black"/>
<path d="M118.539 97.056H113.168V102.427H118.539V97.056Z" fill="black"/>
<path d="M145.392 97.056H140.022V102.427H145.392V97.056Z" fill="black"/>
<path d="M150.763 97.056H145.392V102.427H150.763V97.056Z" fill="black"/>
<path d="M156.134 97.056H150.763V102.427H156.134V97.056Z" fill="black"/>
<path d="M161.504 97.056H156.134V102.427H161.504V97.056Z" fill="black"/>
<path d="M16.4957 102.427H11.125V107.797H16.4957V102.427Z" fill="black"/>
<path d="M27.2371 102.427H21.8664V107.797H27.2371V102.427Z" fill="black"/>
<path d="M32.6078 102.427H27.2371V107.797H32.6078V102.427Z" fill="black"/>
<path d="M37.9784 102.427H32.6078V107.797H37.9784V102.427Z" fill="black"/>
<path d="M43.3491 102.427H37.9784V107.797H43.3491V102.427Z" fill="black"/>
<path d="M70.2026 102.427H64.8319V107.797H70.2026V102.427Z" fill="black"/>
<path d="M91.6853 102.427H86.3147V107.797H91.6853V102.427Z" fill="black"/>
<path d="M123.909 102.427H118.539V107.797H123.909V102.427Z" fill="black"/>
<path d="M129.28 102.427H123.909V107.797H129.28V102.427Z" fill="black"/>
<path d="M140.022 102.427H134.651V107.797H140.022V102.427Z" fill="black"/>
<path d="M145.392 102.427H140.022V107.797H145.392V102.427Z" fill="black"/>
<path d="M156.134 102.427H150.763V107.797H156.134V102.427Z" fill="black"/>
<path d="M166.875 102.427H161.504V107.797H166.875V102.427Z" fill="black"/>
<path d="M16.4957 107.797H11.125V113.168H16.4957V107.797Z" fill="black"/>
<path d="M27.2371 107.797H21.8664V113.168H27.2371V107.797Z" fill="black"/>
<path d="M48.7198 107.797H43.3491V113.168H48.7198V107.797Z" fill="black"/>
<path d="M59.4612 107.797H54.0905V113.168H59.4612V107.797Z" fill="black"/>
<path d="M64.8319 107.797H59.4612V113.168H64.8319V107.797Z" fill="black"/>
<path d="M80.944 107.797H75.5733V113.168H80.944V107.797Z" fill="black"/>
<path d="M86.3147 107.797H80.944V113.168H86.3147V107.797Z" fill="black"/>
<path d="M91.6853 107.797H86.3147V113.168H91.6853V107.797Z" fill="black"/>
<path d="M97.056 107.797H91.6853V113.168H97.056V107.797Z" fill="black"/>
<path d="M102.427 107.797H97.056V113.168H102.427V107.797Z" fill="black"/>
<path d="M107.797 107.797H102.427V113.168H107.797V107.797Z" fill="black"/>
<path d="M113.168 107.797H107.797V113.168H113.168V107.797Z" fill="black"/>
<path d="M123.909 107.797H118.539V113.168H123.909V107.797Z" fill="black"/>
<path d="M156.134 107.797H150.763V113.168H156.134V107.797Z" fill="black"/>
<path d="M161.504 107.797H156.134V113.168H161.504V107.797Z" fill="black"/>
<path d="M166.875 107.797H161.504V113.168H166.875V107.797Z" fill="black"/>
<path d="M27.2371 113.168H21.8664V118.539H27.2371V113.168Z" fill="black"/>
<path d="M64.8319 113.168H59.4612V118.539H64.8319V113.168Z" fill="black"/>
<path d="M70.2026 113.168H64.8319V118.539H70.2026V113.168Z" fill="black"/>
<path d="M80.944 113.168H75.5733V118.539H80.944V113.168Z" fill="black"/>
<path d="M86.3147 113.168H80.944V118.539H86.3147V113.168Z" fill="black"/>
<path d="M91.6853 113.168H86.3147V118.539H91.6853V113.168Z" fill="black"/>
<path d="M97.056 113.168H91.6853V118.539H97.056V113.168Z" fill="black"/>
<path d="M102.427 113.168H97.056V118.539H102.427V113.168Z" fill="black"/>
<path d="M107.797 113.168H102.427V118.539H107.797V113.168Z" fill="black"/>
<path d="M113.168 113.168H107.797V118.539H113.168V113.168Z" fill="black"/>
<path d="M118.539 113.168H113.168V118.539H118.539V113.168Z" fill="black"/>
<path d="M140.022 113.168H134.651V118.539H140.022V113.168Z" fill="black"/>
<path d="M145.392 113.168H140.022V118.539H145.392V113.168Z" fill="black"/>
<path d="M150.763 113.168H145.392V118.539H150.763V113.168Z" fill="black"/>
<path d="M16.4957 118.539H11.125V123.909H16.4957V118.539Z" fill="black"/>
<path d="M21.8664 118.539H16.4957V123.909H21.8664V118.539Z" fill="black"/>
<path d="M48.7198 118.539H43.3491V123.909H48.7198V118.539Z" fill="black"/>
<path d="M54.0905 118.539H48.7198V123.909H54.0905V118.539Z" fill="black"/>
<path d="M59.4612 118.539H54.0905V123.909H59.4612V118.539Z" fill="black"/>
<path d="M64.8319 118.539H59.4612V123.909H64.8319V118.539Z" fill="black"/>
<path d="M80.944 118.539H75.5733V123.909H80.944V118.539Z" fill="black"/>
<path d="M86.3147 118.539H80.944V123.909H86.3147V118.539Z" fill="black"/>
<path d="M107.797 118.539H102.427V123.909H107.797V118.539Z" fill="black"/>
<path d="M113.168 118.539H107.797V123.909H113.168V118.539Z" fill="black"/>
<path d="M118.539 118.539H113.168V123.909H118.539V118.539Z" fill="black"/>
<path d="M123.909 118.539H118.539V123.909H123.909V118.539Z" fill="black"/>
<path d="M129.28 118.539H123.909V123.909H129.28V118.539Z" fill="black"/>
<path d="M134.651 118.539H129.28V123.909H134.651V118.539Z" fill="black"/>
<path d="M140.022 118.539H134.651V123.909H140.022V118.539Z" fill="black"/>
<path d="M145.392 118.539H140.022V123.909H145.392V118.539Z" fill="black"/>
<path d="M150.763 118.539H145.392V123.909H150.763V118.539Z" fill="black"/>
<path d="M161.504 118.539H156.134V123.909H161.504V118.539Z" fill="black"/>
<path d="M166.875 118.539H161.504V123.909H166.875V118.539Z" fill="black"/>
<path d="M70.2026 123.909H64.8319V129.28H70.2026V123.909Z" fill="black"/>
<path d="M75.5733 123.909H70.2026V129.28H75.5733V123.909Z" fill="black"/>
<path d="M113.168 123.909H107.797V129.28H113.168V123.909Z" fill="black"/>
<path d="M123.909 123.909H118.539V129.28H123.909V123.909Z" fill="black"/>
<path d="M145.392 123.909H140.022V129.28H145.392V123.909Z" fill="black"/>
<path d="M156.134 123.909H150.763V129.28H156.134V123.909Z" fill="black"/>
<path d="M166.875 123.909H161.504V129.28H166.875V123.909Z" fill="black"/>
<path d="M16.4957 129.28H11.125V134.651H16.4957V129.28Z" fill="black"/>
<path d="M21.8664 129.28H16.4957V134.651H21.8664V129.28Z" fill="black"/>
<path d="M27.2371 129.28H21.8664V134.651H27.2371V129.28Z" fill="black"/>
<path d="M32.6078 129.28H27.2371V134.651H32.6078V129.28Z" fill="black"/>
<path d="M37.9784 129.28H32.6078V134.651H37.9784V129.28Z" fill="black"/>
<path d="M43.3491 129.28H37.9784V134.651H43.3491V129.28Z" fill="black"/>
<path d="M48.7198 129.28H43.3491V134.651H48.7198V129.28Z" fill="black"/>
<path d="M64.8319 129.28H59.4612V134.651H64.8319V129.28Z" fill="black"/>
<path d="M70.2026 129.28H64.8319V134.651H70.2026V129.28Z" fill="black"/>
<path d="M80.944 129.28H75.5733V134.651H80.944V129.28Z" fill="black"/>
<path d="M86.3147 129.28H80.944V134.651H86.3147V129.28Z" fill="black"/>
<path d="M97.056 129.28H91.6853V134.651H97.056V129.28Z" fill="black"/>
<path d="M102.427 129.28H97.056V134.651H102.427V129.28Z" fill="black"/>
<path d="M107.797 129.28H102.427V134.651H107.797V129.28Z" fill="black"/>
<path d="M123.909 129.28H118.539V134.651H123.909V129.28Z" fill="black"/>
<path d="M134.651 129.28H129.28V134.651H134.651V129.28Z" fill="black"/>
<path d="M145.392 129.28H140.022V134.651H145.392V129.28Z" fill="black"/>
<path d="M166.875 129.28H161.504V134.651H166.875V129.28Z" fill="black"/>
<path d="M16.4957 134.651H11.125V140.022H16.4957V134.651Z" fill="black"/>
<path d="M48.7198 134.651H43.3491V140.022H48.7198V134.651Z" fill="black"/>
<path d="M59.4612 134.651H54.0905V140.022H59.4612V134.651Z" fill="black"/>
<path d="M64.8319 134.651H59.4612V140.022H64.8319V134.651Z" fill="black"/>
<path d="M70.2026 134.651H64.8319V140.022H70.2026V134.651Z" fill="black"/>
<path d="M80.944 134.651H75.5733V140.022H80.944V134.651Z" fill="black"/>
<path d="M97.056 134.651H91.6853V140.022H97.056V134.651Z" fill="black"/>
<path d="M102.427 134.651H97.056V140.022H102.427V134.651Z" fill="black"/>
<path d="M107.797 134.651H102.427V140.022H107.797V134.651Z" fill="black"/>
<path d="M113.168 134.651H107.797V140.022H113.168V134.651Z" fill="black"/>
<path d="M118.539 134.651H113.168V140.022H118.539V134.651Z" fill="black"/>
<path d="M123.909 134.651H118.539V140.022H123.909V134.651Z" fill="black"/>
<path d="M145.392 134.651H140.022V140.022H145.392V134.651Z" fill="black"/>
<path d="M161.504 134.651H156.134V140.022H161.504V134.651Z" fill="black"/>
<path d="M166.875 134.651H161.504V140.022H166.875V134.651Z" fill="black"/>
<path d="M16.4957 140.022H11.125V145.392H16.4957V140.022Z" fill="black"/>
<path d="M27.2371 140.022H21.8664V145.392H27.2371V140.022Z" fill="black"/>
<path d="M32.6078 140.022H27.2371V145.392H32.6078V140.022Z" fill="black"/>
<path d="M37.9784 140.022H32.6078V145.392H37.9784V140.022Z" fill="black"/>
<path d="M48.7198 140.022H43.3491V145.392H48.7198V140.022Z" fill="black"/>
<path d="M70.2026 140.022H64.8319V145.392H70.2026V140.022Z" fill="black"/>
<path d="M118.539 140.022H113.168V145.392H118.539V140.022Z" fill="black"/>
<path d="M123.909 140.022H118.539V145.392H123.909V140.022Z" fill="black"/>
<path d="M129.28 140.022H123.909V145.392H129.28V140.022Z" fill="black"/>
<path d="M134.651 140.022H129.28V145.392H134.651V140.022Z" fill="black"/>
<path d="M140.022 140.022H134.651V145.392H140.022V140.022Z" fill="black"/>
<path d="M145.392 140.022H140.022V145.392H145.392V140.022Z" fill="black"/>
<path d="M150.763 140.022H145.392V145.392H150.763V140.022Z" fill="black"/>
<path d="M156.134 140.022H150.763V145.392H156.134V140.022Z" fill="black"/>
<path d="M166.875 140.022H161.504V145.392H166.875V140.022Z" fill="black"/>
<path d="M16.4957 145.392H11.125V150.763H16.4957V145.392Z" fill="black"/>
<path d="M27.2371 145.392H21.8664V150.763H27.2371V145.392Z" fill="black"/>
<path d="M32.6078 145.392H27.2371V150.763H32.6078V145.392Z" fill="black"/>
<path d="M37.9784 145.392H32.6078V150.763H37.9784V145.392Z" fill="black"/>
<path d="M48.7198 145.392H43.3491V150.763H48.7198V145.392Z" fill="black"/>
<path d="M70.2026 145.392H64.8319V150.763H70.2026V145.392Z" fill="black"/>
<path d="M75.5733 145.392H70.2026V150.763H75.5733V145.392Z" fill="black"/>
<path d="M80.944 145.392H75.5733V150.763H80.944V145.392Z" fill="black"/>
<path d="M91.6853 145.392H86.3147V150.763H91.6853V145.392Z" fill="black"/>
<path d="M97.056 145.392H91.6853V150.763H97.056V145.392Z" fill="black"/>
<path d="M102.427 145.392H97.056V150.763H102.427V145.392Z" fill="black"/>
<path d="M107.797 145.392H102.427V150.763H107.797V145.392Z" fill="black"/>
<path d="M113.168 145.392H107.797V150.763H113.168V145.392Z" fill="black"/>
<path d="M134.651 145.392H129.28V150.763H134.651V145.392Z" fill="black"/>
<path d="M140.022 145.392H134.651V150.763H140.022V145.392Z" fill="black"/>
<path d="M145.392 145.392H140.022V150.763H145.392V145.392Z" fill="black"/>
<path d="M150.763 145.392H145.392V150.763H150.763V145.392Z" fill="black"/>
<path d="M156.134 145.392H150.763V150.763H156.134V145.392Z" fill="black"/>
<path d="M166.875 145.392H161.504V150.763H166.875V145.392Z" fill="black"/>
<path d="M16.4957 150.763H11.125V156.134H16.4957V150.763Z" fill="black"/>
<path d="M27.2371 150.763H21.8664V156.134H27.2371V150.763Z" fill="black"/>
<path d="M32.6078 150.763H27.2371V156.134H32.6078V150.763Z" fill="black"/>
<path d="M37.9784 150.763H32.6078V156.134H37.9784V150.763Z" fill="black"/>
<path d="M48.7198 150.763H43.3491V156.134H48.7198V150.763Z" fill="black"/>
<path d="M59.4612 150.763H54.0905V156.134H59.4612V150.763Z" fill="black"/>
<path d="M70.2026 150.763H64.8319V156.134H70.2026V150.763Z" fill="black"/>
<path d="M86.3147 150.763H80.944V156.134H86.3147V150.763Z" fill="black"/>
<path d="M91.6853 150.763H86.3147V156.134H91.6853V150.763Z" fill="black"/>
<path d="M97.056 150.763H91.6853V156.134H97.056V150.763Z" fill="black"/>
<path d="M102.427 150.763H97.056V156.134H102.427V150.763Z" fill="black"/>
<path d="M118.539 150.763H113.168V156.134H118.539V150.763Z" fill="black"/>
<path d="M134.651 150.763H129.28V156.134H134.651V150.763Z" fill="black"/>
<path d="M140.022 150.763H134.651V156.134H140.022V150.763Z" fill="black"/>
<path d="M145.392 150.763H140.022V156.134H145.392V150.763Z" fill="black"/>
<path d="M161.504 150.763H156.134V156.134H161.504V150.763Z" fill="black"/>
<path d="M16.4957 156.134H11.125V161.504H16.4957V156.134Z" fill="black"/>
<path d="M48.7198 156.134H43.3491V161.504H48.7198V156.134Z" fill="black"/>
<path d="M64.8319 156.134H59.4612V161.504H64.8319V156.134Z" fill="black"/>
<path d="M75.5733 156.134H70.2026V161.504H75.5733V156.134Z" fill="black"/>
<path d="M86.3147 156.134H80.944V161.504H86.3147V156.134Z" fill="black"/>
<path d="M91.6853 156.134H86.3147V161.504H91.6853V156.134Z" fill="black"/>
<path d="M97.056 156.134H91.6853V161.504H97.056V156.134Z" fill="black"/>
<path d="M102.427 156.134H97.056V161.504H102.427V156.134Z" fill="black"/>
<path d="M107.797 156.134H102.427V161.504H107.797V156.134Z" fill="black"/>
<path d="M113.168 156.134H107.797V161.504H113.168V156.134Z" fill="black"/>
<path d="M118.539 156.134H113.168V161.504H118.539V156.134Z" fill="black"/>
<path d="M140.022 156.134H134.651V161.504H140.022V156.134Z" fill="black"/>
<path d="M145.392 156.134H140.022V161.504H145.392V156.134Z" fill="black"/>
<path d="M150.763 156.134H145.392V161.504H150.763V156.134Z" fill="black"/>
<path d="M156.134 156.134H150.763V161.504H156.134V156.134Z" fill="black"/>
<path d="M16.4957 161.504H11.125V166.875H16.4957V161.504Z" fill="black"/>
<path d="M21.8664 161.504H16.4957V166.875H21.8664V161.504Z" fill="black"/>
<path d="M27.2371 161.504H21.8664V166.875H27.2371V161.504Z" fill="black"/>
<path d="M32.6078 161.504H27.2371V166.875H32.6078V161.504Z" fill="black"/>
<path d="M37.9784 161.504H32.6078V166.875H37.9784V161.504Z" fill="black"/>
<path d="M43.3491 161.504H37.9784V166.875H43.3491V161.504Z" fill="black"/>
<path d="M48.7198 161.504H43.3491V166.875H48.7198V161.504Z" fill="black"/>
<path d="M59.4612 161.504H54.0905V166.875H59.4612V161.504Z" fill="black"/>
<path d="M64.8319 161.504H59.4612V166.875H64.8319V161.504Z" fill="black"/>
<path d="M70.2026 161.504H64.8319V166.875H70.2026V161.504Z" fill="black"/>
<path d="M75.5733 161.504H70.2026V166.875H75.5733V161.504Z" fill="black"/>
<path d="M86.3147 161.504H80.944V166.875H86.3147V161.504Z" fill="black"/>
<path d="M97.056 161.504H91.6853V166.875H97.056V161.504Z" fill="black"/>
<path d="M107.797 161.504H102.427V166.875H107.797V161.504Z" fill="black"/>
<path d="M118.539 161.504H113.168V166.875H118.539V161.504Z" fill="black"/>
<path d="M129.28 161.504H123.909V166.875H129.28V161.504Z" fill="black"/>
<path d="M140.022 161.504H134.651V166.875H140.022V161.504Z" fill="black"/>
<path d="M156.134 161.504H150.763V166.875H156.134V161.504Z" fill="black"/>
<path d="M166.875 161.504H161.504V166.875H166.875V161.504Z" fill="black"/>
</g>
<rect x="0.75" y="0.75" width="176.5" height="176.5" rx="9.25" stroke="#CF5763" stroke-width="1.5"/>
<defs>
<clipPath id="clip0_357_3297">
<rect width="178" height="178" rx="10" fill="white"/>
</clipPath>
</defs>
</svg>
