<svg width="19" height="18" viewBox="0 0 19 18" fill="none" xmlns="http://www.w3.org/2000/svg">
<path d="M16.25 10.5C16.0511 10.5 15.8603 10.579 15.7197 10.7197C15.579 10.8603 15.5 11.0511 15.5 11.25V14.25C15.5 14.4489 15.421 14.6397 15.2803 14.7803C15.1397 14.921 14.9489 15 14.75 15H4.25C4.05109 15 3.86032 14.921 3.71967 14.7803C3.57902 14.6397 3.5 14.4489 3.5 14.25V11.25C3.5 11.0511 3.42098 10.8603 3.28033 10.7197C3.13968 10.579 2.94891 10.5 2.75 10.5C2.55109 10.5 2.36032 10.579 2.21967 10.7197C2.07902 10.8603 2 11.0511 2 11.25V14.25C2 14.8467 2.23705 15.419 2.65901 15.841C3.08097 16.2629 3.65326 16.5 4.25 16.5H14.75C15.3467 16.5 15.919 16.2629 16.341 15.841C16.7629 15.419 17 14.8467 17 14.25V11.25C17 11.0511 16.921 10.8603 16.7803 10.7197C16.6397 10.579 16.4489 10.5 16.25 10.5ZM8.9675 11.7825C9.03883 11.8508 9.12294 11.9043 9.215 11.94C9.30478 11.9797 9.40185 12.0002 9.5 12.0002C9.59815 12.0002 9.69522 11.9797 9.785 11.94C9.87706 11.9043 9.96117 11.8508 10.0325 11.7825L13.0325 8.7825C13.1737 8.64127 13.2531 8.44973 13.2531 8.25C13.2531 8.05027 13.1737 7.85873 13.0325 7.7175C12.8913 7.57627 12.6997 7.49693 12.5 7.49693C12.3003 7.49693 12.1087 7.57627 11.9675 7.7175L10.25 9.4425V2.25C10.25 2.05109 10.171 1.86032 10.0303 1.71967C9.88968 1.57902 9.69891 1.5 9.5 1.5C9.30109 1.5 9.11032 1.57902 8.96967 1.71967C8.82902 1.86032 8.75 2.05109 8.75 2.25V9.4425L7.0325 7.7175C6.96257 7.64757 6.87955 7.5921 6.78819 7.55426C6.69682 7.51641 6.59889 7.49693 6.5 7.49693C6.40111 7.49693 6.30318 7.51641 6.21181 7.55426C6.12045 7.5921 6.03743 7.64757 5.9675 7.7175C5.89757 7.78743 5.8421 7.87045 5.80426 7.96181C5.76641 8.05318 5.74693 8.15111 5.74693 8.25C5.74693 8.34889 5.76641 8.44682 5.80426 8.53819C5.8421 8.62955 5.89757 8.71257 5.9675 8.7825L8.9675 11.7825Z" fill="white"/>
</svg>
