<svg width="29" height="45" viewBox="0 0 29 45" fill="none" xmlns="http://www.w3.org/2000/svg">
<g clip-path="url(#clip0_160_7214)">
<path d="M8.45261 19.5738V16.5458C8.45261 15.0318 9.63013 13.8422 11.1288 13.8422H16.9094C18.408 13.8422 19.5855 15.0318 19.5855 16.5458V19.5738H22.2617V16.5458C22.2617 13.5178 19.9067 11.1387 16.9094 11.1387H11.1288C8.13147 11.1387 5.77643 13.5178 5.77643 16.5458V19.5738H8.45261Z" fill="url(#paint0_linear_160_7214)"/>
<path d="M14.1261 44.3383C21.8709 44.3383 28.1493 37.9957 28.1493 30.1716C28.1493 22.3475 21.8709 16.0049 14.1261 16.0049C6.38131 16.0049 0.102905 22.3475 0.102905 30.1716C0.102905 37.9957 6.38131 44.3383 14.1261 44.3383Z" fill="url(#paint1_linear_160_7214)"/>
<path d="M14.1261 43.5811C21.4571 43.5811 27.4 37.5774 27.4 30.1714C27.4 22.7655 21.4571 16.7617 14.1261 16.7617C6.79515 16.7617 0.852234 22.7655 0.852234 30.1714C0.852234 37.5774 6.79515 43.5811 14.1261 43.5811Z" fill="url(#paint2_linear_160_7214)"/>
<path d="M14.1261 41.6353C20.3929 41.6353 25.4732 36.503 25.4732 30.1721C25.4732 23.8412 20.3929 18.709 14.1261 18.709C7.85935 18.709 2.77911 23.8412 2.77911 30.1721C2.77911 36.503 7.85935 41.6353 14.1261 41.6353Z" fill="url(#paint3_linear_160_7214)"/>
<path opacity="0.45" d="M3.52845 30.9291C3.52845 24.6568 8.55967 19.466 14.8755 19.466C17.7658 19.466 20.4419 20.6556 22.4758 22.494C20.4419 20.223 17.4446 18.709 14.1261 18.709C7.91739 18.709 2.77911 23.7917 2.77911 30.1721C2.77911 33.5246 4.17073 36.5526 6.52577 38.6073C4.59892 36.6607 3.52845 33.9571 3.52845 30.9291Z" fill="#6C0D0F"/>
<path opacity="0.67" d="M21.2983 21.4121C22.904 23.3587 24.4027 26.4948 24.4027 29.1984C24.4027 35.4707 19.3715 40.6615 13.0557 40.6615C10.3795 40.6615 7.27512 39.1475 5.34827 37.5254C7.38217 40.1208 10.5936 41.743 14.1262 41.743C20.3349 41.743 25.4732 36.6603 25.4732 30.2798C25.3661 26.603 23.7604 23.4668 21.2983 21.4121Z" fill="#F44B16"/>
<g opacity="0.67">
<path d="M16.2671 23.791V36.66H12.9486V26.4946H10.4865V23.791H16.2671Z" fill="#CC3911"/>
</g>
<path d="M15.6248 0L10.5936 13.8423C10.3795 14.5993 10.8077 15.3563 11.664 15.3563H12.7345L18.1939 0H15.6248Z" fill="#1268C6"/>
<path d="M18.194 0L12.6275 15.2481H15.1966L20.8701 0H18.194Z" fill="#6C0D0F"/>
<path d="M20.8701 0L16.5882 11.6794L15.3036 15.2481H17.1235C17.3375 15.2481 17.6587 15.14 17.7657 15.0319C17.8728 14.9237 17.9798 14.7074 18.0869 14.5993L23.4392 0L20.8701 0Z" fill="#EB3723"/>
<path opacity="0.69" d="M19.4785 10.8143L18.0869 14.5993C17.9799 14.8156 17.8728 14.9237 17.7658 15.0319C17.5517 15.2481 17.3376 15.2481 17.1235 15.2481H11.557C10.8077 15.2481 10.2724 14.4911 10.4865 13.7341L15.5178 0L19.4785 10.8143Z" fill="url(#paint4_linear_160_7214)"/>
<path d="M12.3063 0H9.63013L15.1966 15.2481H17.0164C17.2305 15.2481 17.5516 15.14 17.6587 15.0319L16.4812 11.6794L12.3063 0Z" fill="#1268C6"/>
<path d="M7.06104 0L12.6275 15.2481H15.3037L9.63017 0H7.06104Z" fill="#6C0D0F"/>
<path d="M4.38483 0L9.7372 14.5993C9.84424 15.0319 10.2724 15.3563 10.8077 15.3563H12.6275L7.06101 0H4.38483Z" fill="#EB3723"/>
</g>
<defs>
<linearGradient id="paint0_linear_160_7214" x1="5.84387" y1="15.3593" x2="22.3277" y2="15.3593" gradientUnits="userSpaceOnUse">
<stop stop-color="#F78614"/>
<stop offset="1" stop-color="#FFBE06"/>
</linearGradient>
<linearGradient id="paint1_linear_160_7214" x1="20.7155" y1="36.9071" x2="5.91099" y2="22.2525" gradientUnits="userSpaceOnUse">
<stop stop-color="#F78614"/>
<stop offset="1" stop-color="#FFBE06"/>
</linearGradient>
<linearGradient id="paint2_linear_160_7214" x1="6.44118" y1="22.4865" x2="24.3587" y2="40.2225" gradientUnits="userSpaceOnUse">
<stop stop-color="#F78614"/>
<stop offset="1" stop-color="#FFBE06"/>
</linearGradient>
<linearGradient id="paint3_linear_160_7214" x1="27.8402" y1="44.1053" x2="0.197702" y2="16.7427" gradientUnits="userSpaceOnUse">
<stop stop-color="#F78614"/>
<stop offset="1" stop-color="#FFBE06"/>
</linearGradient>
<linearGradient id="paint4_linear_160_7214" x1="17.2518" y1="7.28169" x2="14.6189" y2="8.54752" gradientUnits="userSpaceOnUse">
<stop stop-color="white"/>
<stop offset="1" stop-color="#121E3D"/>
</linearGradient>
<clipPath id="clip0_160_7214">
<rect width="27.9394" height="44.3386" fill="white" transform="translate(0.102905)"/>
</clipPath>
</defs>
</svg>
