<svg width="29" height="45" viewBox="0 0 29 45" fill="none" xmlns="http://www.w3.org/2000/svg">
<g clip-path="url(#clip0_160_7276)">
<path d="M8.81641 19.7286V16.7313C8.81641 15.2326 9.99393 14.0551 11.4926 14.0551H17.2732C18.7718 14.0551 19.9493 15.2326 19.9493 16.7313V19.7286H22.6255V16.7313C22.6255 13.7339 20.2705 11.3789 17.2732 11.3789H11.4926C8.49527 11.3789 6.14023 13.7339 6.14023 16.7313V19.7286H8.81641Z" fill="url(#paint0_linear_160_7276)"/>
<path d="M14.4899 44.2417C22.2347 44.2417 28.5131 37.9633 28.5131 30.2185C28.5131 22.4737 22.2347 16.1953 14.4899 16.1953C6.74511 16.1953 0.466705 22.4737 0.466705 30.2185C0.466705 37.9633 6.74511 44.2417 14.4899 44.2417Z" fill="url(#paint1_linear_160_7276)"/>
<path d="M14.4899 43.4931C21.8209 43.4931 27.7638 37.5502 27.7638 30.2192C27.7638 22.8882 21.8209 16.9453 14.4899 16.9453C7.15895 16.9453 1.21603 22.8882 1.21603 30.2192C1.21603 37.5502 7.15895 43.4931 14.4899 43.4931Z" fill="url(#paint2_linear_160_7276)"/>
<path d="M14.4899 41.5661C20.7567 41.5661 25.8369 36.4859 25.8369 30.2191C25.8369 23.9523 20.7567 18.8721 14.4899 18.8721C8.22312 18.8721 3.14288 23.9523 3.14288 30.2191C3.14288 36.4859 8.22312 41.5661 14.4899 41.5661Z" fill="url(#paint3_linear_160_7276)"/>
<path opacity="0.45" d="M3.89222 30.9684C3.89222 24.7597 8.92344 19.6214 15.2392 19.6214C18.1295 19.6214 20.8057 20.7989 22.8396 22.6187C20.8057 20.3707 17.8084 18.8721 14.4899 18.8721C8.28116 18.8721 3.14288 23.9033 3.14288 30.2191C3.14288 33.5376 4.5345 36.5349 6.88954 38.5688C4.96269 36.6419 3.89222 33.9658 3.89222 30.9684Z" fill="#6C0D0F"/>
<path opacity="0.67" d="M21.6621 21.5479C23.2678 23.4747 24.7664 26.5791 24.7664 29.2553C24.7664 35.464 19.7352 40.6023 13.4194 40.6023C10.7432 40.6023 7.63886 39.1036 5.71201 37.4979C7.74591 40.067 10.9573 41.6728 14.4899 41.6728C20.6986 41.6728 25.8369 36.6415 25.8369 30.3257C25.7299 26.6861 24.1241 23.5818 21.6621 21.5479Z" fill="#93908F"/>
<g opacity="0.67">
<path d="M15.0251 27.0081C15.0251 26.3659 14.4899 26.0447 13.6335 26.0447C12.6701 26.0447 11.4926 26.58 10.4221 27.5434L9.24457 25.2954C10.7432 24.2249 12.3489 23.4756 14.0617 23.4756C16.4167 23.4756 18.1295 24.7602 18.1295 26.58C18.1295 27.8645 17.1661 29.1491 15.8815 30.5407L13.4194 33.0028H18.6647V35.4649H9.67276V33.431L13.9547 29.042C14.5969 28.2927 15.0251 27.5434 15.0251 27.0081Z" fill="#8E8A88"/>
</g>
<path d="M15.9886 0.352539L10.9574 14.0546C10.7433 14.8039 11.1715 15.5533 12.0278 15.5533H13.0983L18.5577 0.352539H15.9886Z" fill="#1268C6"/>
<path d="M18.5577 0.352539L12.9912 15.4462H15.5604L21.2339 0.352539H18.5577Z" fill="#6C0D0F"/>
<path d="M21.2339 0.352539L16.952 11.9137L15.6674 15.4462H17.4872C17.7013 15.4462 18.0225 15.3392 18.1295 15.2321C18.2366 15.1251 18.3436 14.911 18.4506 14.8039L23.803 0.352539L21.2339 0.352539Z" fill="#EB3723"/>
<path opacity="0.69" d="M19.8423 11.0573L18.4507 14.8039C18.3436 15.018 18.2366 15.1251 18.1295 15.2321C17.9154 15.4462 17.7013 15.4462 17.4872 15.4462H11.9208C11.1714 15.4462 10.6362 14.6969 10.8503 13.9476L15.8815 0.352539L19.8423 11.0573Z" fill="url(#paint4_linear_160_7276)"/>
<path d="M12.6701 0.352539H9.99393L15.5604 15.4462H17.3802C17.5943 15.4462 17.9154 15.3392 18.0225 15.2321L16.845 11.9137L12.6701 0.352539Z" fill="#1268C6"/>
<path d="M7.42477 0.352539L12.9912 15.4462H15.6674L9.99391 0.352539H7.42477Z" fill="#6C0D0F"/>
<path d="M4.7486 0.352539L10.101 14.8039C10.208 15.2321 10.6362 15.5533 11.1714 15.5533H12.9912L7.42478 0.352539H4.7486Z" fill="#EB3723"/>
</g>
<defs>
<linearGradient id="paint0_linear_160_7276" x1="6.20767" y1="15.5569" x2="22.6915" y2="15.5569" gradientUnits="userSpaceOnUse">
<stop stop-color="#BBBBBB"/>
<stop offset="1" stop-color="white"/>
</linearGradient>
<linearGradient id="paint1_linear_160_7276" x1="21.0793" y1="36.8859" x2="6.424" y2="22.2305" gradientUnits="userSpaceOnUse">
<stop stop-color="#BBBBBB"/>
<stop offset="1" stop-color="white"/>
</linearGradient>
<linearGradient id="paint2_linear_160_7276" x1="6.80498" y1="22.6122" x2="24.5419" y2="40.3491" gradientUnits="userSpaceOnUse">
<stop stop-color="#BBBBBB"/>
<stop offset="1" stop-color="white"/>
</linearGradient>
<linearGradient id="paint3_linear_160_7276" x1="28.2041" y1="44.0111" x2="0.839959" y2="16.6471" gradientUnits="userSpaceOnUse">
<stop stop-color="#BBBBBB"/>
<stop offset="1" stop-color="white"/>
</linearGradient>
<linearGradient id="paint4_linear_160_7276" x1="17.6156" y1="7.56057" x2="14.9928" y2="8.83444" gradientUnits="userSpaceOnUse">
<stop stop-color="white"/>
<stop offset="1" stop-color="#121E3D"/>
</linearGradient>
<clipPath id="clip0_160_7276">
<rect width="27.9394" height="43.8894" fill="white" transform="translate(0.466705 0.352539)"/>
</clipPath>
</defs>
</svg>
