<svg width="29" height="45" viewBox="0 0 29 45" fill="none" xmlns="http://www.w3.org/2000/svg">
<g clip-path="url(#clip0_160_7341)">
<path d="M9.17496 19.7735V16.7762C9.17496 15.2775 10.3525 14.1 11.8511 14.1H17.6317C19.1304 14.1 20.3079 15.2775 20.3079 16.7762V19.7735H22.9841V16.7762C22.9841 13.7789 20.629 11.4238 17.6317 11.4238H11.8511C8.85382 11.4238 6.49878 13.7789 6.49878 16.7762V19.7735H9.17496Z" fill="url(#paint0_linear_160_7341)"/>
<path d="M14.8485 44.2867C22.5933 44.2867 28.8717 38.0082 28.8717 30.2634C28.8717 22.5186 22.5933 16.2402 14.8485 16.2402C7.10366 16.2402 0.825256 22.5186 0.825256 30.2634C0.825256 38.0082 7.10366 44.2867 14.8485 44.2867Z" fill="url(#paint1_linear_160_7341)"/>
<path d="M14.8485 43.538C22.1794 43.538 28.1223 37.5951 28.1223 30.2641C28.1223 22.9332 22.1794 16.9902 14.8485 16.9902C7.5175 16.9902 1.57458 22.9332 1.57458 30.2641C1.57458 37.5951 7.5175 43.538 14.8485 43.538Z" fill="url(#paint2_linear_160_7341)"/>
<path d="M14.8485 41.611C21.1153 41.611 26.1955 36.5308 26.1955 30.264C26.1955 23.9972 21.1153 18.917 14.8485 18.917C8.5817 18.917 3.50146 23.9972 3.50146 30.264C3.50146 36.5308 8.5817 41.611 14.8485 41.611Z" fill="url(#paint3_linear_160_7341)"/>
<path opacity="0.45" d="M4.2508 31.0133C4.2508 24.8046 9.28202 19.6663 15.5978 19.6663C18.4881 19.6663 21.1643 20.8438 23.1982 22.6637C21.1643 20.4157 18.1669 18.917 14.8485 18.917C8.63974 18.917 3.50146 23.9482 3.50146 30.264C3.50146 33.5825 4.89308 36.5798 7.24812 38.6137C5.32127 36.6869 4.2508 34.0107 4.2508 31.0133Z" fill="#6C0D0F"/>
<path opacity="0.67" d="M22.0207 21.5928C23.6264 23.5196 25.125 26.624 25.125 29.3002C25.125 35.5089 20.0938 40.6472 13.778 40.6472C11.1018 40.6472 7.99747 39.1485 6.07062 37.5428C8.10452 40.112 11.3159 41.7177 14.8485 41.7177C21.0572 41.7177 26.1955 36.6865 26.1955 30.3707C26.0885 26.731 24.4828 23.6267 22.0207 21.5928Z" fill="#933116"/>
<path d="M16.3471 0.397461L11.3159 14.0995C11.1018 14.8489 11.53 15.5982 12.3864 15.5982H13.4569L18.9163 0.397461H16.3471Z" fill="#1268C6"/>
<path d="M18.9163 0.397461L13.3499 15.4911H15.919L21.5925 0.397461H18.9163Z" fill="#6C0D0F"/>
<path d="M21.5925 0.397461L17.3106 11.9586L16.026 15.4911H17.8458C18.0599 15.4911 18.381 15.3841 18.4881 15.277C18.5951 15.17 18.7022 14.9559 18.8092 14.8489L24.1616 0.397461L21.5925 0.397461Z" fill="#EB3723"/>
<path opacity="0.69" d="M20.2009 11.1022L18.8092 14.8489C18.7022 15.063 18.5952 15.17 18.4881 15.277C18.274 15.4911 18.0599 15.4911 17.8458 15.4911H12.2794C11.53 15.4911 10.9948 14.7418 11.2089 13.9925L16.2401 0.397461L20.2009 11.1022Z" fill="url(#paint4_linear_160_7341)"/>
<path d="M13.0287 0.397461H10.3525L15.9189 15.4911H17.7387C17.9528 15.4911 18.274 15.3841 18.381 15.277L17.2035 11.9586L13.0287 0.397461Z" fill="#1268C6"/>
<path d="M7.78339 0.397461L13.3498 15.4911H16.026L10.3525 0.397461H7.78339Z" fill="#6C0D0F"/>
<path d="M5.10718 0.397461L10.4595 14.8489C10.5666 15.2771 10.9948 15.5982 11.53 15.5982H13.3498L7.78336 0.397461H5.10718Z" fill="#EB3723"/>
<path d="M19.2374 32.1901C19.2374 34.4381 17.4176 36.0438 14.4203 36.0438C12.7075 36.0438 10.8877 35.5085 9.81726 34.6522L11.1018 32.2971C12.0653 33.2605 13.1357 33.7958 14.2062 33.7958C15.4908 33.7958 16.2401 33.2605 16.2401 32.2971C16.2401 31.3337 15.4908 30.9055 14.2062 30.9055H12.1723V29.2998L14.9555 26.6236H10.3525V24.2686H18.5951V26.0884L15.3837 29.0857L15.919 29.1927C17.8458 29.1927 19.2374 30.3703 19.2374 32.1901Z" fill="#6D2B07"/>
</g>
<defs>
<linearGradient id="paint0_linear_160_7341" x1="6.56622" y1="15.6017" x2="23.05" y2="15.6017" gradientUnits="userSpaceOnUse">
<stop stop-color="#91410D"/>
<stop offset="1" stop-color="#CC8139"/>
</linearGradient>
<linearGradient id="paint1_linear_160_7341" x1="21.4379" y1="36.9307" x2="6.78255" y2="22.2754" gradientUnits="userSpaceOnUse">
<stop stop-color="#91410D"/>
<stop offset="1" stop-color="#CC8139"/>
</linearGradient>
<linearGradient id="paint2_linear_160_7341" x1="7.16353" y1="22.657" x2="24.9004" y2="40.3939" gradientUnits="userSpaceOnUse">
<stop stop-color="#91410D"/>
<stop offset="1" stop-color="#CC8139"/>
</linearGradient>
<linearGradient id="paint3_linear_160_7341" x1="28.5625" y1="44.0559" x2="1.19865" y2="16.692" gradientUnits="userSpaceOnUse">
<stop stop-color="#E1B69A"/>
<stop offset="1" stop-color="#CC8139"/>
</linearGradient>
<linearGradient id="paint4_linear_160_7341" x1="17.9742" y1="7.60539" x2="15.3514" y2="8.87925" gradientUnits="userSpaceOnUse">
<stop stop-color="white"/>
<stop offset="1" stop-color="#121E3D"/>
</linearGradient>
<clipPath id="clip0_160_7341">
<rect width="27.9394" height="43.8894" fill="white" transform="translate(0.825256 0.397461)"/>
</clipPath>
</defs>
</svg>
