<svg width="24" height="24" viewBox="0 0 24 24" fill="none" xmlns="http://www.w3.org/2000/svg">
<path d="M22.44 12.4575L20.19 7.2075C20.1326 7.07194 20.0365 6.95627 19.9138 6.87492C19.7911 6.79356 19.6472 6.75012 19.5 6.75H17.25V5.25C17.25 5.05109 17.171 4.86032 17.0303 4.71967C16.8897 4.57902 16.6989 4.5 16.5 4.5H2.25C2.05109 4.5 1.86032 4.57902 1.71967 4.71967C1.57902 4.86032 1.5 5.05109 1.5 5.25V18C1.5 18.1989 1.57902 18.3897 1.71967 18.5303C1.86032 18.671 2.05109 18.75 2.25 18.75H3.855C4.02771 19.3855 4.40475 19.9466 4.92795 20.3465C5.45114 20.7465 6.09142 20.9632 6.75 20.9632C7.40858 20.9632 8.04886 20.7465 8.57205 20.3465C9.09525 19.9466 9.47229 19.3855 9.645 18.75H14.355C14.5277 19.3855 14.9048 19.9466 15.4279 20.3465C15.9511 20.7465 16.5914 20.9632 17.25 20.9632C17.9086 20.9632 18.5489 20.7465 19.0721 20.3465C19.5952 19.9466 19.9723 19.3855 20.145 18.75H21.75C21.9489 18.75 22.1397 18.671 22.2803 18.5303C22.421 18.3897 22.5 18.1989 22.5 18V12.75C22.4998 12.6495 22.4794 12.55 22.44 12.4575ZM17.25 8.25H19.005L20.61 12H17.25V8.25ZM6.75 19.5C6.45333 19.5 6.16332 19.412 5.91664 19.2472C5.66997 19.0824 5.47771 18.8481 5.36418 18.574C5.25065 18.2999 5.22094 17.9983 5.27882 17.7074C5.3367 17.4164 5.47956 17.1491 5.68934 16.9393C5.89912 16.7296 6.16639 16.5867 6.45736 16.5288C6.74834 16.4709 7.04994 16.5006 7.32402 16.6142C7.59811 16.7277 7.83238 16.92 7.9972 17.1666C8.16203 17.4133 8.25 17.7033 8.25 18C8.25 18.3978 8.09196 18.7794 7.81066 19.0607C7.52936 19.342 7.14782 19.5 6.75 19.5ZM14.355 17.25H9.645C9.47229 16.6145 9.09525 16.0534 8.57205 15.6534C8.04886 15.2535 7.40858 15.0367 6.75 15.0367C6.09142 15.0367 5.45114 15.2535 4.92795 15.6534C4.40475 16.0534 4.02771 16.6145 3.855 17.25H3V6H15.75V15.42C15.4085 15.6182 15.1095 15.8819 14.8701 16.1959C14.6307 16.51 14.4556 16.8682 14.355 17.25ZM17.25 19.5C16.9533 19.5 16.6633 19.412 16.4166 19.2472C16.17 19.0824 15.9777 18.8481 15.8642 18.574C15.7506 18.2999 15.7209 17.9983 15.7788 17.7074C15.8367 17.4164 15.9796 17.1491 16.1893 16.9393C16.3991 16.7296 16.6664 16.5867 16.9574 16.5288C17.2483 16.4709 17.5499 16.5006 17.824 16.6142C18.0981 16.7277 18.3324 16.92 18.4972 17.1666C18.662 17.4133 18.75 17.7033 18.75 18C18.75 18.3978 18.592 18.7794 18.3107 19.0607C18.0294 19.342 17.6478 19.5 17.25 19.5ZM21 17.25H20.145C19.9791 16.6076 19.6051 16.0384 19.0812 15.6313C18.5574 15.2242 17.9134 15.0022 17.25 15V13.5H21V17.25Z" fill="#CF5763"/>
</svg>
