<svg width="24" height="24" viewBox="0 0 24 24" fill="none" xmlns="http://www.w3.org/2000/svg">
<path fill-rule="evenodd" clip-rule="evenodd" d="M10.7708 1C8.36609 1 6.41667 2.94943 6.41667 5.35417C6.41667 7.75891 8.36609 9.70833 10.7708 9.70833C13.1756 9.70833 15.125 7.75891 15.125 5.35417C15.125 2.94943 13.1756 1 10.7708 1ZM7.79167 5.35417C7.79167 3.70882 9.12548 2.375 10.7708 2.375C12.4162 2.375 13.75 3.70882 13.75 5.35417C13.75 6.99951 12.4162 8.33333 10.7708 8.33333C9.12548 8.33333 7.79167 6.99951 7.79167 5.35417Z" fill="#999999"/>
<path d="M16.2708 2.83333C15.8911 2.83333 15.5833 3.14114 15.5833 3.52083C15.5833 3.90053 15.8911 4.20833 16.2708 4.20833C17.5326 4.20833 18.3333 5.03859 18.3333 5.8125C18.3333 6.58641 17.5326 7.41667 16.2708 7.41667C15.8911 7.41667 15.5833 7.72447 15.5833 8.10417C15.5833 8.48386 15.8911 8.79167 16.2708 8.79167C18.0466 8.79167 19.7083 7.56989 19.7083 5.8125C19.7083 4.05511 18.0466 2.83333 16.2708 2.83333Z" fill="#999999"/>
<path d="M5.95833 3.52083C5.95833 3.14114 5.65053 2.83333 5.27083 2.83333C3.49505 2.83333 1.83333 4.05511 1.83333 5.8125C1.83333 7.56989 3.49505 8.79167 5.27083 8.79167C5.65053 8.79167 5.95833 8.48386 5.95833 8.10417C5.95833 7.72447 5.65053 7.41667 5.27083 7.41667C4.00905 7.41667 3.20833 6.58641 3.20833 5.8125C3.20833 5.03859 4.00905 4.20833 5.27083 4.20833C5.65053 4.20833 5.95833 3.90053 5.95833 3.52083Z" fill="#999999"/>
<path fill-rule="evenodd" clip-rule="evenodd" d="M10.7708 11.0833C9.13525 11.0833 7.62341 11.5241 6.50039 12.2727C5.38217 13.0182 4.58333 14.1236 4.58333 15.4375C4.58333 16.7514 5.38217 17.8568 6.50039 18.6023C7.62341 19.3509 9.13525 19.7917 10.7708 19.7917C12.4064 19.7917 13.9183 19.3509 15.0413 18.6023C16.1595 17.8568 16.9583 16.7514 16.9583 15.4375C16.9583 14.1236 16.1595 13.0182 15.0413 12.2727C13.9183 11.5241 12.4064 11.0833 10.7708 11.0833ZM5.95833 15.4375C5.95833 14.7264 6.39071 13.9984 7.2631 13.4168C8.13069 12.8384 9.36885 12.4583 10.7708 12.4583C12.1728 12.4583 13.411 12.8384 14.2786 13.4168C15.151 13.9984 15.5833 14.7264 15.5833 15.4375C15.5833 16.1486 15.151 16.8766 14.2786 17.4582C13.411 18.0366 12.1728 18.4167 10.7708 18.4167C9.36885 18.4167 8.13069 18.0366 7.2631 17.4582C6.39071 16.8766 5.95833 16.1486 5.95833 15.4375Z" fill="#999999"/>
<path d="M17.4326 12.5402C17.514 12.1694 17.8805 11.9346 18.2514 12.016C19.1332 12.2093 19.9277 12.5586 20.5176 13.0413C21.1069 13.5235 21.5417 14.1865 21.5417 14.9792C21.5417 15.7719 21.1069 16.4348 20.5176 16.9171C19.9277 17.3998 19.1332 17.749 18.2514 17.9424C17.8805 18.0237 17.514 17.789 17.4326 17.4181C17.3513 17.0472 17.586 16.6806 17.9569 16.5993C18.6832 16.44 19.2637 16.1664 19.6468 15.8529C20.0304 15.539 20.1667 15.2324 20.1667 14.9792C20.1667 14.7259 20.0304 14.4193 19.6468 14.1054C19.2637 13.7919 18.6832 13.5183 17.9569 13.359C17.586 13.2777 17.3513 12.9111 17.4326 12.5402Z" fill="#999999"/>
<path d="M3.29023 12.016C3.66112 11.9346 4.02771 12.1694 4.10904 12.5402C4.19037 12.9111 3.95565 13.2777 3.58477 13.359C2.85843 13.5183 2.27796 13.7919 1.89486 14.1054C1.51124 14.4193 1.375 14.7259 1.375 14.9792C1.375 15.2324 1.51124 15.539 1.89486 15.8529C2.27796 16.1664 2.85843 16.44 3.58477 16.5993C3.95565 16.6806 4.19037 17.0472 4.10904 17.4181C4.02771 17.789 3.66112 18.0237 3.29023 17.9424C2.40851 17.749 1.61398 17.3998 1.02409 16.9171C0.434728 16.4348 0 15.7719 0 14.9792C0 14.1865 0.434728 13.5235 1.02409 13.0413C1.61398 12.5586 2.40851 12.2093 3.29023 12.016Z" fill="#999999"/>
</svg>
