<svg width="19" height="18" viewBox="0 0 19 18" fill="none" xmlns="http://www.w3.org/2000/svg">
<path d="M7.0325 5.78267L8.75 4.05767V11.2502C8.75 11.4491 8.82902 11.6398 8.96967 11.7805C9.11032 11.9211 9.30109 12.0002 9.5 12.0002C9.69891 12.0002 9.88968 11.9211 10.0303 11.7805C10.171 11.6398 10.25 11.4491 10.25 11.2502V4.05767L11.9675 5.78267C12.0372 5.85296 12.1202 5.90876 12.2116 5.94684C12.303 5.98491 12.401 6.00452 12.5 6.00452C12.599 6.00452 12.697 5.98491 12.7884 5.94684C12.8798 5.90876 12.9628 5.85296 13.0325 5.78267C13.1028 5.71294 13.1586 5.62999 13.1967 5.5386C13.2347 5.4472 13.2543 5.34918 13.2543 5.25017C13.2543 5.15116 13.2347 5.05313 13.1967 4.96173C13.1586 4.87034 13.1028 4.78739 13.0325 4.71767L10.0325 1.71767C9.96117 1.64939 9.87706 1.59586 9.785 1.56017C9.6024 1.48515 9.3976 1.48515 9.215 1.56017C9.12294 1.59586 9.03883 1.64939 8.9675 1.71767L5.9675 4.71767C5.89757 4.7876 5.8421 4.87061 5.80426 4.96198C5.76641 5.05335 5.74693 5.15127 5.74693 5.25017C5.74693 5.34906 5.76641 5.44699 5.80426 5.53835C5.8421 5.62972 5.89757 5.71274 5.9675 5.78267C6.03743 5.8526 6.12045 5.90807 6.21181 5.94591C6.30318 5.98376 6.40111 6.00323 6.5 6.00323C6.59889 6.00323 6.69682 5.98376 6.78819 5.94591C6.87955 5.90807 6.96257 5.8526 7.0325 5.78267ZM16.25 10.5002C16.0511 10.5002 15.8603 10.5792 15.7197 10.7198C15.579 10.8605 15.5 11.0513 15.5 11.2502V14.2502C15.5 14.4491 15.421 14.6398 15.2803 14.7805C15.1397 14.9212 14.9489 15.0002 14.75 15.0002H4.25C4.05109 15.0002 3.86032 14.9212 3.71967 14.7805C3.57902 14.6398 3.5 14.4491 3.5 14.2502V11.2502C3.5 11.0513 3.42098 10.8605 3.28033 10.7198C3.13968 10.5792 2.94891 10.5002 2.75 10.5002C2.55109 10.5002 2.36032 10.5792 2.21967 10.7198C2.07902 10.8605 2 11.0513 2 11.2502V14.2502C2 14.8469 2.23705 15.4192 2.65901 15.8412C3.08097 16.2631 3.65326 16.5002 4.25 16.5002H14.75C15.3467 16.5002 15.919 16.2631 16.341 15.8412C16.7629 15.4192 17 14.8469 17 14.2502V11.2502C17 11.0513 16.921 10.8605 16.7803 10.7198C16.6397 10.5792 16.4489 10.5002 16.25 10.5002Z" fill="#CF5763"/>
</svg>
